<?xml version="1.0" encoding="UTF-8"?>
<!DOCTYPE svg PUBLIC "-//W3C//DTD SVG 1.1//EN" "http://www.w3.org/Graphics/SVG/1.1/DTD/svg11.dtd">
<svg xmlns="http://www.w3.org/2000/svg" version="1.1" width="180px" height="180px" style="shape-rendering:geometricPrecision; text-rendering:geometricPrecision; image-rendering:optimizeQuality; fill-rule:evenodd; clip-rule:evenodd" xmlns:xlink="http://www.w3.org/1999/xlink">
<g><path style="opacity:0.997" fill="#272823" d="M 14.5,-0.5 C 64.5,-0.5 114.5,-0.5 164.5,-0.5C 171.167,2.83333 176.167,7.83333 179.5,14.5C 179.5,64.5 179.5,114.5 179.5,164.5C 176.167,171.167 171.167,176.167 164.5,179.5C 114.5,179.5 64.5,179.5 14.5,179.5C 7.83333,176.167 2.83333,171.167 -0.5,164.5C -0.5,114.5 -0.5,64.5 -0.5,14.5C 2.83333,7.83333 7.83333,2.83333 14.5,-0.5 Z"/></g>
<g><path style="opacity:1" fill="#b9b9b4" d="M 44.5,26.5 C 34.5,26.5 24.5,26.5 14.5,26.5C 14.5,29.5 14.5,32.5 14.5,35.5C 13.5206,32.3752 13.1872,29.0419 13.5,25.5C 24.0135,25.1724 34.3468,25.5058 44.5,26.5 Z"/></g>
<g><path style="opacity:1" fill="#f5f5ef" d="M 44.5,26.5 C 44.0634,53.5333 44.5634,80.5333 46,107.5C 47.6531,111.482 50.6531,113.482 55,113.5C 59.0981,112.881 63.0981,111.881 67,110.5C 67.9454,110.905 68.6121,111.572 69,112.5C 71.053,118.264 69.2197,121.764 63.5,123C 57.1585,124.919 50.8252,124.919 44.5,123C 37.4716,119.785 33.8049,114.285 33.5,106.5C 33.5,82.8333 33.5,59.1667 33.5,35.5C 27.1667,35.5 20.8333,35.5 14.5,35.5C 14.5,32.5 14.5,29.5 14.5,26.5C 24.5,26.5 34.5,26.5 44.5,26.5 Z"/></g>
<g><path style="opacity:1" fill="#b3b3af" d="M 14.5,35.5 C 20.8333,35.5 27.1667,35.5 33.5,35.5C 33.5,59.1667 33.5,82.8333 33.5,106.5C 32.5025,83.3393 32.1691,60.006 32.5,36.5C 26.31,36.8229 20.31,36.4896 14.5,35.5 Z"/></g>
<g><path style="opacity:1" fill="#f3f3ed" d="M 102.5,123.5 C 101.504,137.657 101.171,151.99 101.5,166.5C 96.8333,166.5 92.1667,166.5 87.5,166.5C 87.3333,130.165 87.5,93.8318 88,57.5C 103.861,53.4438 119.695,53.6105 135.5,58C 149.007,63.8539 155.674,74.1872 155.5,89C 155.27,103.634 148.603,114.134 135.5,120.5C 145.661,135.153 153.994,150.82 160.5,167.5C 155.125,167.828 149.792,167.495 144.5,166.5C 138.246,151.487 130.579,137.32 121.5,124C 115.175,123.5 108.842,123.334 102.5,123.5 Z"/></g>
<g><path style="opacity:1" fill="#282924" d="M 102.5,68.5 C 109.841,68.3337 117.174,68.5003 124.5,69C 135.072,71.4741 140.072,78.1407 139.5,89C 140.398,101.426 134.732,108.426 122.5,110C 115.88,111.137 109.214,111.637 102.5,111.5C 102.5,97.1667 102.5,82.8333 102.5,68.5 Z"/></g>
<g><path style="opacity:1" fill="#cbcbc6" d="M 102.5,123.5 C 102.5,138.167 102.5,152.833 102.5,167.5C 97.3054,167.821 92.3054,167.487 87.5,166.5C 92.1667,166.5 96.8333,166.5 101.5,166.5C 101.171,151.99 101.504,137.657 102.5,123.5 Z"/></g>
</svg>
