<?xml version="1.0" encoding="UTF-8" standalone="no"?>
<svg
   xmlns:dc="http://purl.org/dc/elements/1.1/"
   xmlns:cc="http://creativecommons.org/ns#"
   xmlns:rdf="http://www.w3.org/1999/02/22-rdf-syntax-ns#"
   xmlns:svg="http://www.w3.org/2000/svg"
   xmlns="http://www.w3.org/2000/svg"
   xmlns:sodipodi="http://sodipodi.sourceforge.net/DTD/sodipodi-0.dtd"
   xmlns:inkscape="http://www.inkscape.org/namespaces/inkscape"
   version="1.1"
   width="48"
   height="48"
   style="clip-rule:evenodd;fill-rule:evenodd;image-rendering:optimizeQuality;shape-rendering:geometricPrecision;text-rendering:geometricPrecision"
   id="svg38"
   sodipodi:docname="logo_lerina_48x48.svg"
   inkscape:version="0.92.5 (2060ec1f9f, 2020-04-08)">
  <metadata
     id="metadata44">
    <rdf:RDF>
      <cc:Work
         rdf:about="">
        <dc:format>image/svg+xml</dc:format>
        <dc:type
           rdf:resource="http://purl.org/dc/dcmitype/StillImage" />
        <dc:title></dc:title>
      </cc:Work>
    </rdf:RDF>
  </metadata>
  <defs
     id="defs42" />
  <sodipodi:namedview
     pagecolor="#ffffff"
     bordercolor="#666666"
     borderopacity="1"
     objecttolerance="10"
     gridtolerance="10"
     guidetolerance="10"
     inkscape:pageopacity="0"
     inkscape:pageshadow="2"
     inkscape:window-width="1279"
     inkscape:window-height="797"
     id="namedview40"
     showgrid="false"
     inkscape:zoom="2.4583333"
     inkscape:cx="48.5"
     inkscape:cy="47.5"
     inkscape:window-x="0"
     inkscape:window-y="0"
     inkscape:window-maximized="0"
     inkscape:current-layer="svg38" />
  <g
     id="g4"
     transform="matrix(0.5,0,0,0.5,0.25,0.25)">
    <path
       style="opacity:0.98900003;fill:#272823"
       d="m 5.5,-0.5 c 28,0 56,0 84,0 2.3333,1.66667 4.3333,3.66667 6,6 0,28 0,56 0,84 -1.6667,2.3333 -3.6667,4.3333 -6,6 -28,0 -56,0 -84,0 -2.33333,-1.6667 -4.33333,-3.6667 -6,-6 0,-28 0,-56 0,-84 1.66667,-2.33333 3.66667,-4.33333 6,-6 z"
       id="path2"
       inkscape:connector-curvature="0" />
  </g>
  <g
     id="g8"
     transform="matrix(0.5,0,0,0.5,0.25,0.25)">
    <path
       style="opacity:1;fill:#f1f1ec"
       d="m 24.5,55.5 c 0.5283,1.2206 1.195,2.3873 2,3.5 2.646,0.4974 5.3127,0.6641 8,0.5 1.109,0.0569 2.109,0.3902 3,1 0,1.3333 0,2.6667 0,4 -4.1698,1.7294 -8.5031,2.2294 -13,1.5 -2.8859,-1.3845 -4.8859,-3.5512 -6,-6.5 0,-13.6667 0,-27.3333 0,-41 -3.3333,0 -6.6667,0 -10,0 0,-1.3333 0,-2.6667 0,-4 5,0 10,0 15,0 -0.329,13.8435 0.0043,27.5102 1,41 z"
       id="path6"
       inkscape:connector-curvature="0" />
  </g>
  <g
     id="g12"
     transform="matrix(0.5,0,0,0.5,0.25,0.25)">
    <path
       style="opacity:1;fill:#c2c2bd"
       d="m 24.5,55.5 c -0.9957,-13.4898 -1.329,-27.1565 -1,-41 -5,0 -10,0 -15,0 0,1.3333 0,2.6667 0,4 3.3333,0 6.6667,0 10,0 0,13.6667 0,27.3333 0,41 -0.9956,-13.1562 -1.3289,-26.4895 -1,-40 -3.3333,0 -6.6667,0 -10,0 0,-2 0,-4 0,-6 5.6667,0 11.3333,0 17,0 0,14 0,28 0,42 z"
       id="path10"
       inkscape:connector-curvature="0" />
  </g>
  <g
     id="g16"
     transform="matrix(0.5,0,0,0.5,0.25,0.25)">
    <path
       style="opacity:1;fill:#f1f1eb"
       d="m 84.5,86.5 c -2.1353,1.869 -4.8019,2.5356 -8,2 -2.8763,-7.4194 -6.5429,-14.4194 -11,-21 -3.6073,-0.9892 -7.274,-1.3226 -11,-1 0,7.3333 0,14.6667 0,22 -2.6667,0 -5.3333,0 -8,0 0,-19.3333 0,-38.6667 0,-58 7.4887,-1.1557 15.1554,-1.3223 23,-0.5 11.3479,3.8565 15.5146,11.6898 12.5,23.5 -2.2614,4.4295 -5.428,8.0961 -9.5,11 5.0409,6.7472 9.0409,14.0805 12,22 z"
       id="path14"
       inkscape:connector-curvature="0" />
  </g>
  <g
     id="g20"
     transform="matrix(0.5,0,0,0.5,0.25,0.25)">
    <path
       style="opacity:1;fill:#7e7f7a"
       d="m 46.5,30.5 c 0,19.3333 0,38.6667 0,58 2.6667,0 5.3333,0 8,0 -2.7869,0.9767 -5.7869,1.31 -9,1 -0.3304,-19.8404 0.0029,-39.5071 1,-59 z"
       id="path18"
       inkscape:connector-curvature="0" />
  </g>
  <g
     id="g24"
     transform="matrix(0.5,0,0,0.5,0.25,0.25)">
    <path
       style="opacity:1;fill:#d1d1cc"
       d="m 54.5,36.5 c 0,7.3333 0,14.6667 0,22 4.7303,0.2166 9.3969,-0.1167 14,-1 -0.1107,0.6174 -0.444,1.1174 -1,1.5 -4.6548,0.4992 -9.3215,0.6658 -14,0.5 -0.3254,-7.8516 0.008,-15.5182 1,-23 z"
       id="path22"
       inkscape:connector-curvature="0" />
  </g>
  <g
     id="g28"
     transform="matrix(0.5,0,0,0.5,0.25,0.25)">
    <path
       style="opacity:1;fill:#2a2b26"
       d="m 54.5,36.5 c 4.0138,-0.1655 8.0138,0.0012 12,0.5 6.8405,2.5126 9.3405,7.346 7.5,14.5 -1.161,2.6848 -2.9944,4.6848 -5.5,6 -4.6031,0.8833 -9.2697,1.2166 -14,1 0,-7.3333 0,-14.6667 0,-22 z"
       id="path26"
       inkscape:connector-curvature="0" />
  </g>
  <g
     id="g32"
     transform="matrix(0.5,0,0,0.5,0.25,0.25)">
    <path
       style="opacity:1;fill:#92928d"
       d="m 34.5,59.5 c 1.4473,-1.3852 2.4473,-1.0518 3,1 -0.891,-0.6098 -1.891,-0.9431 -3,-1 z"
       id="path30"
       inkscape:connector-curvature="0" />
  </g>
  <g
     id="g36"
     transform="matrix(0.5,0,0,0.5,0.25,0.25)">
    <path
       style="opacity:1;fill:#a4a49f"
       d="m 84.5,86.5 c 0.904,0.709 1.2373,1.709 1,3 -3.2131,0.31 -6.2131,-0.0233 -9,-1 3.1981,0.5356 5.8647,-0.131 8,-2 z"
       id="path34"
       inkscape:connector-curvature="0" />
  </g>
</svg>
