<?xml version="1.0" encoding="UTF-8"?>
<!DOCTYPE svg PUBLIC "-//W3C//DTD SVG 1.1//EN" "http://www.w3.org/Graphics/SVG/1.1/DTD/svg11.dtd">
<svg xmlns="http://www.w3.org/2000/svg" version="1.1" width="512px" height="512px" style="shape-rendering:geometricPrecision; text-rendering:geometricPrecision; image-rendering:optimizeQuality; fill-rule:evenodd; clip-rule:evenodd" xmlns:xlink="http://www.w3.org/1999/xlink">
<g><path style="opacity:1" fill="#272823" d="M 52.5,-0.5 C 187.833,-0.5 323.167,-0.5 458.5,-0.5C 487.167,6.16667 504.833,23.8333 511.5,52.5C 511.5,187.833 511.5,323.167 511.5,458.5C 504.833,487.167 487.167,504.833 458.5,511.5C 323.167,511.5 187.833,511.5 52.5,511.5C 23.8333,504.833 6.16667,487.167 -0.5,458.5C -0.5,323.167 -0.5,187.833 -0.5,52.5C 6.16667,23.8333 23.8333,6.16667 52.5,-0.5 Z"/></g>
<g><path style="opacity:1" fill="#f7f7f1" d="M 41.5,74.5 C 70.1667,74.5 98.8333,74.5 127.5,74.5C 127.333,146.167 127.5,217.834 128,289.5C 128.617,297.547 130.617,305.214 134,312.5C 137.916,318.403 143.416,321.903 150.5,323C 165.891,323.935 180.557,321.101 194.5,314.5C 197.261,324.052 198.594,333.719 198.5,343.5C 173.735,354.991 148.401,356.491 122.5,348C 109.825,340.647 101.658,329.813 98,315.5C 96.4828,309.248 95.4828,302.914 95,296.5C 94.5,231.834 94.3333,167.168 94.5,102.5C 76.8333,102.5 59.1667,102.5 41.5,102.5C 41.5,93.1667 41.5,83.8333 41.5,74.5 Z"/></g>
<g><path style="opacity:1" fill="#f6f6f1" d="M 300.5,157.5 C 316.503,157.333 332.503,157.5 348.5,158C 416.439,164.939 447.606,202.439 442,270.5C 437.91,295.853 425.744,316.353 405.5,332C 399.335,336.25 393.002,340.25 386.5,344C 413.181,386.182 437.181,430.015 458.5,475.5C 443.181,476.499 427.848,476.833 412.5,476.5C 398.099,439.365 380.266,404.032 359,370.5C 354.833,364.833 350.667,359.167 346.5,353.5C 328.179,352.5 309.845,352.167 291.5,352.5C 291.5,393.833 291.5,435.167 291.5,476.5C 277.5,476.5 263.5,476.5 249.5,476.5C 249.5,372.5 249.5,268.5 249.5,164.5C 266.47,160.932 283.47,158.599 300.5,157.5 Z"/></g>
<g><path style="opacity:1" fill="#272823" d="M 297.5,193.5 C 316.24,192.935 334.907,193.768 353.5,196C 380.251,200.751 395.418,216.584 399,243.5C 404.433,288.047 384.933,312.214 340.5,316C 324.193,317.283 307.86,317.783 291.5,317.5C 291.5,276.833 291.5,236.167 291.5,195.5C 293.786,195.405 295.786,194.738 297.5,193.5 Z"/></g>
</svg>
