<?xml version="1.0" encoding="UTF-8" standalone="no"?>
<!-- Generator: Adobe Illustrator 10.0, SVG Export Plug-In . SVG Version: 3.0.0 Build 77)  -->

<svg
   xmlns:i="http://ns.adobe.com/AdobeIllustrator/10.0/"
   xmlns:dc="http://purl.org/dc/elements/1.1/"
   xmlns:cc="http://creativecommons.org/ns#"
   xmlns:rdf="http://www.w3.org/1999/02/22-rdf-syntax-ns#"
   xmlns:svg="http://www.w3.org/2000/svg"
   xmlns="http://www.w3.org/2000/svg"
   xmlns:sodipodi="http://sodipodi.sourceforge.net/DTD/sodipodi-0.dtd"
   xmlns:inkscape="http://www.inkscape.org/namespaces/inkscape"
   height="612.00562"
   i:pageBounds="0 792 612 0"
   i:rulerOrigin="0 0"
   i:viewOrigin="88.9985 632"
   space="preserve"
   style="overflow:visible"
   viewBox="0 0 612.00111 612.00563"
   width="612.0011"
   version="1.1"
   id="svg19"
   sodipodi:docname="selected_writings.svg"
   inkscape:version="0.92.3 (2405546, 2018-03-11)">
  <defs
     id="defs23" />
  <sodipodi:namedview
     pagecolor="#ffffff"
     bordercolor="#666666"
     borderopacity="1"
     objecttolerance="10"
     gridtolerance="10"
     guidetolerance="10"
     inkscape:pageopacity="0"
     inkscape:pageshadow="2"
     inkscape:window-width="1366"
     inkscape:window-height="743"
     id="namedview21"
     showgrid="false"
     inkscape:zoom="0.49901256"
     inkscape:cx="272.93798"
     inkscape:cy="156.35157"
     inkscape:window-x="0"
     inkscape:window-y="0"
     inkscape:window-maximized="1"
     inkscape:current-layer="svg19" />
  <metadata
     id="metadata2">
    <rdf:RDF>
      <cc:Work
         rdf:about="">
        <dc:title></dc:title>
        <dc:description />
        <dc:subject>
          <rdf:Bag>
            <rdf:li>unsorted</rdf:li>
          </rdf:Bag>
        </dc:subject>
        <dc:publisher>
          <cc:Agent
             rdf:about="http://www.openclipart.org/">
            <dc:title>Open Clip Art Library</dc:title>
          </cc:Agent>
        </dc:publisher>
        <dc:creator>
          <cc:Agent>
            <dc:title>Gerald G.</dc:title>
          </cc:Agent>
        </dc:creator>
        <dc:rights>
          <cc:Agent>
            <dc:title>Gerald G.</dc:title>
          </cc:Agent>
        </dc:rights>
        <dc:date />
        <dc:format>image/svg+xml</dc:format>
        <dc:type
           rdf:resource="http://purl.org/dc/dcmitype/StillImage" />
        <cc:license
           rdf:resource="http://web.resource.org/cc/PublicDomain" />
        <dc:language>en</dc:language>
      </cc:Work>
      <cc:License
         rdf:about="http://web.resource.org/cc/PublicDomain">
        <cc:permits
           rdf:resource="http://web.resource.org/cc/Reproduction" />
        <cc:permits
           rdf:resource="http://web.resource.org/cc/Distribution" />
        <cc:permits
           rdf:resource="http://web.resource.org/cc/DerivativeWorks" />
      </cc:License>
    </rdf:RDF>
  </metadata>
  <g
     id="g945">
    <g
       transform="matrix(1.4115936,0,0,1.2939214,0.03942491,0.00995005)"
       style="opacity:1"
       i:knockout="Off"
       id="g16">
      <path
         d="M 85.702,65.43 C 77.386,62.766 71.338,59.454 67.27,54.954 c -4.068,-4.608 -5.04,-10.188 -5.688,-16.2 -0.72,-6.048 -2.268,-14.652 1.584,-19.692 3.816,-5.148 11.628,-7.92 20.952,-10.8 9.216,-3.096 14.76,-6.768 33.984,-6.984 19.296,-0.18 56.124,4.932 80.352,6.048 23.976,1.044 36.685,1.476 62.567,0.324 25.885,-1.332 65.664,-7.488 91.152,-7.632 25.271,-0.108 46.332,0.864 59.725,6.66 13.176,5.724 16.02,13.212 19.367,27.324 3.205,13.968 2.664,39.096 0.324,56.232 -2.521,17.063 -11.879,30.132 -14.615,45.72 -2.771,15.552 0.719,24.696 -1.584,47.016 -2.484,22.392 -8.894,64.583 -12.42,86.04 -3.564,21.204 -8.965,25.74 -8.568,40.824 0.396,14.977 7.164,35.244 11.123,48.601 3.889,13.213 11.197,20.231 12.062,30.637 0.647,10.296 -1.367,22.896 -7.597,31.14 -6.371,8.064 -13.606,10.872 -29.881,17.46 -16.523,6.518 -43.703,17.784 -67.643,21.602 -23.978,3.636 -47.197,1.618 -74.953,0.61 -28.043,-1.15 -66.744,-6.768 -90.828,-6.982 -23.976,-0.182 -33.336,2.23 -52.092,5.724 -18.936,3.348 -45,13.572 -60.012,14.292 -14.904,0.468 -23.292,-3.024 -28.908,-10.476 -5.652,-7.634 -6.768,-24.842 -4.752,-33.984 1.98,-9.18 7.704,-14.76 16.2,-20.34 8.388,-5.58 19.62,-9.864 33.984,-12.996 0.432,-22.464 1.692,-47.196 3.78,-75.601 2.052,-28.477 3.348,-63.539 8.604,-93.671 5.22,-30.24 17.82,-64.368 22.536,-86.004 4.536,-21.672 5.076,-30.024 5.076,-42.552 C 90.994,84.69 89.194,74.394 85.702,65.43 Z"
         i:knockout="Off"
         style="stroke:#000000;stroke-width:0.036;stroke-miterlimit:10"
         id="path4"
         inkscape:connector-curvature="0" />
      <path
         d="M 101.686,63.918 C 95.314,64.53 89.806,64.206 84.874,62.946 79.87,61.578 75.55,59.49 72.202,55.998 c -3.384,-3.6 -6.192,-8.64 -7.308,-14.292 -1.224,-5.868 -2.88,-14.832 0.324,-19.944 3.132,-5.148 9.72,-7.488 18.396,-10.476 8.568,-3.132 18.108,-7.092 32.94,-7.596 14.868,-0.432 36.648,3.42 55.476,4.752 18.72,1.152 37.548,2.412 56.089,2.52 18.468,-0.036 34.668,-0.72 53.892,-2.196 19.116,-1.548 43.991,-5.76 60.192,-6.66 16.127,-1.008 27.791,-0.648 35.818,0.936 -4.643,6.732 -7.451,13.392 -8.566,19.98 -1.151,6.588 -0.145,13.032 1.906,19.332 2.053,6.264 5.293,11.988 10.152,17.748 -5.832,-3.708 -21.023,-5.976 -46.26,-6.66 -25.523,-0.792 -78.48,1.296 -104.58,2.231 -25.957,0.648 -28.873,1.548 -50.4,2.844 -21.743,1.333 -47.483,3.133 -78.587,5.401 z"
         i:knockout="Off"
         style="fill:#e8e4d4;stroke:#000000;stroke-width:0.036;stroke-miterlimit:10"
         id="path6"
         inkscape:connector-curvature="0" />
      <path
         d="m 374.458,33.462 35.496,-5.04 c -0.108,7.488 -1.01,13.356 -2.846,18.036 -1.906,4.572 -5.256,7.38 -8.244,9.54 -3.203,2.124 -6.729,4.428 -10.149,3.168 -3.457,-1.476 -7.813,-6.804 -10.152,-11.124 -2.413,-4.392 -3.782,-9.108 -4.105,-14.58 z"
         i:knockout="Off"
         style="fill:#e8e4d4;stroke:#000000;stroke-width:0.036;stroke-miterlimit:10"
         id="path8"
         inkscape:connector-curvature="0" />
      <path
         d="m 374.062,30.222 c -1.08,-3.852 -0.793,-7.812 0.719,-12.276 1.478,-4.464 4.178,-9.216 8.244,-14.256 11.557,1.008 20.305,2.808 26.93,5.4 6.479,2.484 8.496,3.492 12.023,9.828 3.42,6.228 7.416,15.48 8.496,27.468 0.971,11.952 -0.613,32.22 -2.521,43.74 -2.053,11.304 -6.553,16.344 -9.217,24.408 -2.735,7.884 -5.473,14.58 -6.66,23.436 -1.188,8.928 -0.035,20.232 -0.287,29.484 -0.323,8.964 -0.434,14.796 -1.584,24.732 -1.368,10.008 -4.141,22.14 -5.94,34.452 -1.765,12.276 -2.521,24.948 -4.787,38.016 -2.484,12.924 -8.568,26.46 -9.504,38.664 -0.865,12.06 1.619,23.11 4.139,33.3 2.449,10.151 6.949,19.151 10.152,27 3.024,7.56 6.588,12.492 8.209,18.684 1.477,6.229 1.979,12.456 0.971,18.396 -1.26,5.903 -3.887,11.628 -7.596,16.487 -3.707,4.681 -9.539,9.035 -14.291,11.699 -4.824,2.558 -10.008,4.104 -14.58,3.816 -4.789,-0.36 -10.008,-1.8 -13.285,-5.725 -3.238,-4.031 -5.256,-10.151 -6.047,-18.359 4.393,-3.276 9.324,-5.58 15.229,-7.309 5.867,-1.729 12.275,-2.628 19.654,-2.845 0.9,-10.188 0.324,-18.323 -1.584,-24.695 -2.123,-6.407 -3.383,-10.943 -10.149,-13.319 -6.878,-2.448 -14.689,-3.889 -30.099,-1.26 -15.588,2.556 -41.291,11.23 -62.135,16.451 -20.844,5.111 -41.041,11.447 -62.1,14.292 -21.241,2.663 -44.569,2.053 -64.009,2.195 -19.332,0.036 -33.768,-1.548 -51.66,-1.26 -18.072,0.324 -36.396,1.332 -55.8,3.168 0.144,-10.656 0.936,-26.964 2.232,-49.752 1.296,-22.968 2.052,-58.464 5.724,-86.221 3.636,-27.899 10.908,-56.879 15.84,-78.731 4.752,-21.708 10.332,-36.612 12.996,-50.688 2.592,-14.148 3.024,-22.932 2.844,-33.3 -0.252,-10.44 -1.584,-19.908 -4.14,-28.836 6.84,0.252 19.08,-0.216 37.404,-1.26 18.396,-1.224 49.356,-4.176 71.64,-5.4 22.141,-1.26 42.805,-1.439 60.192,-1.908 17.207,-0.648 29.699,-0.972 42.479,-1.26 12.563,-0.396 21.06,-1.008 33.265,-0.324 12.239,0.72 29.123,3.6 39.526,4.608 10.188,1.008 15.48,3.888 21.564,1.26 6.012,-2.844 12.023,-11.304 14.58,-17.748 2.412,-6.516 2.412,-13.356 0,-20.916 -12.345,2.2 -24.694,4.432 -37.077,6.664 z"
         i:knockout="Off"
         style="fill:#e8e4d4;stroke:#000000;stroke-width:0.036;stroke-miterlimit:10"
         id="path10"
         inkscape:connector-curvature="0" />
      <path
         d="m 388.966,395.37 c -3.097,-0.288 -7.164,0.396 -12.349,1.908 -5.221,1.512 -11.412,3.996 -18.721,7.308 -1.152,-8.028 -1.369,-15.084 -0.648,-21.563 0.722,-6.589 2.269,-13.536 4.789,-17.102 2.447,-3.492 6.658,-4.5 10.115,-4.14 3.42,0.358 7.451,2.448 10.152,5.724 2.52,3.024 3.887,7.992 5.076,12.672 1.045,4.681 1.621,9.613 1.586,15.193 z"
         i:knockout="Off"
         style="fill:#e8e4d4;stroke:#000000;stroke-width:0.036;stroke-miterlimit:10"
         id="path12"
         inkscape:connector-curvature="0" />
      <path
         d="m 357.25,362.43 c -3.852,-0.216 -10.618,0.9 -20.592,3.492 -10.045,2.521 -21.924,7.2 -38.987,11.7 -17.316,4.464 -41.4,11.844 -63.359,14.904 -21.997,2.88 -44.172,2.159 -67.5,2.556 -23.436,0.252 -53.496,-1.26 -71.856,-0.647 -18.324,0.433 -26.136,1.801 -37.728,4.104 -11.808,2.34 -23.724,5.76 -32.004,9.828 -8.352,3.815 -13.536,7.992 -17.1,13.644 -3.492,5.762 -4.248,13.394 -3.816,20.27 0.252,6.624 1.98,15.3 6.012,19.8 3.888,4.464 5.832,7.668 18.072,6.984 12.384,-0.9 39.024,-8.604 55.476,-11.736 16.236,-3.24 26.208,-5.688 42.12,-6.948 16.056,-1.26 35.46,-1.224 52.92,-0.324 17.28,0.864 34.02,3.96 50.076,5.4 15.84,1.296 29.557,2.916 45.035,2.52 15.445,-0.538 31.176,-1.584 47.197,-5.074 15.946,-3.638 31.68,-8.894 47.879,-16.164 -6.732,-5.004 -11.556,-10.766 -14.615,-17.425 -3.168,-6.659 -4.285,-13.141 -3.781,-22.5 0.504,-9.58 2.554,-20.848 6.551,-34.384 z"
         i:knockout="Off"
         style="fill:#e8e4d4;stroke:#000000;stroke-width:0.036;stroke-miterlimit:10"
         id="path14"
         inkscape:connector-curvature="0" />
    </g>
    <text
       transform="scale(1.0812992,0.92481344)"
       id="text904"
       y="131.80814"
       x="139.46666"
       style="font-style:normal;font-weight:normal;font-size:29.94145012px;line-height:1.25;font-family:sans-serif;letter-spacing:0px;word-spacing:0px;fill:#000000;fill-opacity:1;stroke:none;stroke-width:1.02073109"
       xml:space="preserve"><tspan
         style="font-size:26.13388443px;stroke-width:1.02073109"
         y="131.80814"
         x="139.46666"
         id="tspan902"
         sodipodi:role="line">With</tspan><tspan
         style="font-size:26.13388443px;stroke-width:1.02073109"
         id="tspan906"
         y="169.23495"
         x="139.46666"
         sodipodi:role="line" /><tspan
         id="tspan924"
         style="font-size:26.13388443px;stroke-width:1.02073109"
         y="206.66176"
         x="139.46666"
         sodipodi:role="line">P assion tamed,</tspan><tspan
         style="font-size:26.13388443px;stroke-width:1.02073109"
         id="tspan908"
         y="244.08858"
         x="139.46666"
         sodipodi:role="line">E motions tutored,</tspan><tspan
         style="font-size:26.13388443px;stroke-width:1.02073109"
         id="tspan910"
         y="281.51538"
         x="139.46666"
         sodipodi:role="line">A nger deflated,</tspan><tspan
         style="font-size:26.13388443px;stroke-width:1.02073109"
         id="tspan912"
         y="318.9422"
         x="139.46666"
         sodipodi:role="line">C ravings moderated,</tspan><tspan
         style="font-size:26.13388443px;stroke-width:1.02073109"
         id="tspan914"
         y="356.36902"
         x="139.46666"
         sodipodi:role="line">E nergy regulated</tspan><tspan
         style="font-size:26.13388443px;stroke-width:1.02073109"
         id="tspan916"
         y="393.79584"
         x="139.46666"
         sodipodi:role="line" /><tspan
         id="tspan922"
         style="font-size:26.13388443px;stroke-width:1.02073109"
         y="431.22263"
         x="139.46666"
         sodipodi:role="line">PEACE is spelled out.</tspan><tspan
         id="tspan920"
         style="font-size:26.13388443px;stroke-width:1.02073109"
         y="468.64944"
         x="139.46666"
         sodipodi:role="line" /><tspan
         style="font-size:26.13388443px;stroke-width:1.02073109"
         id="tspan918"
         y="506.07626"
         x="139.46666"
         sodipodi:role="line">                        _ lerina</tspan></text>
  </g>
</svg>
