<?xml version="1.0" encoding="UTF-8" standalone="no"?>
<!-- Created with Inkscape (http://www.inkscape.org/) -->

<svg
   xmlns:dc="http://purl.org/dc/elements/1.1/"
   xmlns:cc="http://creativecommons.org/ns#"
   xmlns:rdf="http://www.w3.org/1999/02/22-rdf-syntax-ns#"
   xmlns:svg="http://www.w3.org/2000/svg"
   xmlns="http://www.w3.org/2000/svg"
   xmlns:sodipodi="http://sodipodi.sourceforge.net/DTD/sodipodi-0.dtd"
   xmlns:inkscape="http://www.inkscape.org/namespaces/inkscape"
   width="110.0077mm"
   height="75.017509mm"
   viewBox="0 0 110.0077 75.01751"
   version="1.1"
   id="svg1172"
   inkscape:version="0.92.4 (unknown)"
   sodipodi:docname="01.confused.svg">
  <defs
     id="defs1166" />
  <sodipodi:namedview
     id="base"
     pagecolor="#ffffff"
     bordercolor="#666666"
     borderopacity="1.0"
     inkscape:pageopacity="0.0"
     inkscape:pageshadow="2"
     inkscape:zoom="1.206367"
     inkscape:cx="179.79828"
     inkscape:cy="115.53576"
     inkscape:document-units="mm"
     inkscape:current-layer="layer1"
     showgrid="false"
     inkscape:window-width="1366"
     inkscape:window-height="749"
     inkscape:window-x="0"
     inkscape:window-y="0"
     inkscape:window-maximized="1" />
  <metadata
     id="metadata1169">
    <rdf:RDF>
      <cc:Work
         rdf:about="">
        <dc:format>image/svg+xml</dc:format>
        <dc:type
           rdf:resource="http://purl.org/dc/dcmitype/StillImage" />
        <dc:title />
      </cc:Work>
    </rdf:RDF>
  </metadata>
  <g
     inkscape:groupmode="layer"
     id="layer2"
     inkscape:label="bg"
     transform="translate(-51.328665,-73.726505)"
     style="display:inline">
    <rect
       style="fill:#b7a572;fill-opacity:0.10588235;stroke:none;stroke-width:0.79374999;stroke-miterlimit:4;stroke-dasharray:none;stroke-opacity:1"
       id="rect837"
       width="211.66667"
       height="299.35715"
       x="1.5119044"
       y="-0.089285895" />
  </g>
  <g
     inkscape:label="Layer 1"
     inkscape:groupmode="layer"
     id="layer1"
     transform="translate(-51.328665,-73.726505)">
    <rect
       style="display:inline;fill:#8d5fd3;fill-opacity:1;stroke:#2000a5;stroke-width:0.56497079;stroke-miterlimit:4;stroke-dasharray:none;stroke-opacity:1"
       id="rect4769"
       width="7.9871116"
       height="2.7843409"
       x="97.865562"
       y="94.136353" />
    <rect
       style="display:inline;fill:#8d5fd3;fill-opacity:1;stroke:#2000a5;stroke-width:0.56497079;stroke-miterlimit:4;stroke-dasharray:none;stroke-opacity:1"
       id="rect4773"
       width="7.0876374"
       height="3.0075738"
       x="130.69254"
       y="89.359627" />
    <rect
       style="display:inline;fill:#8d5fd3;fill-opacity:1;stroke:#2000a5;stroke-width:0.56497079;stroke-miterlimit:4;stroke-dasharray:none;stroke-opacity:1"
       id="rect4773-3"
       width="7.0876374"
       height="3.0075738"
       x="126.02961"
       y="88.032738" />
    <rect
       style="display:inline;fill:#8d5fd3;fill-opacity:1;stroke:#2000a5;stroke-width:0.56497079;stroke-miterlimit:4;stroke-dasharray:none;stroke-opacity:1"
       id="rect4773-6"
       width="7.0876374"
       height="3.0075738"
       x="120.80712"
       y="77.771606" />
    <rect
       style="display:inline;fill:#8d5fd3;fill-opacity:1;stroke:#2000a5;stroke-width:0.56497079;stroke-miterlimit:4;stroke-dasharray:none;stroke-opacity:1"
       id="rect4773-7"
       width="7.0876374"
       height="3.0075738"
       x="107.75097"
       y="88.209656" />
    <rect
       style="display:inline;fill:#8d5fd3;fill-opacity:1;stroke:#2000a5;stroke-width:0.56497079;stroke-miterlimit:4;stroke-dasharray:none;stroke-opacity:1"
       id="rect4773-5"
       width="7.0876374"
       height="3.0075738"
       x="97.679047"
       y="80.77919" />
    <ellipse
       style="display:inline;fill:#8d5fd3;fill-opacity:1;stroke:#2000a5;stroke-width:0.56497079;stroke-miterlimit:4;stroke-dasharray:none;stroke-opacity:1"
       id="path4843"
       cx="114.8386"
       cy="108.64346"
       rx="3.1707857"
       ry="1.2384125" />
    <ellipse
       style="display:inline;fill:#8d5fd3;fill-opacity:1;stroke:#2000a5;stroke-width:0.56497079;stroke-miterlimit:4;stroke-dasharray:none;stroke-opacity:1"
       id="path4843-9"
       cx="85.182426"
       cy="93.251762"
       rx="3.1707857"
       ry="1.2384125" />
    <ellipse
       style="display:inline;fill:#8d5fd3;fill-opacity:1;stroke:#2000a5;stroke-width:0.56497079;stroke-miterlimit:4;stroke-dasharray:none;stroke-opacity:1"
       id="path4843-1"
       cx="103.83412"
       cy="86.352043"
       rx="3.1707857"
       ry="1.2384125" />
    <ellipse
       style="display:inline;fill:#8d5fd3;fill-opacity:1;stroke:#2000a5;stroke-width:0.56497079;stroke-miterlimit:4;stroke-dasharray:none;stroke-opacity:1"
       id="path4843-2"
       cx="123.6049"
       cy="83.344467"
       rx="3.1707857"
       ry="1.2384125" />
    <path
       sodipodi:type="star"
       style="display:inline;fill:#8d5fd3;fill-opacity:1;stroke:#2000a5;stroke-width:3;stroke-miterlimit:4;stroke-dasharray:none;stroke-opacity:1"
       id="path4965-5-2"
       sodipodi:sides="3"
       sodipodi:cx="580.44049"
       sodipodi:cy="331.39963"
       sodipodi:r1="16.482735"
       sodipodi:r2="8.2413673"
       sodipodi:arg1="2.7149652"
       sodipodi:arg2="3.7621627"
       inkscape:flatsided="false"
       inkscape:rounded="0"
       inkscape:randomized="0"
       d="m 565.43516,338.22023 8.30059,-11.61295 8.30059,-11.61295 5.90682,12.995 5.90681,12.99499 -14.2074,-1.38204 z"
       inkscape:transform-center-x="-0.1702917"
       inkscape:transform-center-y="-1.4392557"
       transform="matrix(0.20537662,-0.01192386,0.02547148,0.09614219,-25.573632,88.314989)" />
    <path
       sodipodi:type="star"
       style="display:inline;fill:#8d5fd3;fill-opacity:1;stroke:#2000a5;stroke-width:3;stroke-miterlimit:4;stroke-dasharray:none;stroke-opacity:1"
       id="path4965-5-2-2"
       sodipodi:sides="3"
       sodipodi:cx="580.44049"
       sodipodi:cy="331.39963"
       sodipodi:r1="16.482735"
       sodipodi:r2="8.2413673"
       sodipodi:arg1="2.7149652"
       sodipodi:arg2="3.7621627"
       inkscape:flatsided="false"
       inkscape:rounded="0"
       inkscape:randomized="0"
       d="m 565.43516,338.22023 8.30059,-11.61295 8.30059,-11.61295 5.90682,12.995 5.90681,12.99499 -14.2074,-1.38204 z"
       inkscape:transform-center-x="-0.17029344"
       inkscape:transform-center-y="-1.4392436"
       transform="matrix(0.20537662,-0.01192386,0.02547148,0.09614219,-21.380133,77.449238)" />
    <path
       sodipodi:type="star"
       style="display:inline;fill:#8d5fd3;fill-opacity:1;stroke:#2000a5;stroke-width:3;stroke-miterlimit:4;stroke-dasharray:none;stroke-opacity:1"
       id="path4965-5-2-8"
       sodipodi:sides="3"
       sodipodi:cx="580.44049"
       sodipodi:cy="331.39963"
       sodipodi:r1="16.482735"
       sodipodi:r2="8.2413673"
       sodipodi:arg1="2.7149652"
       sodipodi:arg2="3.7621627"
       inkscape:flatsided="false"
       inkscape:rounded="0"
       inkscape:randomized="0"
       d="m 565.43516,338.22023 8.30059,-11.61295 8.30059,-11.61295 5.90682,12.995 5.90681,12.99499 -14.2074,-1.38204 z"
       inkscape:transform-center-x="-0.17029328"
       inkscape:transform-center-y="-1.4392492"
       transform="matrix(0.20537662,-0.01192386,0.02547148,0.09614219,2.553491,60.762543)" />
    <path
       sodipodi:type="star"
       style="display:inline;fill:#8d5fd3;fill-opacity:1;stroke:#2000a5;stroke-width:3;stroke-miterlimit:4;stroke-dasharray:none;stroke-opacity:1"
       id="path4965-5-2-9"
       sodipodi:sides="3"
       sodipodi:cx="580.44049"
       sodipodi:cy="331.39963"
       sodipodi:r1="16.482735"
       sodipodi:r2="8.2413673"
       sodipodi:arg1="2.7149652"
       sodipodi:arg2="3.7621627"
       inkscape:flatsided="false"
       inkscape:rounded="0"
       inkscape:randomized="0"
       d="m 565.43516,338.22023 8.30059,-11.61295 8.30059,-11.61295 5.90682,12.995 5.90681,12.99499 -14.2074,-1.38204 z"
       inkscape:transform-center-x="-0.17030575"
       inkscape:transform-center-y="-1.43925"
       transform="matrix(0.20537662,-0.01192386,0.02547148,0.09614219,-39.38149,65.128247)" />
    <path
       sodipodi:type="star"
       style="display:inline;fill:#8d5fd3;fill-opacity:1;stroke:#2000a5;stroke-width:3;stroke-miterlimit:4;stroke-dasharray:none;stroke-opacity:1"
       id="path4965-5-2-7"
       sodipodi:sides="3"
       sodipodi:cx="580.44049"
       sodipodi:cy="331.39963"
       sodipodi:r1="16.482735"
       sodipodi:r2="8.2413673"
       sodipodi:arg1="2.7149652"
       sodipodi:arg2="3.7621627"
       inkscape:flatsided="false"
       inkscape:rounded="0"
       inkscape:randomized="0"
       d="m 565.43516,338.22023 8.30059,-11.61295 8.30059,-11.61295 5.90682,12.995 5.90681,12.99499 -14.2074,-1.38204 z"
       inkscape:transform-center-x="-0.17029392"
       inkscape:transform-center-y="-1.4392487"
       transform="matrix(0.20537662,-0.01192386,0.02547148,0.09614219,-35.699396,50.672915)" />
    <path
       sodipodi:type="star"
       style="display:inline;fill:#8d5fd3;fill-opacity:1;stroke:#2000a5;stroke-width:3;stroke-miterlimit:4;stroke-dasharray:none;stroke-opacity:1"
       id="path4965-5-2-6"
       sodipodi:sides="3"
       sodipodi:cx="580.44049"
       sodipodi:cy="331.39963"
       sodipodi:r1="16.482735"
       sodipodi:r2="8.2413673"
       sodipodi:arg1="2.7149652"
       sodipodi:arg2="3.7621627"
       inkscape:flatsided="false"
       inkscape:rounded="0"
       inkscape:randomized="0"
       d="m 565.43516,338.22023 8.30059,-11.61295 8.30059,-11.61295 5.90682,12.995 5.90681,12.99499 -14.2074,-1.38204 z"
       inkscape:transform-center-x="-0.17029334"
       inkscape:transform-center-y="-1.4392462"
       transform="matrix(0.20537662,-0.01192386,0.02547148,0.09614219,-14.629621,62.120761)" />
    <ellipse
       style="display:inline;fill:#8d5fd3;fill-opacity:1;stroke:#2000a5;stroke-width:0.56497079;stroke-miterlimit:4;stroke-dasharray:none;stroke-opacity:1"
       id="path4843-9-1"
       cx="91.897034"
       cy="101.38992"
       rx="3.1707857"
       ry="1.2384125" />
    <path
       style="display:inline;opacity:1;vector-effect:none;fill:none;fill-opacity:1;stroke:#2000a5;stroke-width:0.56497079;stroke-linecap:butt;stroke-linejoin:miter;stroke-miterlimit:4;stroke-dasharray:none;stroke-dashoffset:0;stroke-opacity:1"
       d="m 68.777748,104.78776 c -0.624657,0.10574 -1.294297,0.16448 -1.873965,0.31739 -0.108664,0.0288 0,0.11794 0,0.17691 0,0.0926 -0.04903,0.66115 0,0.70766 0.07865,0.0746 0.29439,0.10223 0.373036,0.17692 0.05561,0.0528 0,0.11795 0,0.17691 0,0.059 0,0.11795 0,0.17693 0,0.35383 0,0.70766 0,1.0615 0,0.059 0,0.11794 0,0.1769 0,0.059 -0.08793,0.13522 0,0.17693 0.08791,0.0417 0.285109,-0.0417 0.37303,0 0.08793,0.0417 0,0.11794 0,0.1769 0,0.059 0.05561,0.12417 0,0.17693 -0.07864,0.0746 -0.294392,0.10235 -0.37303,0.17691 -0.05561,0.0528 0.05561,0.12417 0,0.17692 -0.07864,0.0746 -0.294391,0.10223 -0.373036,0.17691 -0.05561,0.0528 0.05561,0.12417 0,0.17693 -0.07865,0.0746 -0.294387,0.10223 -0.373032,0.1769 -0.199071,0.18883 0.19907,0.16502 0,0.35384 -0.07865,0.0746 -0.294391,0.10223 -0.373031,0.17691 -0.117229,0.11118 0.11723,0.59647 0,0.70766 -0.07865,0.0746 -0.294395,0.10223 -0.373035,0.17692 -0.117672,0.11163 0.117672,0.77297 0,0.88457 -0.07865,0.0746 -0.294391,0.10224 -0.373036,0.17693 -0.04905,0.0465 0,0.61515 0,0.70767 0,0.58972 0,1.17944 0,1.76916 0,0.4128 0,0.8256 0,1.23841 0,0.059 -0.08791,0.13522 0,0.17691 0.08793,0.0417 0.261814,-0.0263 0.373036,0 0.314572,0.0746 0.431498,0.27924 0.746066,0.35384 0.111224,0.0264 0.285111,-0.0417 0.373032,0 0.08791,0.0417 -0.05561,0.12417 0,0.17691 0.07865,0.0746 0.29439,0.10223 0.373036,0.17691 0.05561,0.0528 -0.05561,0.12418 0,0.17693 0.07865,0.0746 0.294391,0.10223 0.37303,0.1769 0.05561,0.0528 -0.05561,0.12417 0,0.17693 0.07865,0.0746 0.294396,0.10234 0.373036,0.1769 0.06745,0.064 0,0.76154 0,0.8846 0,0.12305 0.06745,0.82059 0,0.88457 -0.07865,0.0746 -0.294391,0.10223 -0.373036,0.17693 -0.05676,0.0538 0,0.45107 0,0.53073 0,0.41281 0,0.82561 0,1.23841 0,0.059 0,0.11794 0,0.17692 0,0.059 0.05561,0.12418 0,0.17692 -0.07864,0.0746 -0.294392,0.10223 -0.37303,0.17692 -0.04905,0.0465 0,0.61516 0,0.70766 0,0.0797 -0.05676,0.47691 0,0.53074 0.07865,0.0746 0.294391,0.10223 0.37303,0.17693 0.05561,0.0528 -0.05561,0.12417 0,0.17692 0.157286,0.14918 0.588783,0.20463 0.746071,0.35383 0.05561,0.0528 -0.08793,0.13521 0,0.17692 0.08791,0.0417 0.285107,-0.0417 0.373036,0 0.08791,0.0417 -0.08793,0.1352 0,0.1769 0.08791,0.0417 0.285106,-0.0417 0.37303,0 0.175851,0.0834 -0.175855,0.27043 0,0.35383 0.08793,0.0417 0.285111,-0.0417 0.373033,0 0.08791,0.0417 -0.05561,0.12417 0,0.17692 0.157286,0.14919 0.588784,0.20464 0.746066,0.35383 0.05561,0.0528 -0.08791,0.13522 0,0.17692 0.08793,0.0417 0.285111,-0.0417 0.373035,0 0.248838,0.11801 -0.248838,0.23582 0,0.35383 0.08791,0.0417 0.285107,-0.0417 0.373036,0 0.08791,0.0417 -0.05561,0.12417 0,0.17692 0.07864,0.0746 0.294388,0.10223 0.373031,0.17691 0.05561,0.0528 -0.08791,0.13523 0,0.17692 0.08793,0.0417 0.285111,-0.0417 0.373033,0 0.08793,0.0417 -0.05561,0.12417 0,0.17692 0.07864,0.0746 0.29439,0.10234 0.373035,0.17691 0.05561,0.0528 -0.05561,0.12416 0,0.17692 0.157285,0.14919 0.588782,0.20464 0.746066,0.35383 0.05561,0.0528 -0.08793,0.13522 0,0.17692 0.08793,0.0417 0.285111,-0.0417 0.373037,0 0.08791,0.0417 -0.05561,0.12417 0,0.17692 0.776239,0.73628 -0.02576,-0.18914 0.746066,0.1769 0.08791,0.0417 -0.08793,0.13522 0,0.17693 0.08791,0.0417 0.285105,-0.0417 0.373033,0 0.08791,0.0417 -0.08793,0.13521 0,0.17692 0.08791,0.0417 0.285109,-0.0417 0.373033,0 0.08793,0.0417 -0.08791,0.1352 0,0.17691 0.08793,0.0417 0.285113,-0.0417 0.373034,0 0.08793,0.0417 -0.05561,0.12417 0,0.17692 0.157286,0.14918 0.588781,0.20463 0.74607,0.35382 0.05561,0.0528 -0.05562,0.12417 0,0.17693 0.07865,0.0746 0.294386,0.10234 0.37303,0.1769 0.11723,0.11118 -0.117229,0.59647 0,0.70767 0.07864,0.0746 0.294391,0.10234 0.373037,0.17692 0.05561,0.0528 0,0.11794 0,0.17691 0,0.059 0,0.11795 0,0.17692 0,0.29486 0,0.58972 0,0.88459 0,0.059 0,0.11793 0,0.17691 0,0.059 -0.08791,0.13522 0,0.17691 0.08793,0.0417 0.285108,-0.0417 0.373029,0 0.07626,0.0361 -0.07395,0.46061 0,0.53074 0.07865,0.0746 0.294394,0.10234 0.373033,0.17693 0.111225,0.1054 -0.111209,0.24834 0,0.35383 1.2372,0.58676 -0.175846,-0.16679 0.37304,0.35383 0.157286,0.1492 0.588778,0.20465 0.746066,0.35384 0.548883,0.52063 -0.864164,-0.23294 0.373036,0.35383 0.12434,0.059 0.215744,0.13961 0.373028,0.17692 0.51455,0.12201 0.333668,-0.21426 0.746066,0.17691 0.05561,0.0528 -0.05561,0.12417 0,0.17691 0.07864,0.0746 0.294396,0.10234 0.373035,0.17691 0.05561,0.0528 -0.05561,0.12418 0,0.17693 0.157285,0.14918 0.588784,0.20463 0.746068,0.35382 0.05561,0.0528 -0.05561,0.12418 0,0.17692 0.157285,0.14919 0.588782,0.20464 0.746066,0.35383 0.05562,0.0528 -0.05561,0.12417 0,0.17693 0.07865,0.0746 0.294391,0.10234 0.373036,0.17691 0.111208,0.1054 -0.111209,0.24834 0,0.35383 0.07865,0.0746 0.294391,0.10223 0.373037,0.17692 0.04905,0.0465 0,0.61516 0,0.70766"
       id="path4744"
       inkscape:connector-curvature="0" />
    <path
       style="display:inline;opacity:1;vector-effect:none;fill:none;fill-opacity:1;stroke:#2000a5;stroke-width:0.56497079;stroke-linecap:butt;stroke-linejoin:miter;stroke-miterlimit:4;stroke-dasharray:none;stroke-dashoffset:0;stroke-opacity:1"
       d="m 99.357709,139.95761 c -0.12434,-0.23588 -0.143744,-0.49019 -0.373033,-0.70766 -0.111208,-0.10551 -0.523632,0.0528 -0.746064,0 -0.157285,-0.0373 -0.215751,-0.13963 -0.37304,-0.17693 -0.01956,-0.005 -1.099579,-0.005 -1.119097,0 -0.157286,0.0373 -0.215749,0.13963 -0.373037,0.17693 -0.11121,0.0264 -0.261813,-0.0264 -0.373029,0 -0.157286,0.0373 -0.215749,0.13961 -0.373033,0.17691 -0.111225,0.0264 -0.261818,-0.0264 -0.373035,0 -0.157286,0.0372 -0.215749,0.13962 -0.373037,0.17691 -0.994752,0 0.12434,-0.059 -0.373031,0.17692 -0.771819,0.36605 0.03018,-0.55936 -0.746067,0.17692 -0.257275,0.24402 0.451764,0.15824 -0.373032,0.35383 -0.111225,0.0264 -0.261812,-0.0264 -0.373039,0 -0.824796,0.19558 -0.115759,0.10981 -0.37303,0.35383 -0.157285,0.14919 -0.588784,0.20464 -0.746071,0.35385 -0.05561,0.0528 0.05561,0.12416 0,0.1769 -0.157285,0.14919 -0.588779,0.20464 -0.746063,0.35383 -0.05561,0.0528 0,0.11795 0,0.17692 -0.12434,0.059 -0.294391,0.10234 -0.373032,0.17692 -0.111225,0.1054 0.07865,0.24193 0,0.35383 -0.08791,0.1251 -0.285115,0.22872 -0.373039,0.35383 -0.08095,0.11516 0,1.0903 0,1.23841 0,0.29487 0,0.58972 0,0.88458 0,0.059 -0.08791,0.13522 0,0.17691 0.08791,0.0417 0.285109,-0.0417 0.373039,0 0.175847,0.0834 -0.111225,0.24835 0,0.35384 0.07865,0.0746 0.294387,0.10223 0.373032,0.17693 0.111209,0.1054 -0.111225,0.24833 0,0.35382 0.07865,0.0746 0.294388,0.10234 0.373032,0.17691 0.05561,0.0528 -0.05561,0.12417 0,0.17692 0.07865,0.0746 0.294392,0.10234 0.373034,0.17692 0.05562,0.0528 -0.05561,0.12417 0,0.17691 0.77624,0.73629 -0.02576,-0.18913 0.746072,0.17692 0.08791,0.0417 -0.05561,0.12417 0,0.17692 0.157286,0.14919 0.588778,0.20464 0.746065,0.35383 0.05561,0.0528 -0.08793,0.13522 0,0.17691 0.08791,0.0417 0.261816,-0.0264 0.373032,0 1.552478,0.36815 -0.398784,-0.0122 0.373032,0.35384 0.08793,0.0417 0.285111,-0.0417 0.373035,0 0.08791,0.0417 -0.08791,0.13521 0,0.1769 0.08791,0.0417 0.261817,-0.0263 0.373031,0 0.157285,0.0373 0.215751,0.13963 0.373037,0.17693 0.222433,0.0528 0.523634,-0.0528 0.746068,0 0.157285,0.0373 0.215746,0.13961 0.373029,0.17691 0.235333,0.0558 1.629836,-0.0558 1.865171,0 0.157286,0.0372 0.215747,0.13962 0.373035,0.17691 0.113517,0.0269 0.951098,0 1.119099,0 0.994757,0 1.989507,0 2.984277,0 0.26441,0 2.14175,0.0229 2.23819,0 0.15728,-0.0372 0.20621,-0.15054 0.37305,-0.17691 0.23592,-0.0373 0.49737,0 0.74606,0 0.12434,0 0.26181,0.0264 0.37304,0 0.15728,-0.0373 0.24868,-0.11795 0.37302,-0.17691 0.24869,0 0.51014,0.0373 0.74607,0 0.16683,-0.0264 0.20621,-0.15055 0.37303,-0.17693 0.23593,-0.0372 0.50481,0.0286 0.74607,0 0.26975,-0.0319 0.4823,-0.13521 0.74607,-0.1769 0.11795,-0.0187 0.25507,0.0187 0.37303,0 0.26378,-0.0417 0.4823,-0.13522 0.74607,-0.17692 0.11796,-0.0187 0.25507,0.0187 0.37304,0 0.26376,-0.0417 0.48229,-0.13522 0.74605,-0.17692 0.11797,-0.0187 0.26183,0.0264 0.37304,0 0.15729,-0.0372 0.21575,-0.13961 0.37304,-0.17691 0.11121,-0.0264 0.26182,0.0263 0.37304,0 0.31457,-0.0746 0.43149,-0.27924 0.74606,-0.35383 0.11121,-0.0264 0.28511,0.0417 0.37303,0 0.088,-0.0417 -0.0556,-0.12418 0,-0.17692 0.22383,-0.21231 0.89528,-0.31846 1.11911,-0.53075 0.0556,-0.0528 -0.0556,-0.12417 0,-0.17692 0.0787,-0.0746 0.29439,-0.10223 0.37303,-0.17691 0.0556,-0.0528 -0.0556,-0.12417 0,-0.17692 0.0787,-0.0746 0.29439,-0.10223 0.37303,-0.1769 0.0556,-0.0528 -0.0556,-0.12419 0,-0.17693 0.0787,-0.0746 0.27549,-0.10744 0.37304,-0.17691 0.70668,0.0202 0.24869,-0.41281 0.37303,-0.53076 0.0787,-0.0746 0.2944,-0.10234 0.37303,-0.17691 0.0556,-0.0528 -0.0394,-0.12097 0,-0.17692 0.0879,-0.12509 0.28512,-0.22873 0.37304,-0.35383 0.1119,-0.15923 -0.11192,-0.37152 0,-0.53074 0.088,-0.1251 0.2851,-0.22874 0.37303,-0.35383 0.0673,-0.0958 0,-0.64741 0,-0.70767 0,-0.14118 0.0746,-0.77844 0,-0.88458 -0.088,-0.1251 -0.28511,-0.22874 -0.37303,-0.35382 -0.13213,-0.188 0.13213,-0.51969 0,-0.70768 -0.0556,-0.0791 -0.2944,-0.10223 -0.37304,-0.17692 -0.0556,-0.0528 0.0556,-0.12417 0,-0.17691 -0.0787,-0.0746 -0.29439,-0.10223 -0.37303,-0.17692 -0.0556,-0.0528 0.0556,-0.12417 0,-0.17692 -0.15729,-0.14919 -0.58878,-0.20464 -0.74607,-0.35382 -0.0556,-0.0528 0.088,-0.13522 0,-0.17693 -0.088,-0.0417 -0.26181,0.0264 -0.37303,0 -0.31457,-0.0746 -0.4315,-0.27923 -0.74607,-0.35383 -0.11122,-0.0263 -0.26182,0.0264 -0.37304,0 -0.31456,-0.0746 -0.43149,-0.27924 -0.74606,-0.35383 -0.11122,-0.0263 -0.26182,0.0264 -0.37303,0 -0.15728,-0.0373 -0.21575,-0.13962 -0.37303,-0.17691 -0.11123,-0.0264 -0.26182,0.0264 -0.37304,0 -0.15729,-0.0372 -0.21574,-0.13961 -0.37304,-0.17691 -0.22243,-0.0528 -0.52363,0.0528 -0.74606,0 -0.15729,-0.0373 -0.21574,-0.13963 -0.37303,-0.17692 -0.11122,-0.0264 -0.26182,0.0264 -0.37304,0 -0.15728,-0.0373 -0.21575,-0.13962 -0.37303,-0.17692 -0.22243,-0.0528 -0.52363,0.0528 -0.74607,0 -0.15728,-0.0372 -0.20621,-0.15055 -0.37303,-0.17691 -0.17062,-0.0271 -1.32615,0.0393 -1.49214,0 -0.15729,-0.0373 -0.21574,-0.13962 -0.37304,-0.17692 -0.1112,-0.0264 -0.24869,0 -0.37303,0 -0.24869,0 -0.49737,0 -0.74606,0 -0.99475,0 -1.98952,0 -2.98428,0 -0.16799,0 -1.00556,-0.0269 -1.1191,0 -0.15728,0.0373 -0.21575,0.13961 -0.37304,0.17692 -0.1112,0.0264 -0.2851,-0.0417 -0.37302,0 -0.088,0.0417 0.0556,0.12416 0,0.17691 -0.77624,0.73628 0.0258,-0.18913 -0.74607,0.17692 -0.088,0.0417 0.0879,0.13521 0,0.17692 -0.088,0.0417 -0.26182,-0.0264 -0.37303,0 -0.314579,0.0746 -0.431502,0.27923 -0.746074,0.35382 -0.111209,0.0264 -0.285105,-0.0417 -0.37303,0 -0.08791,0.0417 0.08791,0.13523 0,0.17691 -0.08791,0.0417 -0.261821,-0.0264 -0.373032,0 -0.921918,0.21863 0.128764,0.17692 -0.746072,0.17692 l -3.357299,1.41533"
       id="path4746"
       inkscape:connector-curvature="0" />
    <path
       style="display:inline;opacity:1;vector-effect:none;fill:none;fill-opacity:1;stroke:#2000a5;stroke-width:0.56497079;stroke-linecap:butt;stroke-linejoin:miter;stroke-miterlimit:4;stroke-dasharray:none;stroke-dashoffset:0;stroke-opacity:1"
       d="m 91.150971,141.72677 c 0.870411,0.58972 1.679385,1.20094 2.611235,1.76915 0.07634,0.0465 -0.08791,-0.13521 0,-0.1769 0.08791,-0.0417 0.248689,0 0.373032,0 0,-0.059 -0.05561,-0.12417 0,-0.17693 0.07865,-0.0746 0.294391,-0.10223 0.373035,-0.1769 0.05561,-0.0528 -0.08791,-0.13523 0,-0.17692 0.08791,-0.0417 0.285111,0.0417 0.373031,0 0.08793,-0.0417 -0.08791,-0.13522 0,-0.17692 0.08793,-0.0417 0.285113,0.0417 0.373037,0 0.08791,-0.0417 -0.08791,-0.13522 0,-0.17691 0.08791,-0.0417 0.285109,-0.0417 0.373035,0 0.08791,0.0417 0,0.11794 0,0.17691 0,0.47178 0,0.94356 0,1.41532 0,0.059 0,0.11796 0,0.17692 0,0.059 -0.08793,0.13523 0,0.17692 0.08791,0.0417 0.285108,0.0417 0.373033,0 0.08793,-0.0417 -0.08791,-0.13521 0,-0.17692 0.08793,-0.0417 0.285108,0.0417 0.373034,0 0.08791,-0.0417 -0.08793,-0.13522 0,-0.17692 0.08791,-0.0417 0.285111,0.0417 0.373032,0 0.08791,-0.0417 -0.08791,-0.13521 0,-0.17691 0.08791,-0.0417 0.248691,0 0.373035,0 0.12434,0 0.285111,-0.0417 0.373036,0 0.08791,0.0417 0,0.11794 0,0.17691 0,0.23589 0,0.47178 0,0.70767 0,0.059 0,0.11794 0,0.17691 0,0.059 -0.12434,0.17693 0,0.17693 0.6186,0 0.261564,-0.2481 0.37303,-0.35384 0.157286,-0.14918 0.588785,-0.20464 0.746071,-0.35383 0.05561,-0.0528 -0.08793,-0.13521 0,-0.17692 0.08791,-0.0417 0.285108,-0.0417 0.373029,0 0.01687,0.008 0,0.80117 0,0.88459 0,0.059 0,0.11795 0,0.17691 0,0.059 0.12434,0.17693 0,0.17693 -0.124339,0 0,-0.11796 0,-0.17693"
       id="path4748"
       inkscape:connector-curvature="0" />
    <path
       style="display:inline;opacity:1;vector-effect:none;fill:none;fill-opacity:1;stroke:#2000a5;stroke-width:0.56497079;stroke-linecap:butt;stroke-linejoin:miter;stroke-miterlimit:4;stroke-dasharray:none;stroke-dashoffset:0;stroke-opacity:1"
       d="m 99.357709,139.95761 c -0.03963,0.73926 1.129611,0.005 1.492131,0.17691 0.012,0.006 0,0.48784 0,0.53075 0,0.11796 0,0.23589 0,0.35385 0,0.059 0.12434,0.1769 0,0.1769 -0.12434,0 0.088,-0.13522 0,-0.1769 -0.0879,-0.0417 -0.28511,0.0417 -0.37303,0 -0.088,-0.0417 0.0556,-0.12419 0,-0.17693 -0.32425,-0.30757 -0.746064,-0.58972 -1.119101,-0.88458"
       id="path4750"
       inkscape:connector-curvature="0" />
    <ellipse
       style="display:inline;fill:#660080;fill-opacity:1;stroke:#2000a5;stroke-width:0.56497079;stroke-miterlimit:4;stroke-dasharray:none;stroke-opacity:1"
       id="path4756"
       cx="97.295479"
       cy="140.57411"
       rx="0.95237106"
       ry="0.66724616" />
    <ellipse
       style="display:inline;fill:#660080;fill-opacity:1;stroke:#2000a5;stroke-width:0.62459034;stroke-miterlimit:4;stroke-dasharray:none;stroke-opacity:1"
       id="path4758"
       cx="-59.324581"
       cy="193.73676"
       rx="1.5976555"
       ry="1.4913483"
       transform="matrix(0.96542724,-0.26067267,0.76833455,0.64004845,0,0)" />
    <path
       style="display:inline;opacity:1;vector-effect:none;fill:none;fill-opacity:1;stroke:#2000a5;stroke-width:0.7469672;stroke-linecap:butt;stroke-linejoin:miter;stroke-miterlimit:4;stroke-dasharray:none;stroke-dashoffset:0;stroke-opacity:1"
       d="m 97.358732,80.626757 c 0.384862,-0.360769 0.769717,-0.721532 1.154584,-1.082294 0.192433,0 0.44122,0.06377 0.577294,0 0.136064,-0.06378 -0.08606,-0.189904 0,-0.270574 0.121701,-0.114085 0.45559,-0.156488 0.577291,-0.270572 0.08606,-0.08066 -0.08606,-0.189903 0,-0.270572 0.121701,-0.114083 0.455599,-0.156491 0.577299,-0.270573 0.0861,-0.08067 -0.13607,-0.2068 0,-0.270574 0.13606,-0.06377 0.44122,0.06378 0.57729,0 1.19443,-0.559824 -1.825266,0.02185 0.57728,-0.541146 0.17212,-0.04033 0.38487,0 0.5773,0 0.19243,0 0.38485,0 0.57729,0 0.66196,0 1.71116,-0.07007 2.30916,0 0.41744,0.04892 0.76973,0.180384 1.15459,0.270572 0.76972,0.180383 1.51014,0.391348 2.30917,0.541148 0.565,0.105921 1.21008,0.123834 1.73187,0.270573 0.93343,0.262493 1.45916,0.763573 2.30917,1.082287 0.54179,0.203147 1.1901,0.338006 1.73188,0.541148 0.42501,0.159357 0.76972,0.360766 1.15458,0.541147 0.76677,0.359379 1.45831,0.569413 1.73187,1.082289 0.0934,0.175 0,0.360766 0,0.541145 0,0.180382 0.14295,0.373667 0,0.541147 -1.36671,1.601423 -6.17795,2.40286 -9.23666,2.976298 -1.92431,0.360768 -3.84861,0.721527 -5.77292,1.082291 -0.96216,0.180384 -1.90337,0.387558 -2.88646,0.541147 -0.7527,0.117596 -1.556471,0.152979 -2.309168,0.270573 -0.983095,0.153587 -1.90337,0.387557 -2.886456,0.541144 -0.752701,0.117595 -1.556474,0.152977 -2.309167,0.270572 -2.1851,0.341383 -2.982144,0.682039 -5.195627,0.811719 -0.763781,0.04475 -1.547184,-0.05102 -2.309169,0 -0.60241,0.04034 -1.13164,0.223684 -1.731879,0.270575 -0.569439,0.04448 -1.154585,0 -1.731878,0 -0.577291,0 -1.154576,0 -1.731872,0 -1.347015,0 -2.694031,0 -4.041043,0 -0.384863,0 -0.789475,0.05704 -1.154589,0 -0.258171,-0.04034 -0.384859,-0.180383 -0.57729,-0.270575 -0.192435,-0.09018 -0.45559,-0.15649 -0.577285,-0.270571 -0.08606,-0.08067 0.06086,-0.185009 0,-0.270573 -0.136064,-0.191326 -0.441228,-0.34982 -0.577294,-0.541147 -0.06086,-0.08555 0,-0.180383 0,-0.270573 0,-0.180379 -0.09335,-0.366148 0,-0.541144 0.208718,-0.391305 0.834965,-0.707797 1.154579,-1.082291 2.616605,-3.065961 -1.523066,1.18975 1.731879,-1.352866 1.002539,-1.409653 -0.0794,-0.291694 1.731875,-1.352861 0.433421,-0.25393 0.76972,-0.541147 1.154584,-0.811718 0.384856,-0.270573 0.844298,-0.520861 1.154584,-0.811718 0.272137,-0.255098 0.264206,-0.567154 0.577296,-0.811719 0.280023,-0.218747 0.874548,-0.322399 1.154576,-0.541144 0.313081,-0.244565 0.264213,-0.567154 0.577293,-0.811719 0.280032,-0.218745 0.81458,-0.341945 1.154585,-0.541145 1.047649,-0.316348 1.058643,-0.932143 1.731879,-1.352865 0.326557,-0.20408 0.769722,-0.360762 1.154577,-0.541146 0.384866,-0.180379 0.769728,-0.360761 1.154592,-0.541143 0.384858,-0.180384 0.769726,-0.360767 1.154576,-0.541145 0.38486,-0.180381 0.687871,-0.409898 1.15458,-0.541144 0.521802,-0.146743 1.16688,-0.164653 1.731881,-0.270575 0.399512,-0.0749 0.755074,-0.195674 1.15459,-0.270572 0.913819,-0.171322 3.189522,-0.484132 4.041034,-0.541148 0.571493,-0.03827 1.154589,0 1.731879,0 0.577289,0 1.154584,0 1.731878,0 0.769714,0 1.54718,-0.05102 2.30916,0 0.60241,0.04033 1.15459,0.180381 1.73187,0.270573 0.5773,0.09018 1.1546,0.180384 1.73188,0.270575 0.5773,0.09019 1.15459,0.180381 1.73188,0.270572 0.5773,0.0902 1.21009,0.123832 1.73188,0.270575 0.46671,0.131246 0.72959,0.381785 1.15458,0.541144 0.54179,0.20314 1.19009,0.338002 1.73189,0.541145 0.42501,0.159362 0.76972,0.360764 1.15457,0.541143 0.38486,0.180384 0.82803,0.337066 1.15458,0.541146 0.53264,0.332854 1.57516,1.526732 1.73188,1.89401 0.0755,0.176876 0,0.360763 0,0.541149 0,0.450952 0.1887,0.910664 0,1.352859 -0.0844,0.197759 -0.38486,0.360766 -0.57729,0.541145 -2.09285,1.961809 0.60852,-0.427815 -1.15459,0.811718 -0.23867,0.167805 -0.33861,0.373343 -0.57729,0.541147 -0.30191,0.212252 -0.76971,0.360764 -1.15458,0.541143 -0.11271,0.05284 -1.002,0.342086 -0.57728,0.541145 0.0144,0.0068 2.66958,0 2.88645,0 1.73188,0 3.46375,0 5.19563,0 0.6171,0 3.41588,-0.05861 4.04104,0 0.59671,0.05594 1.16688,0.164652 1.73187,0.270573 0.39952,0.0749 0.76973,0.180383 1.15459,0.270573 0.38487,0.09018 0.85033,0.127969 1.15458,0.270575 0.30426,0.142605 0.31912,0.379809 0.5773,0.541145 0.32657,0.204077 0.82803,0.337063 1.15457,0.541146 0.25819,0.161337 0.31911,0.379806 0.57731,0.541147 0.32656,0.204076 0.95245,0.30429 1.15459,0.541144 0.21438,0.251218 -0.11329,0.5464 0,0.811716 0.0844,0.197757 0.38486,0.360767 0.57727,0.541148 0,0.270571 -0.095,0.544827 0,0.811715 0.10002,0.281331 0.57731,0.526509 0.57731,0.811724 0,0.285203 -0.47725,0.530386 -0.57731,0.811716 -0.095,0.266891 0.095,0.544824 0,0.811716 -0.36276,1.020139 -0.73449,0.688522 -1.73186,1.623439 -0.27213,0.255101 -0.23975,0.574404 -0.57731,0.811708 -0.45287,0.318386 -1.15457,0.541153 -1.73187,0.811719 -0.38486,0.18038 -0.76971,0.360772 -1.15458,0.541153 -0.5773,0.270577 -1.06754,0.589303 -1.73188,0.811719 -0.70028,0.234428 -1.56197,0.341029 -2.30916,0.541142 -1.77367,0.475027 -1.94762,0.755226 -4.04105,1.082296 -1.75013,0.27343 -3.44549,0.267712 -5.19563,0.541131 -0.98309,0.153606 -1.87485,0.435787 -2.88646,0.541153 -0.75139,0.07834 -1.54414,-0.03985 -2.30916,0 -0.97521,0.05072 -1.91127,0.219788 -2.88647,0.270578 -0.76501,0.0399 -1.53944,0 -2.30916,0 -0.76972,0 -1.53945,0 -2.30916,0 -0.769728,0 -1.539451,0 -2.309179,0 -0.577289,0 -1.16243,0.0445 -1.731875,0 -1.641109,-0.128202 -1.54042,-0.288794 -2.886453,-0.541143 -0.564999,-0.105853 -1.210074,-0.123831 -1.731874,-0.270588 -0.236723,-0.06657 -2.708325,-1.241529 -2.886471,-1.352861 -1.226528,-0.76648 -0.150538,-0.282215 -0.57729,-1.082285 -0.104367,-0.195653 -0.492899,-0.343394 -0.57729,-0.541142 -0.113216,-0.265324 0,-0.541153 0,-0.811719 0,-0.541153 0,-1.082296 0,-1.623438 0,-0.811715 0,-1.623438 0,-2.435151 0,-0.270576 0,-0.541143 0,-0.811722 0,-0.270571 0.0949,-0.544825 0,-0.811714 -0.100037,-0.281329 -0.457946,-0.532051 -0.577291,-0.811719 -0.07548,-0.176881 0.07548,-0.364267 0,-0.541147 -0.119346,-0.27967 -0.457955,-0.532044 -0.577285,-0.811717 -0.528296,-1.238031 0.762756,0.173854 -0.577294,-1.082291 -0.244961,-0.229621 -1.466671,-1.499134 -1.731875,-1.623436 -0.304264,-0.142604 -0.796567,-0.158706 -1.154589,-0.270572 -0.226431,-0.07075 -0.384859,-0.180383 -0.57729,-0.270576 -0.577294,-0.270571 -1.154585,-0.541143 -1.731878,-0.811718 -0.192432,-0.0902 -0.333885,-0.21353 -0.577291,-0.270572 -0.172114,-0.04033 -0.405174,0.04033 -0.577285,0 -0.243413,-0.05704 -0.333892,-0.21353 -0.577296,-0.270571 -0.172116,-0.04033 -0.405182,0.04033 -0.577298,0 -0.2434,-0.05704 -0.33388,-0.21353 -0.577286,-0.270573 -0.172117,-0.04033 -0.384864,0 -0.57729,0 -0.192432,0 -0.441228,-0.06377 -0.577294,0 -0.136064,0.06378 0,0.180383 0,0.270573 0,0.0902 0,0.180379 0,0.270571 0,0.09018 -0.08606,0.189904 0,0.270572 0.121701,0.114085 0.384862,0.18038 0.577294,0.270575 0.192426,0.09019 0.350861,0.199821 0.57729,0.270572 0.358022,0.111865 0.796557,0.158706 1.154584,0.270571 2.644653,0.826356 -2.453827,-0.439757 1.731872,0.541148 2.745321,0.643356 -0.717145,-0.06722 2.886464,0.27057 0.421932,0.03956 0.732647,0.231023 1.154584,0.270573 1.320856,0.123816 2.707563,-0.08928 4.041034,0 0.602408,0.04034 1.131638,0.223687 1.731881,0.270575 2.251485,0.175875 1.277934,-0.09983 3.463757,-0.270575 4.667325,-0.36459 -0.651719,0.392756 2.886456,-0.270573 0.564996,-0.105921 1.141523,-0.201398 1.731874,-0.27057 0.186686,-0.02185 0.405177,0.04034 0.577294,0 0.528405,-0.123827 1.01396,-0.613987 1.15459,-0.811719 0.0609,-0.08555 0.0861,-0.189902 0,-0.270572 -0.1217,-0.114084 -0.384876,-0.180384 -0.577299,-0.270575 -0.192429,-0.0902 -0.384864,-0.18038 -0.577291,-0.270572 -0.384861,-0.180381 -0.719163,-0.388086 -1.154589,-0.541144 -0.688453,-0.242007 -1.571229,-0.333625 -2.309168,-0.541145 -0.594941,-0.167311 -1.1113,-0.39572 -1.731867,-0.541145 -0.922769,-0.216247 -3.177876,-0.425556 -4.041051,-0.541146 -5.797332,-0.776334 3.177797,0.304708 -4.041037,-0.541142 -0.769731,-0.0902 -1.546283,-0.168417 -2.309168,-0.270577 -1.491101,-0.199676 -2.436863,-0.447161 -4.04104,-0.541148 -0.763782,-0.04474 -1.545395,0.04475 -2.30917,0 -0.787286,-0.04612 -1.521889,-0.224443 -2.309169,-0.270569 -0.763781,-0.04475 -1.539448,0 -2.309164,0 -1.347015,0 -2.694035,0 -4.041052,0 -1.347011,0 -2.694019,0 -4.041034,0 -0.577296,0 -1.160392,-0.03826 -1.73188,0 -0.785441,0.0526 -1.526554,0.209438 -2.309168,0.270569 -0.37963,0.02966 -0.777199,-0.03537 -1.154589,0 -1.443259,0.135293 -2.743119,0.507559 -4.04104,0.811725 -0.384862,0.09019 -0.796563,0.158702 -1.154587,0.27057 -0.794182,0.24815 -0.59373,0.417417 -1.154584,0.811718 -0.704193,0.495076 -0.736013,0.027 -1.154582,0.811716 -0.113532,0.212837 0,1.342062 0,1.623437 0,0.450958 0,0.901909 0,1.352862 0,0.180386 -0.07548,0.364269 0,0.541146 0.119331,0.279674 0.384861,0.541147 0.577291,0.81172 0.38486,0.541147 0.76972,1.082291 1.154585,1.623435 0.384861,0.541147 0.769721,1.082291 1.154581,1.623435 0.192434,0.270574 0.305154,0.556621 0.577296,0.811724 0.62057,0.581711 1.688591,1.041719 2.309165,1.623432 0.272136,0.255098 0.305155,0.556619 0.577293,0.811719 0.310283,0.290854 0.769723,0.541143 1.154582,0.81172 0.384866,0.270565 0.769724,0.541142 1.154589,0.811708 0.76972,0.541153 1.539442,1.082307 2.309168,1.623449 0.384859,0.270565 0.710414,0.561894 1.154584,0.811719 0.522652,0.293955 1.154586,0.541131 1.731871,0.811707 0.577291,0.270577 1.104686,0.566751 1.731878,0.811719 0.533008,0.208175 1.198867,0.332968 1.731878,0.541154 0.627183,0.244957 1.104687,0.566743 1.731876,0.811723 0.533007,0.20817 1.198865,0.33295 1.731879,0.54114 0.627177,0.24495 1.067528,0.58931 1.731866,0.81172 0.700282,0.23444 1.56198,0.34103 2.309173,0.54114 0.602405,0.16134 1.129471,0.3798 1.73187,0.54114 0.747195,0.20011 1.561986,0.34103 2.30917,0.54114 2.131678,0.57092 1.503554,0.63631 4.041048,1.0823 0.742897,0.13058 1.556469,0.15297 2.309163,0.27058 0.983098,0.15358 1.90337,0.38755 2.886458,0.54114 0.752697,0.11759 1.539448,0.18038 2.309173,0.27056 3.26108,0.38213 1.531166,0.19765 5.195624,0.54116 0.962157,0.0902 1.924305,0.18038 2.886468,0.27056 0.96215,0.0902 1.91012,0.22482 2.88644,0.27058 0.95739,0.0448 1.92432,0 2.88647,0 0.96216,0 1.92431,0 2.88647,0 0.96214,0 1.92908,0.0448 2.88645,0 0.004,-1.4e-4 5.74859,-0.53907 5.77292,-0.54114 1.87593,-0.15986 3.93496,-0.25401 5.77293,-0.54116 0.98309,-0.15358 1.90336,-0.38754 2.88645,-0.54114 0.7527,-0.11759 1.56627,-0.14 2.30917,-0.27056 0.80579,-0.14163 1.53946,-0.36078 2.30918,-0.54116 0.76971,-0.18038 1.56197,-0.34103 2.30916,-0.54113 0.60239,-0.16134 1.12947,-0.37981 1.73187,-0.54115 0.74719,-0.20012 1.64805,-0.28294 2.30917,-0.54116 0.53301,-0.20816 0.66397,-0.58176 1.15458,-0.8117 4.54103,-2.128367 -1.26496,1.3067 3.46374,-1.35286 0.88836,-0.499643 1.53945,-1.082311 2.30918,-1.623442 0.38485,-0.270577 0.8443,-0.520843 1.1546,-0.81173 0.27212,-0.25509 0.33757,-0.549566 0.57728,-0.811708 0.49893,-0.545682 1.53847,-1.259473 1.73187,-1.894003 0.10887,-0.35715 -0.10887,-0.725169 0,-1.082296 0.0862,-0.28234 0.47724,-0.530387 0.57728,-0.81172 0.095,-0.266892 0,-0.541143 0,-0.811719 0,-0.360765 0,-0.721531 0,-1.082289 0,-0.270576 0,-0.541143 0,-0.811719 0,-0.270574 0.095,-0.544828 0,-0.811717 -0.10002,-0.281329 -0.38485,-0.541146 -0.57728,-0.811719 -0.19244,-0.270575 -0.38485,-0.541147 -0.57729,-0.81172 -0.19244,-0.270571 -0.30516,-0.55662 -0.57731,-0.811715 -0.31027,-0.290857 -0.7697,-0.541147 -1.15455,-0.81172 -0.3849,-0.270573 -0.72118,-0.557789 -1.1546,-0.811718 -0.68001,-0.398395 -1.53945,-0.721528 -2.30918,-1.08229 -1.07388,-0.503332 -1.42997,-0.740966 -2.88643,-1.082294 -1.39564,-0.32706 -2.56134,-0.28107 -4.04106,-0.541143 -4.92623,-0.865832 -0.027,-0.274197 -4.04103,-0.811718 -1.08556,-0.145367 -4.22165,-0.490423 -5.19565,-0.541145 -0.765,-0.03984 -1.54414,0.03985 -2.30915,0 -0.97521,-0.05079 -1.91013,-0.224812 -2.88648,-0.270574 -0.95736,-0.04488 -1.9243,0 -2.88645,0 -0.96215,0 -1.9243,0 -2.88646,0 -2.88646,0 -5.77291,0 -8.65938,0 -0.96215,0 -1.92908,-0.04488 -2.88647,0 -0.97632,0.04576 -1.92429,0.18038 -2.88644,0.270574 -0.962163,0.09018 -1.924311,0.180378 -2.886468,0.270571 -8.705656,0.816057 2.141801,-0.223081 -5.195624,0.541145 -0.957845,0.09976 -1.955606,0.125146 -2.88646,0.270574 -0.816411,0.127548 -1.492755,0.413596 -2.309171,0.541144 -0.930851,0.145432 -1.967724,0.109091 -2.886454,0.270572 -0.649648,0.114184 -1.129476,0.37981 -1.731879,0.541147 -5.438216,1.45649 0.575083,-0.450091 -4.041048,1.352862 -0.533003,0.20818 -1.241265,0.311204 -1.73187,0.541146 -0.490611,0.229945 -0.710414,0.561905 -1.154589,0.81172 -0.522656,0.293959 -1.279008,0.493335 -1.731875,0.811718 -0.33754,0.237307 -0.305147,0.55662 -0.57729,0.811717 -0.310286,0.290856 -0.881271,0.512823 -1.154579,0.81172 -0.312541,0.341797 -0.359328,0.724729 -0.577291,1.082289 -0.426031,0.698868 -0.954068,1.14214 -1.154592,1.894006 -0.09547,0.357984 0,0.721531 0,1.082295 0,0.360762 0,0.721535 0,1.082285 0,0.270577 -0.08165,0.543871 0,0.811731 0.112204,0.36812 0.384858,0.721511 0.577298,1.082284 0.192427,0.360762 0.298705,0.734101 0.577294,1.082296 0.302164,0.377664 0.815579,0.711549 1.154585,1.082284 0.479409,0.524296 0.610301,1.113237 1.154575,1.623439 0.310281,0.29085 0.844301,0.52086 1.154589,0.81172 0.272142,0.2551 0.305152,0.55662 0.577286,0.81172 1.946322,1.36833 0.536835,0.22316 1.731883,1.62342 0.319606,0.37451 0.945852,0.691 1.154576,1.0823 0.09337,0.17499 0,0.36077 0,0.54114 0,0.0902 -0.08606,0.18991 0,0.27058 0.477776,0.44787 1.1029,0.0727 0.577298,0.81172 -0.08605,0.121 -0.455592,0.15649 -0.577298,0.27056 -0.172113,0.16134 0.272146,0.41361 0,0.54116 -0.136064,0.0637 -0.384857,0 -0.577286,0 -0.192431,0 -0.384864,0 -0.57729,0 -0.577294,0 -1.184213,0.0856 -1.731883,0 -0.263533,-0.0411 -1.471882,-0.68987 -1.731875,-0.81172 -0.57729,-0.27057 -1.154575,-0.54116 -1.731869,-0.81172 -0.192432,-0.0902 -0.426339,-0.16445 -0.577291,-0.27058 -0.238684,-0.1678 -0.319126,-0.3798 -0.577294,-0.54114 -0.326568,-0.20408 -0.828021,-0.33707 -1.154586,-0.54114 -0.258173,-0.16134 -0.31912,-0.37981 -0.57729,-0.54116 -0.326565,-0.20407 -0.828022,-0.33706 -1.154587,-0.54114 -0.258171,-0.16134 -0.355913,-0.36821 -0.577291,-0.54114 -0.813213,-0.63524 -1.204028,-0.73437 -1.731878,-1.35286 -1.674276,-1.961808 0.0395,0.0927 -0.577285,-1.352863 -0.119347,-0.279668 -0.477257,-0.530398 -0.57729,-0.811719 -0.129175,-0.363286 0,-1.754221 0,-2.16458 0,-0.270577 0,-0.541142 0,-0.81173 0,-0.270566 -0.113216,-0.546396 0,-0.811719 0.08437,-0.197748 0.417481,-0.35389 0.57729,-0.541143 0.225996,-0.264803 0.384853,-0.541142 0.577285,-0.811719 0.384863,-0.541138 0.769726,-1.082285 1.154583,-1.62343 0.192433,-0.270571 0.264216,-0.567153 0.577295,-0.81172 0.280026,-0.218747 0.814576,-0.341945 1.154581,-0.541146 0.433426,-0.253929 0.721166,-0.557786 1.154587,-0.811714 0.340005,-0.199202 0.814577,-0.34195 1.154586,-0.541146 0.433427,-0.253929 0.721153,-0.557793 1.154585,-0.81172 0.340005,-0.199199 0.769717,-0.360764 1.154579,-0.541144 0.384858,-0.180384 0.729574,-0.381786 1.154581,-0.541144 0.541791,-0.203143 1.190103,-0.338004 1.731878,-0.541147 0.425016,-0.159362 0.729573,-0.381787 1.154589,-0.541146 2.127804,-0.797832 1.087787,-0.305906 2.886455,-0.81172 0.594956,-0.167307 1.111309,-0.395714 1.731875,-0.541143 1.088557,-0.255099 2.333758,-0.329296 3.46375,-0.541148 1.346036,-0.252346 1.245342,-0.412946 2.886458,-0.541143 0.569442,-0.04449 1.162438,0.04448 1.731882,0 0.600236,-0.04689 1.131632,-0.223687 1.731879,-0.270575 0.569435,-0.04448 1.154578,0 1.731874,0 0.577293,0 1.162436,-0.04448 1.73187,0 0.600244,0.04688 1.154583,0.18038 1.731879,0.270575 1.154579,0.180383 2.309168,0.360764 3.463758,0.541143 0.57729,0.0902 1.15457,0.180387 1.73187,0.270576 0.57729,0.0902 1.21007,0.123833 1.73187,0.270572 0.46672,0.131247 0.72958,0.381787 1.15458,0.541143 0.54179,0.203146 1.19888,0.332968 1.73188,0.541146 0.62719,0.244966 1.15459,0.541147 1.73188,0.81172 0.38487,0.180384 0.81457,0.341948 1.15458,0.541147 0.43343,0.253926 0.72116,0.557786 1.15459,0.811715 0.34001,0.199201 0.81457,0.341949 1.15458,0.541145 0.43344,0.253932 0.76972,0.541148 1.15458,0.811719 0.38487,0.270575 0.8443,0.520865 1.15459,0.811718 0.80821,0.757603 0.92367,1.677553 1.73188,2.435158 0.99736,0.934907 1.36912,0.603297 1.73187,1.623428 0.90574,2.547067 -1.38482,-1.324689 0.57729,1.894015 0.50106,0.821931 1.23084,1.613226 1.73188,2.435157 0.21797,0.357557 0.35932,0.724727 0.57728,1.082284 0.33436,0.548478 0.76974,1.082298 1.1546,1.623438 0.19242,0.27058 0.35129,0.5469 0.57729,0.81172 1.69886,1.99061 -0.76005,-1.33928 1.15459,1.35287 0.38485,0.54113 0.70257,1.09381 1.15458,1.62343 0.31962,0.37449 0.83496,0.70779 1.15457,1.08228 0.22601,0.26482 0.3513,0.54692 0.5773,0.81172 0.31961,0.3745 0.76972,0.72154 1.15458,1.0823 0.19243,0.18038 0.38487,0.36077 0.5773,0.54114 0.19243,0.18039 0.27304,0.39855 0.57729,0.54115 0.30425,0.1426 0.79654,0.1587 1.15459,0.27057 0.22641,0.0708 0.38487,0.18039 0.57728,0.27056 0.66052,0.30958 0.6834,0.37736 1.73189,0.54116 0.22756,0.0355 2.08158,0.0355 2.30916,0 0.40821,-0.0637 0.73714,-0.22166 1.15458,-0.27057 1.21945,-0.14288 1.21891,0.24042 2.30916,-0.27059 0.30427,-0.1426 0.27303,-0.39853 0.5773,-0.54113 0.30427,-0.1426 0.81036,-0.14956 1.15458,-0.27057 1.22938,-0.43216 1.65223,-1.00762 2.30916,-1.62344 0.19245,-0.18038 0.33862,-0.37334 0.57732,-0.54114 0.1509,-0.10608 0.49123,-0.14958 0.57726,-0.27058 0.0387,-0.0545 0.0381,-1.5521 0,-1.62344 -0.10428,-0.19565 -0.38485,-0.36075 -0.57726,-0.54114 -0.19245,-0.18038 -0.38487,-0.36076 -0.57732,-0.54114 -0.69984,-0.65603 -1.31994,-1.31446 -2.30916,-1.89402 -0.34001,-0.19919 -0.76972,-0.36076 -1.15458,-0.54114 -0.38487,-0.18037 -0.72955,-0.38178 -1.15458,-0.54114 -0.54178,-0.20315 -1.24128,-0.3112 -1.73188,-0.54114 -0.49061,-0.22995 -0.66398,-0.581778 -1.15458,-0.811723 -0.4906,-0.229945 -1.15458,-0.360762 -1.73188,-0.541154 -0.57728,-0.18038 -1.15459,-0.360761 -1.73186,-0.541142 -0.57731,-0.180381 -1.09419,-0.413043 -1.7319,-0.541153 -0.72924,-0.146474 -1.5799,-0.124081 -2.30916,-0.270566 -0.63772,-0.128099 -1.09415,-0.413043 -1.73188,-0.541142 -0.72925,-0.146485 -1.54628,-0.168426 -2.30915,-0.270577 -5.79735,-0.776329 3.17777,0.30471 -4.04106,-0.541142 -0.76972,-0.09023 -1.53944,-0.180381 -2.30917,-0.270565 -0.76971,-0.09023 -1.52188,-0.224455 -2.30916,-0.270588 -1.33661,-0.07834 -2.69403,0 -4.04105,0 -1.347,0 -2.69402,0 -4.04104,0 -0.57729,0 -1.16038,-0.03827 -1.73187,0 -1.58361,0.105966 -3.78638,0.415408 -5.19563,0.81173 -0.594945,0.167305 -1.136934,0.373826 -1.731878,0.541142 -0.368967,0.103702 -0.810356,0.149564 -1.154586,0.270577 -0.435415,0.153051 -0.769725,0.360761 -1.154583,0.541131 -0.38486,0.18038 -0.874549,0.322405 -1.154577,0.541153 -0.313083,0.244561 -0.264217,0.567158 -0.577293,0.811708 -0.280034,0.218748 -0.828023,0.337077 -1.154588,0.541153 -0.258174,0.161339 -0.384863,0.360758 -0.57729,0.541158 -1.353856,1.26907 0.272133,-0.31889 -1.154589,1.35286 -0.159805,0.18725 -0.417486,0.35389 -0.577291,0.54114 -0.225997,0.26481 -0.35129,0.5469 -0.577292,0.81172 -0.159806,0.18725 -0.417486,0.3539 -0.577295,0.54115 -0.451992,0.52961 -0.702589,1.09381 -1.15458,1.62343 -0.159801,0.18725 -0.417486,0.3539 -0.577291,0.54115 -1.128041,1.32177 -1.758417,2.73681 -2.886454,4.05857 -0.159802,0.18726 -0.417494,0.3539 -0.577293,0.54116 -0.226001,0.2648 -0.351298,0.5469 -0.577296,0.81172 -0.319607,0.37449 -0.769717,0.72152 -1.154584,1.08229 -0.384858,0.36076 -0.677216,0.74668 -1.154584,1.08229 -0.150949,0.10608 -0.426339,0.16445 -0.577291,0.27057 -0.477362,0.33561 -0.677223,0.74668 -1.154581,1.08229 -0.160055,0.11253 -2.102698,1.03392 -2.309168,1.08229 -0.175688,0.0411 -1.471887,0 -1.731875,0 -1.077562,0 -1.586339,-0.20236 -2.309164,-0.54114 -0.192441,-0.0902 -0.426345,-0.16444 -0.577294,-0.27056 -0.238687,-0.16782 -0.31912,-0.37982 -0.577291,-0.54116 -0.32657,-0.20407 -0.874558,-0.32239 -1.154592,-0.54115 -0.313077,-0.24455 -0.384858,-0.54114 -0.577288,-0.81171 -0.19243,-0.27056 -0.384862,-0.54115 -0.57729,-0.81172 -0.19243,-0.27057 -0.305161,-0.55662 -0.577297,-0.81172 -0.310283,-0.29085 -0.935176,-0.50321 -1.154581,-0.81173 -0.182556,-0.25667 0.08163,-0.54386 0,-0.81172 -0.112205,-0.36812 -0.465082,-0.71416 -0.577295,-1.08228 -0.08163,-0.26785 0,-0.54114 0,-0.81171 0,-0.36077 0,-0.72153 0,-1.08229 0,-0.27058 -0.0949,-0.54483 0,-0.81172 0.100038,-0.28133 0.477259,-0.5304 0.577295,-0.81172 0.0949,-0.26689 -0.182556,-0.55504 0,-0.81172 0.219405,-0.3085 0.797615,-0.53287 1.154581,-0.81171 0.221381,-0.17294 0.417489,-0.3539 0.577297,-0.54115 0.226,-0.26482 0.305154,-0.55663 0.57729,-0.81172 0.310288,-0.29087 0.797615,-0.53288 1.154586,-0.81172 1.079197,-0.84302 0.02965,-0.35558 1.731879,-1.35286 0.339998,-0.199198 0.814571,-0.341947 1.154575,-0.541143 0.433424,-0.253935 0.721163,-0.557796 1.154589,-0.811719 0.680018,-0.398405 1.629153,-0.683891 2.309169,-1.082296 1.04764,-0.316348 1.058645,-0.932142 1.731874,-1.352861 0.326562,-0.204076 0.82802,-0.337077 1.154581,-0.541153 0.25817,-0.161339 0.273032,-0.398529 0.577291,-0.541131 0.304264,-0.142602 0.850325,-0.127975 1.154584,-0.270588 0.304265,-0.142602 0.384867,-0.360762 0.577294,-0.541143 0.57729,-0.541142 1.154586,-1.082285 1.731879,-1.623428 0.192427,-0.180386 0.33861,-0.373348 0.577291,-0.541152 0.150949,-0.106125 0.426335,-0.164444 0.577286,-0.270569 0.477363,-0.335603 0.677222,-0.746686 1.154592,-1.082287 0.187942,-0.132138 2.027235,-0.994205 2.309156,-1.082293 1.235265,-0.385972 2.063181,-0.270575 3.463757,-0.270575 0.483416,0 2.447448,-0.05144 2.886454,0 0.41744,0.04891 0.755077,0.195674 1.154584,0.270575 0.565004,0.105922 1.210079,0.123834 1.731878,0.270569 0.46672,0.131249 0.719165,0.388089 1.154589,0.541145 0.344235,0.121006 0.810352,0.149569 1.15459,0.270579 0.43541,0.153054 0.76971,0.360761 1.15457,0.541143 0.76973,0.360758 1.62916,0.683895 2.30917,1.082289 0.43343,0.253929 0.72116,0.557788 1.15458,0.811719 0.34002,0.199199 0.81459,0.341947 1.15459,0.541143 0.86685,0.507858 1.53945,1.082285 2.30917,1.623438 0.38487,0.270566 0.76973,0.541154 1.15458,0.811719 0.38486,0.270577 0.84429,0.520855 1.15459,0.811719 0.27214,0.255089 0.38486,0.541142 0.5773,0.811708 0.19242,0.270576 0.38485,0.541153 0.57728,0.81173 0.38487,0.541131 0.76972,1.082284 1.15458,1.623442 0.19243,0.27056 0.47726,0.53037 0.57729,0.8117 0.0949,0.2669 -0.0949,0.54484 0,0.81172 0.10004,0.28133 0.47727,0.5304 0.5773,0.81172 0.0949,0.26689 0,0.54114 0,0.81173 0,0.27057 0.0949,0.54482 0,0.81171 -0.10004,0.28132 -0.47726,0.53039 -0.5773,0.81172 -0.0949,0.2669 0.0949,0.54483 0,0.81172 -0.10003,0.28133 -0.38486,0.54114 -0.57729,0.81172 -0.38486,0.54114 -0.67516,1.09914 -1.15458,1.62342 -1.61116,1.76199 -0.41125,0.51152 -2.30917,1.62345 -0.86684,0.50785 -1.32795,1.16355 -2.30916,1.62343 -0.4906,0.22994 -1.1901,0.33802 -1.73188,0.54115 -0.42501,0.15935 -0.72957,0.38179 -1.15458,0.54116 -0.54179,0.20313 -1.19009,0.33798 -1.73188,0.54113 -0.425,0.15936 -0.76972,0.36076 -1.15459,0.54114 -0.57728,0.0902 -1.21007,0.12384 -1.731869,0.27058 -0.466708,0.13124 -0.769722,0.36076 -1.154585,0.54114 -0.192427,0.0902 -0.319115,0.23024 -0.577295,0.27059 -0.365107,0.057 -0.810349,-0.0807 -1.154579,0 -0.172117,0.0403 0.136064,0.20678 0,0.27056 -0.136081,0.0637 -0.577299,-0.0902 -0.577299,0 0,0.12755 0.305158,0.27057 0.577299,0.27057 0.272142,0 0.313278,-0.23964 0.57729,-0.27057 0.560058,-0.0657 1.165797,0.0531 1.731878,0 0.421928,-0.0395 0.755069,-0.19567 1.15459,-0.27056 0.56499,-0.10586 1.14676,-0.19223 1.73187,-0.27059 1.52577,-0.20432 3.13254,-0.28001 4.61833,-0.54114 1.61157,-0.28325 3.04554,-0.75466 4.61835,-1.08229 0.94694,-0.19726 1.92429,-0.36077 2.88645,-0.54115 0.96215,-0.18038 1.90336,-0.38755 2.88645,-0.54114 0.75271,-0.1176 1.56628,-0.14 2.30918,-0.27058 0.80578,-0.14162 1.52275,-0.37733 2.30917,-0.54114 0.94695,-0.19726 1.9395,-0.34389 2.88646,-0.54116 0.7864,-0.1638 1.51816,-0.38225 2.30916,-0.54113 0.55932,-0.1123 1.17256,-0.15823 1.73188,-0.27059 0.791,-0.15887 1.51817,-0.38225 2.30918,-0.54113 1.67144,-0.33574 3.50687,-0.49512 5.19562,-0.81173 0.3995,-0.0749 0.75507,-0.19566 1.15458,-0.27056 0.56499,-0.10586 1.16687,-0.16465 1.73189,-0.27057 0.79899,-0.1498 1.53944,-0.36077 2.30916,-0.54115 0.38485,-0.0902 0.76972,-0.18038 1.15459,-0.27058 0.38485,-0.0902 0.85029,-0.12796 1.15458,-0.27056 0.30426,-0.14262 0.27302,-0.39856 0.57728,-0.54116 0.60852,-0.2852 1.62071,-0.29913 2.30917,-0.54113 0.87085,-0.30612 1.43832,-0.77618 2.30917,-1.08229 0.34422,-0.12101 0.81036,-0.14958 1.15457,-0.27058 0.43543,-0.15306 0.76973,-0.36076 1.1546,-0.54114 0.38485,-0.18038 0.76971,-0.36076 1.15458,-0.54116 0.38486,-0.18038 0.82802,-0.33706 1.15458,-0.54114 0.58023,-0.36259 0.82194,-0.96308 1.15458,-1.35286 0.15983,-0.18724 0.49291,-0.34338 0.5773,-0.54114 0.1133,-0.26533 -0.11329,-0.5464 0,-0.81172 0.0844,-0.19776 0.49292,-0.343396 0.57729,-0.541143 0.11329,-0.265313 0,-0.541154 0,-0.811719 0,-0.270577 0,-0.541154 0,-0.81173 0,-0.450947 0.15824,-0.908029 0,-1.35285 -0.10003,-0.281332 -0.38487,-0.541142 -0.57729,-0.81173 -0.19245,-0.270566 -0.38486,-0.541131 -0.5773,-0.811719 -0.19242,-0.270566 -0.4101,-0.537475 -0.57728,-0.811708 -0.21797,-0.357546 -0.26476,-0.740494 -0.5773,-1.082292 -0.27332,-0.298896 -0.76972,-0.541147 -1.15458,-0.811723 -0.38487,-0.270569 -0.76973,-0.54114 -1.15458,-0.811713 -0.76973,-0.541143 -1.44232,-1.115579 -2.30917,-1.623436 -0.85002,-0.497999 -2.01538,-0.862937 -2.88646,-1.352866 -0.44416,-0.249813 -0.66397,-0.581778 -1.15459,-0.811717 -0.98121,-0.459882 -2.39773,-0.665931 -3.46374,-1.082291 -0.62718,-0.244963 -1.09437,-0.572682 -1.73189,-0.811718 -0.33598,-0.125985 -0.78561,-0.166813 -1.15458,-0.270575 -0.59495,-0.167307 -1.1113,-0.395714 -1.73187,-0.541146 -0.54428,-0.127546 -1.21008,-0.123829 -1.73188,-0.270569 -0.46671,-0.131249 -0.68786,-0.4099 -1.15457,-0.541147 -0.52182,-0.146737 -1.1546,-0.180379 -1.73188,-0.270572 -0.57731,-0.09019 -1.15458,-0.180384 -1.73189,-0.270575 -1.15459,-0.18038 -2.30916,-0.360764 -3.46375,-0.541143 -0.57729,-0.0902 -1.13163,-0.223684 -1.73188,-0.270573 -0.56944,-0.04449 -1.16037,0.03826 -1.73186,0 -1.46826,0.0453 -2.65422,-0.448289 -4.04105,-0.541145 -1.32008,-0.0884 -2.72097,0.08839 -4.04105,0 -0.78543,-0.0526 -1.52373,-0.217985 -2.30917,-0.270574 -0.57148,-0.03827 -1.15458,0 -1.73186,0 -1.34703,0 -2.69404,0 -4.04105,0 -2.69403,0 -5.38806,0 -8.08209,0 -0.769721,0 -1.539446,0 -2.309168,0 -0.577296,0 -1.162436,-0.04448 -1.731879,0 -1.641114,0.128195 -1.540418,0.288795 -2.886455,0.541145 -0.564997,0.105922 -1.154588,0.180382 -1.731879,0.270574 -0.577289,0.09018 -1.154586,0.180383 -1.731878,0.270573 -0.577288,0.0902 -1.210075,0.123833 -1.731874,0.270571 -0.46671,0.131249 -0.68787,0.409901 -1.154579,0.541147 -0.521801,0.146741 -1.187605,0.143024 -1.731875,0.270572 -1.833585,0.429694 -3.200467,1.229464 -4.618333,1.894008 -0.384869,0.180384 -0.814587,0.341946 -1.154594,0.541147 -1.262627,0.739734 -2.176802,1.711337 -3.463745,2.435155 -0.522656,0.293957 -1.279016,0.493335 -1.731879,0.811719 -0.33754,0.237306 -0.337586,0.549571 -0.577285,0.811714 -0.339006,0.370735 -0.769726,0.721531 -1.154585,1.082295 -3.829282,3.58951 0.816408,-0.892845 -1.73188,1.894001 -0.338995,0.370747 -0.852416,0.704632 -1.154587,1.082296 -0.278581,0.348195 -0.359322,0.724738 -0.57729,1.082285 -0.469969,0.770951 -0.896771,1.048151 -1.154586,1.894014 -0.08163,0.26786 0,0.541142 0,0.811719 0,0.270577 0,0.541142 0,0.811708 0,0.270588 0,0.541153 0,0.811731 0,0.18037 -0.07548,0.36428 0,0.54114 0.374712,0.87811 0.482148,0.76714 1.731876,1.35286 0.384867,0.18038 0.769725,0.36078 1.154587,0.54114 1.073904,0.50335 1.429966,0.74098 2.886465,1.08231 0.544274,0.12753 1.187594,0.14301 1.731866,0.27057 3.986726,0.93427 -0.764818,0.2486 4.041043,0.81172 0.769725,0.0902 1.539453,0.18039 2.30917,0.27056 0.769726,0.0902 1.521888,0.22444 2.309168,0.27058 0.76378,0.0447 1.539446,0 2.309166,0 0.96216,0 1.924318,0 2.886463,0 0.769722,0 1.539449,0 2.309166,0 0.962154,0 1.929083,0.0448 2.886464,0 0.976334,-0.0457 1.924301,-0.18038 2.886453,-0.27058 0.96216,-0.0902 1.946638,-0.13841 2.886464,-0.27056 0.99256,-0.13956 1.8939,-0.40159 2.88646,-0.54116 0.93983,-0.13214 1.94663,-0.13842 2.88645,-0.27056 0.99259,-0.13957 1.92431,-0.36076 2.88647,-0.54116 0.96216,-0.18038 1.9243,-0.36076 2.88646,-0.54114 3.68549,-0.69093 1.95958,-0.32393 5.19563,-1.08228 0.76972,-0.18038 1.57939,-0.32738 2.30916,-0.54116 0.81591,-0.239 1.49327,-0.5727 2.30916,-0.8117 0.72977,-0.21379 1.6089,-0.30672 2.30919,-0.541158 0.66433,-0.222405 1.10468,-0.566762 1.73187,-0.811719 2.47693,-0.96743 1.16389,-0.05932 3.46375,-1.352861 0.44416,-0.249813 0.72116,-0.557795 1.15457,-0.811719 0.64146,-0.375796 2.4054,-1.014651 2.88648,-1.352861 0.33755,-0.237315 0.2642,-0.567158 0.57728,-0.811719 0.28003,-0.218748 0.81459,-0.341945 1.1546,-0.541142 0.43341,-0.253935 0.72115,-0.557796 1.15457,-0.81172 0.68002,-0.398396 1.65603,-0.674131 2.30917,-1.082295 0.51634,-0.32267 0.54608,-0.797079 1.15458,-1.082289 0.30427,-0.1426 0.85031,-0.127964 1.15458,-0.270567 0.30427,-0.14261 0.33862,-0.373348 0.57732,-0.54115 0.15089,-0.106125 0.38485,-0.180381 0.57728,-0.270574 0.7697,-0.36076 1.53943,-0.721524 2.30914,-1.082288 0.30396,-0.142447 1.42358,-0.739464 1.73189,-0.81172 0.17213,-0.04033 0.40518,0.04033 0.57731,0 0.2434,-0.05705 0.33387,-0.21353 0.57728,-0.270571 0.17212,-0.04033 0.40517,0.04033 0.57729,0 0.2434,-0.05705 0.33389,-0.21353 0.57729,-0.270573 0.17212,-0.04033 0.44122,0.06378 0.57729,0 0.13605,-0.06378 -0.13605,-0.206799 0,-0.270571 0.13605,-0.06378 0.38486,0 0.5773,0 0.19243,0 0.57729,-0.09019 0.57729,0 0,0.09018 -0.44122,-0.06378 -0.57729,0 -0.27215,0.127548 0.17211,0.379806 0,0.541144 -0.12167,0.114081 -0.45559,0.156491 -0.5773,0.270571 -0.17212,0.161339 0.27215,0.413598 0,0.541145 -0.13605,0.06378 -0.44121,-0.06377 -0.57729,0 -0.13605,0.06378 -0.13605,0.206799 0,0.270575 0.13604,0.06377 0.38487,0 0.57729,0 0.19243,0 0.40518,0.04034 0.5773,0 0.2434,-0.05705 0.33389,-0.213532 0.57729,-0.270575 0.17211,-0.04033 0.39472,0.02852 0.57729,0 4.18156,-0.653288 -0.91017,0.078 1.73188,-0.541145 0.17212,-0.04033 0.38485,0 0.57728,0 0.38488,-0.0902 0.79658,-0.158703 1.15462,-0.270571 0.2264,-0.07076 0.3191,-0.230238 0.57726,-0.270573 0.3651,-0.05705 0.78121,0.04375 1.15458,0 1.04487,0.163082 1.07368,-0.438313 1.7319,-0.541147 0.3651,-0.05705 0.78945,0.05705 1.15458,0 0.25816,-0.04034 0.33386,-0.213527 0.57726,-0.270571 0.34427,-0.08066 0.81037,0.08067 1.15461,0 0.24341,-0.05705 0.33388,-0.213534 0.57729,-0.270573 0.34421,-0.08066 0.88245,0.127548 1.15457,0 0.13605,-0.06378 0.13605,-0.206799 0,-0.270573 -0.13604,-0.06377 -0.44121,-0.06377 -0.57728,0 -0.13604,0.06377 0.13606,0.206798 0,0.270573 -0.27214,0.127548 -0.88245,-0.127547 -1.15458,0 -0.13605,0.06378 0.13605,0.206797 0,0.270573 -0.13605,0.06377 -0.44124,-0.06377 -0.5773,0 -0.13604,0.06377 0.13606,0.206798 0,0.270571 -0.27214,0.127552 -0.81037,-0.08066 -1.15457,0 -0.48683,0.114082 -0.66778,0.427063 -1.15458,0.541147 -0.17214,0.04033 -0.40519,-0.04033 -0.57731,0 -0.4868,0.114083 -0.66778,0.427064 -1.1546,0.541144 -0.1721,0.04033 -0.40517,-0.04033 -0.57727,0 -0.24341,0.05704 -0.38486,0.180382 -0.5773,0.270573 -0.19243,0.0902 -0.38485,0.180383 -0.57726,0.270572 -0.76974,0.360767 -1.53947,0.721528 -2.30919,1.082294 -1.53946,0.721524 -3.07889,1.443054 -4.61834,2.16458 -0.57728,0.270569 -1.15459,0.541145 -1.73188,0.811721 -0.19241,0.0902 -0.42634,0.164442 -0.57728,0.270571 -0.2387,0.167803 -0.31912,0.379803 -0.57732,0.541138 -3.11431,1.946229 0.64104,-0.571007 -2.30914,0.811719 -2.95019,1.382738 2.42056,-0.377381 -1.73187,1.082296 -0.68849,0.242002 -1.62073,0.29914 -2.30918,0.541154 -0.43543,0.153051 -0.68787,0.409895 -1.15459,0.541142 -0.52181,0.146734 -1.16689,0.164644 -1.73188,0.270565 -0.3995,0.07495 -0.75506,0.195665 -1.15458,0.270577 -0.56499,0.105853 -1.16689,0.164644 -1.73186,0.270577 -1.34605,0.252349 -1.24535,0.412941 -2.88647,0.541131 -0.94907,0.07415 -1.943,-0.08853 -2.88647,0 -0.5967,0.05593 -1.13163,0.223684 -1.73186,0.270576 -0.56945,0.04449 -1.15459,0 -1.73188,0 -0.57729,0 -1.1546,0 -1.73188,0 -0.87556,0 -3.84325,0.06057 -4.61834,0 -5.06756,-0.395845 0.88245,-0.09951 -2.88646,-0.541142 -0.37336,-0.0437 -0.78121,0.0437 -1.15457,0 -0.41745,-0.04891 -0.76974,-0.180381 -1.1546,-0.270565 -1.39239,-0.326311 -1.28732,-0.332798 -2.30916,-0.811719 -0.4336,-0.203238 -1.27717,-0.541142 -0.57729,-0.541142 0.19243,0 0,0.18038 0,0.270565 0,0.09023 0,0.180381 0,0.270577 0,0.09023 0.0861,0.189902 0,0.270565 -0.1217,0.114095 -0.45559,0.156493 -0.5773,0.270577 -0.0861,0.08072 0.13607,0.206793 0,0.270577 -2.25301,1.055962 -0.31003,-0.06261 -1.73188,0.270565 -0.24341,0.05706 -0.31911,0.23024 -0.57728,0.270566 -0.36511,0.05706 -0.78122,-0.0437 -1.1546,0 -0.41743,0.04891 -0.73712,0.221669 -1.15457,0.270576 -0.37338,0.0437 -0.76973,0 -1.15459,0 -0.19243,0 -0.39475,0.02842 -0.57729,0 -0.408207,-0.06374 -0.737148,-0.221657 -1.154583,-0.270576 -0.373371,-0.0437 -0.769722,0 -1.15459,0 -0.384858,-0.09023 -0.737141,-0.221647 -1.15458,-0.270566 -1.999558,-0.234292 -0.346716,0.342625 -2.309164,-0.270565 -0.226433,-0.07076 -0.35086,-0.199831 -0.577292,-0.270577 -0.358021,-0.111853 -0.796565,-0.158712 -1.154588,-0.270577 -0.281918,-0.08819 -2.121221,-0.950154 -2.309167,-1.082295 -0.238677,-0.167803 -0.338615,-0.373328 -0.577291,-0.541131 -0.301906,-0.212262 -0.911176,-0.312986 -1.154587,-0.541154 -0.08605,-0.08072 0.08606,-0.189913 0,-0.270577 -0.121701,-0.114072 -0.455589,-0.156481 -0.57729,-0.270565 -0.172114,-0.161338 0.272141,-0.413598 0,-0.541154 -0.136064,-0.06377 -0.441221,0.06374 -0.57729,0 -0.136064,-0.06377 0.08606,-0.189898 0,-0.270566 -1.201268,-1.126059 0.03983,0.289246 -1.154576,-0.270572 -0.256579,-0.120256 0.448997,-0.511084 -0.577294,-0.270571 -0.243407,0.05704 -0.384863,0.180379 -0.577298,0.270571 -0.192433,0.0902 -0.455582,0.15649 -0.577286,0.270572 -0.08606,0.08066 0.08606,0.189903 0,0.270566 -1.201277,1.126064 0.03983,-0.289248 -1.154584,0.270577 -0.136065,0.06374 0.08605,0.189902 0,0.270577 -0.121701,0.114084 -0.384865,0.180381 -0.577296,0.270565 -0.192427,0.09023 -0.384859,0.180381 -0.57729,0.270577 -1.154585,0.541154 -2.309169,1.082285 -3.46375,1.623438 -1.323637,0.620379 0.36511,-0.114084 -1.731874,0.541142 -0.452872,0.141504 -0.769726,0.360773 -1.154589,0.541154 -0.577294,0.270565 -1.15458,0.541131 -1.731878,0.811707 -0.303917,0.142455 -1.57771,0.667204 -1.731866,0.811719 -0.08606,0.08072 0.08606,0.189902 0,0.270566 -0.133678,0.125303 -1.969642,0.923161 -2.309177,1.082311 -0.339529,0.15912 -2.041832,1.01964 -2.309165,1.08228 -0.172114,0.0403 -0.44122,-0.0637 -0.577291,0 -0.13608,0.0637 0.136064,0.2068 0,0.27058 -0.13608,0.0637 -0.405174,-0.0403 -0.577295,0 -0.243401,0.0571 -0.333883,0.21353 -0.577292,0.27056 -0.172116,0.0403 -0.405174,-0.0403 -0.577291,0 -1.914637,0.89739 0.54428,-0.12754 -1.154575,0.27058 -0.243413,0.0571 -0.333893,0.21353 -0.577296,0.27056 -0.344229,0.0807 -0.810357,-0.0807 -1.154584,0 -0.243411,0.0571 -0.333888,0.21355 -0.57729,0.27058 -0.172123,0.0403 -0.405181,-0.0403 -0.577294,0 -0.243413,0.0571 -0.333884,0.21354 -0.577294,0.27058 -0.344235,0.0807 -0.810354,-0.0807 -1.154586,0 -1.914635,0.89737 0.544275,-0.12756 -1.154584,0.27056 -0.243407,0.0571 -0.333883,0.21354 -0.577291,0.27059 -0.769725,0.18037 -0.577293,-0.27059 -0.577293,0.27057"
       id="path1383"
       inkscape:connector-curvature="0" />
    <text
       xml:space="preserve"
       style="font-style:normal;font-weight:normal;font-size:0.86386865px;line-height:1.25;font-family:sans-serif;letter-spacing:0px;word-spacing:0px;fill:#2000a5;fill-opacity:1;stroke:none;stroke-width:0.02159671"
       x="9.1728191"
       y="1640.5759"
       id="text840"
       transform="scale(11.657334,0.08578291)"><tspan
         sodipodi:role="line"
         id="tspan838"
         x="9.1728191"
         y="1640.5759"
         style="fill:#2000a5;fill-opacity:1;stroke-width:0.02159671">?</tspan></text>
    <text
       xml:space="preserve"
       style="font-style:normal;font-weight:normal;font-size:9.96869564px;line-height:1.25;font-family:sans-serif;letter-spacing:0px;word-spacing:0px;fill:#2000a5;fill-opacity:1;stroke:none;stroke-width:0.24921739"
       x="169.64655"
       y="30.007582"
       id="text840-3"
       transform="matrix(0.79861553,0.66469575,-0.68640288,0.68086696,0,0)"><tspan
         sodipodi:role="line"
         id="tspan838-6"
         x="169.64655"
         y="30.007582"
         style="fill:#2000a5;fill-opacity:1;stroke-width:0.24921739">?</tspan></text>
    <text
       xml:space="preserve"
       style="font-style:normal;font-weight:normal;font-size:9.31089497px;line-height:1.25;font-family:sans-serif;letter-spacing:0px;word-spacing:0px;fill:#2000a5;fill-opacity:1;stroke:none;stroke-width:0.23277237"
       x="60.833843"
       y="149.71632"
       id="text840-7"
       transform="matrix(1.0980094,-0.05311971,0.21706968,0.90023757,0,0)"><tspan
         sodipodi:role="line"
         id="tspan838-5"
         x="60.833843"
         y="149.71632"
         style="fill:#2000a5;fill-opacity:1;stroke-width:0.23277237">?</tspan></text>
    <text
       xml:space="preserve"
       style="font-style:normal;font-weight:normal;font-size:10.03004646px;line-height:1.25;font-family:sans-serif;letter-spacing:0px;word-spacing:0px;fill:#2000a5;fill-opacity:1;stroke:none;stroke-width:0.25075114"
       x="132.26689"
       y="96.950813"
       id="text840-35"
       transform="matrix(1.0143949,0.29046866,-0.26089164,0.91110391,0,0)"><tspan
         sodipodi:role="line"
         id="tspan838-62"
         x="132.26689"
         y="96.950813"
         style="fill:#2000a5;fill-opacity:1;stroke-width:0.25075114">?</tspan></text>
  </g>
</svg>
