<?xml version="1.0" encoding="UTF-8" standalone="no"?>
<!-- Created with Inkscape (http://www.inkscape.org/) -->

<svg
   xmlns:dc="http://purl.org/dc/elements/1.1/"
   xmlns:cc="http://creativecommons.org/ns#"
   xmlns:rdf="http://www.w3.org/1999/02/22-rdf-syntax-ns#"
   xmlns:svg="http://www.w3.org/2000/svg"
   xmlns="http://www.w3.org/2000/svg"
   xmlns:sodipodi="http://sodipodi.sourceforge.net/DTD/sodipodi-0.dtd"
   xmlns:inkscape="http://www.inkscape.org/namespaces/inkscape"
   width="110mm"
   height="75mm"
   viewBox="0 0 110 75"
   version="1.1"
   id="svg1172"
   inkscape:version="0.92.4 (unknown)"
   sodipodi:docname="03.spike_and_walkthrough.svg">
  <defs
     id="defs1166">
    <inkscape:path-effect
       effect="simplify"
       id="path-effect5521"
       is_visible="true"
       steps="1"
       threshold="0.000408163"
       smooth_angles="360"
       helper_size="0"
       simplify_individual_paths="false"
       simplify_just_coalesce="false"
       simplifyindividualpaths="false"
       simplifyJustCoalesce="false" />
    <inkscape:path-effect
       effect="simplify"
       id="path-effect5513"
       is_visible="true"
       steps="1"
       threshold="0.000408163"
       smooth_angles="360"
       helper_size="0"
       simplify_individual_paths="false"
       simplify_just_coalesce="false"
       simplifyindividualpaths="false"
       simplifyJustCoalesce="false" />
  </defs>
  <sodipodi:namedview
     id="base"
     pagecolor="#ffffff"
     bordercolor="#666666"
     borderopacity="1.0"
     inkscape:pageopacity="0.0"
     inkscape:pageshadow="2"
     inkscape:zoom="0.35"
     inkscape:cx="713.96837"
     inkscape:cy="68.328464"
     inkscape:document-units="mm"
     inkscape:current-layer="layer4"
     showgrid="false"
     inkscape:window-width="1366"
     inkscape:window-height="749"
     inkscape:window-x="0"
     inkscape:window-y="0"
     inkscape:window-maximized="1" />
  <metadata
     id="metadata1169">
    <rdf:RDF>
      <cc:Work
         rdf:about="">
        <dc:format>image/svg+xml</dc:format>
        <dc:type
           rdf:resource="http://purl.org/dc/dcmitype/StillImage" />
        <dc:title />
      </cc:Work>
    </rdf:RDF>
  </metadata>
  <g
     inkscape:groupmode="layer"
     id="layer4"
     inkscape:label="bg"
     transform="translate(-51.744526,-91.911905)">
    <rect
       style="display:inline;fill:#b7a572;fill-opacity:0.10980392;stroke:none;stroke-width:0.79374999;stroke-miterlimit:4;stroke-dasharray:none;stroke-opacity:1"
       id="rect837"
       width="211.66667"
       height="299.35715"
       x="0.75594914"
       y="0.66666156" />
  </g>
  <g
     inkscape:label="Layer 1"
     inkscape:groupmode="layer"
     id="layer1"
     transform="translate(-51.744526,-91.911905)"
     style="display:inline">
    <g
       id="g22"
       transform="matrix(0.28711479,0,0,-0.25009086,70.328882,112.86662)"
       style="display:inline;fill:#800080">
      <path
         d="m 0,0 11.707,-20.276 -5.635,-6.391 -5.931,7.2 c -0.991,1.202 -2.755,1.402 -3.989,0.454 l -4.275,-3.288 -1.72,5.251 z m 23.809,5.266 5.56,-5.522 c 0.545,-0.539 1.277,-0.838 2.034,-0.838 0.145,0 0.291,0.011 0.438,0.033 0.904,0.14 1.69,0.701 2.116,1.51 l 3.766,7.152 5.898,-7.079 c 0.588,-0.704 1.477,-1.087 2.395,-1.031 0.916,0.054 1.752,0.545 2.251,1.317 L 51.763,6.233 52.797,4.446 28.45,-37.726 13.719,-12.21 Z m 14.255,24.691 10.452,-18.1 -2.976,-4.618 -6.144,7.374 c -0.619,0.741 -1.564,1.124 -2.523,1.023 -0.958,-0.1 -1.803,-0.674 -2.252,-1.527 l -3.955,-7.515 -3.871,3.844 z m 30.885,-9.081 16.276,-28.192 -5.392,-8.175 -9.311,10.012 c -0.533,0.575 -1.278,0.906 -2.06,0.921 -0.786,0.015 -1.54,-0.29 -2.094,-0.842 l -8.071,-8.05 -5.127,6.777 z M -40.066,-69.4 l 26.345,45.637 1.382,-4.215 c 0.293,-0.89 0.999,-1.582 1.894,-1.858 0.894,-0.278 1.87,-0.101 2.611,0.468 l 5.293,4.073 6.308,-7.66 c 0.538,-0.652 1.335,-1.038 2.181,-1.05 h 0.048 c 0.827,0 1.617,0.355 2.166,0.977 l 6.592,7.475 25.315,-43.847 h 6.668 l -14.954,25.9 18.19,31.51 5.703,-7.583 c 0.504,-0.669 1.268,-1.087 2.103,-1.145 0.831,-0.058 1.65,0.245 2.243,0.833 l 8.307,8.283 9.775,-10.513 c 0.549,-0.59 1.317,-0.921 2.115,-0.921 0.079,0 0.161,0.001 0.239,0.01 0.884,0.072 1.685,0.548 2.171,1.287 l 5.825,8.83 32.616,-56.491 h 6.668 l -56.29,97.494 c -0.515,0.893 -1.469,1.444 -2.499,1.444 -1.032,0 -1.986,-0.551 -2.5,-1.444 L 56.129,10.22 40.567,37.175 c -0.517,0.893 -1.468,1.444 -2.501,1.444 -1.032,0 -1.984,-0.551 -2.5,-1.444 L 10.384,-6.436 2.502,7.218 C 1.985,8.111 1.032,8.662 0,8.662 -1.029,8.662 -1.982,8.111 -2.5,7.218 L -46.733,-69.4 Z"
         style="fill:#800080;fill-opacity:1;fill-rule:nonzero;stroke:none"
         id="path24"
         inkscape:connector-curvature="0" />
    </g>
    <g
       id="g26"
       transform="matrix(0.28711479,0,0,-0.25009086,53.516424,165.74778)"
       style="display:inline;fill:#800080">
      <path
         d="M 0,0 H 96.827"
         style="fill:#800080;fill-opacity:1;fill-rule:nonzero;stroke:none"
         id="path28"
         inkscape:connector-curvature="0" />
    </g>
    <g
       id="g30"
       transform="matrix(0.28711479,0,0,-0.25009086,53.516424,166.44201)"
       style="display:inline;fill:#800080">
      <path
         d="m 0,0 h 96.827 c 3.58,0 3.58,5.552 0,5.552 H 0 C -3.58,5.552 -3.58,0 0,0"
         style="fill:#800080;fill-opacity:1;fill-rule:nonzero;stroke:none"
         id="path32"
         inkscape:connector-curvature="0" />
    </g>
    <g
       id="g34"
       transform="matrix(0.28711479,0,0,-0.25009086,161.18588,125.07273)"
       style="display:inline;fill:#800080">
      <path
         d="m 0,0 c -11.902,4.552 -25.254,7.708 -42.018,9.93 -4.836,0.641 -9.706,1.158 -14.472,1.537 l -0.656,0.052 0.126,-0.647 c 0.258,-1.316 0.054,-3.076 -1.332,-4.093 l -1.24,-0.867 1.396,-0.102 c 6.316,-0.463 12.917,-1.201 19.618,-2.195 14.19,-2.104 26.274,-5.11 36.94,-9.189 0.352,-0.134 0.701,-0.203 1.037,-0.203 H -0.6 c 1.235,0 2.235,0.925 2.49,2.301 C 2.126,-2.196 1.634,-0.625 0,0"
         style="fill:#800080;fill-opacity:1;fill-rule:nonzero;stroke:none"
         id="path36"
         inkscape:connector-curvature="0" />
    </g>
    <g
       id="g38"
       transform="matrix(0.28711479,0,0,-0.25009086,132.19006,123.75388)"
       style="display:inline;fill:#800080">
      <path
         d="m 0,0 0.059,-0.493 0.493,0.056 c 5.337,0.599 10.665,1.035 15.836,1.296 l 1.237,0.062 -0.935,0.814 c -1.115,0.973 -1.628,2.608 -1.34,4.268 l 0.063,0.61 -0.791,-0.034 C 9.616,6.266 4.425,5.81 -0.808,5.223 L -1.476,5.148 -1.212,4.53 C -0.595,3.081 -0.187,1.557 0,0"
         style="fill:#800080;fill-opacity:1;fill-rule:nonzero;stroke:none"
         id="path40"
         inkscape:connector-curvature="0" />
    </g>
    <g
       id="g42"
       transform="matrix(0.28711479,0,0,-0.25009086,58.821871,129.812)"
       style="display:inline;fill:#800080">
      <path
         d="M 0,0 0.044,0.763 -0.592,0.632 c -7.492,-1.549 -14.899,-3.421 -22.015,-5.566 -1.642,-0.493 -2.193,-1.967 -2.009,-3.209 0.218,-1.485 1.325,-2.523 2.691,-2.523 0.288,0 0.586,0.046 0.885,0.136 7.104,2.139 14.502,3.999 21.987,5.528 l 0.757,0.154 -0.45,0.627 C 0.387,-3.012 -0.05,-1.583 0,0"
         style="fill:#800080;fill-opacity:1;fill-rule:nonzero;stroke:none"
         id="path44"
         inkscape:connector-curvature="0" />
    </g>
    <g
       id="g46"
       transform="matrix(0.28711479,0,0,-0.25009086,83.030623,130.46323)"
       style="display:inline;fill:#800080">
      <path
         d="m 0,0 -0.14,0.7 c -0.104,0.528 -0.148,1.017 -0.133,1.497 0.028,1.028 0.285,2.017 0.762,2.94 L 0.803,5.743 -0.686,6 c -8.773,1.449 -18.099,2.291 -27.721,2.504 l -1.09,0.024 0.693,-0.842 c 1.167,-1.416 2.124,-2.993 2.927,-4.818 l 0.126,-0.285 0.311,-0.014 c 8.055,-0.34 16.146,-1.146 24.734,-2.461 z"
         style="fill:#800080;fill-opacity:1;fill-rule:nonzero;stroke:none"
         id="path48"
         inkscape:connector-curvature="0" />
    </g>
    <g
       id="g50"
       transform="matrix(0.28711479,0,0,-0.25009086,134.55428,151.42703)"
       style="display:inline;fill:#800080">
      <path
         d="m 0,0 c -4.522,3.488 -9.948,6.435 -16.128,8.759 -5.425,2.042 -11.202,3.197 -16.789,4.314 -1.403,0.281 -2.805,0.561 -4.2,0.855 l -2.569,0.538 c -5.485,1.148 -11.158,2.335 -16.626,3.742 l -0.125,0.033 c -2.518,0.647 -5.966,1.533 -7.49,3.699 -0.594,0.845 -0.768,1.66 -0.52,2.421 0.43,1.317 2.019,2.274 3.364,2.729 2.808,0.954 5.814,1.652 8.723,2.327 0.991,0.231 1.978,0.46 2.953,0.698 4.568,1.114 9.206,1.756 13.538,2.283 3.197,0.39 6.421,0.934 9.538,1.46 2.715,0.458 5.521,0.932 8.291,1.3 0.298,0.04 0.562,0.125 0.811,0.23 1.176,0.439 1.891,1.59 1.991,2.697 0.067,0.746 -0.133,1.395 -0.535,1.887 -0.448,0.675 -1.204,1.053 -2.157,1 -6.687,1.213 -13.601,2.466 -20.518,2.856 -2.306,0.13 -4.767,0.193 -7.526,0.193 -3.6,0 -7.258,-0.108 -10.796,-0.213 -1.516,-0.045 -3.03,-0.09 -4.541,-0.126 -2.385,-0.059 -4.774,-0.109 -7.164,-0.16 -4.13,-0.087 -8.31,-0.18 -12.508,-0.311 -8.664,8.407 -18.641,15.188 -26.444,20.182 -2.426,1.552 -4.912,3.027 -7.5,4.452 4.774,3.817 9.194,7.257 13.399,10.412 8.246,6.188 17.883,11.474 30.33,16.637 3.84,1.592 7.911,3.125 12.102,4.557 l 0.689,0.235 -0.467,0.559 c -1.032,1.232 -1.89,2.6 -2.549,4.067 l -0.189,0.42 -0.434,-0.154 c -5.55,-1.969 -11.114,-4.178 -17.013,-6.753 -9.876,-4.312 -18.799,-9.532 -27.283,-15.959 -4.571,-3.464 -9.227,-7.11 -14.188,-11.099 -5.197,2.567 -10.886,5.011 -17.408,7.49 -1.848,0.701 -3.746,1.395 -5.641,2.063 l -0.679,0.24 0.018,-0.857 c 0.003,-0.054 0.006,-0.107 0.004,-0.161 -0.043,-1.495 -0.508,-2.82 -1.384,-3.936 l -0.428,-0.546 0.652,-0.233 c 3.167,-1.134 6.494,-2.383 9.888,-3.715 9.268,-3.636 17.87,-8.044 26.299,-13.477 8.199,-5.287 14.604,-9.992 20.03,-14.747 -5.746,-0.278 -11.498,-0.677 -17.191,-1.317 -9.318,-1.048 -24.913,-2.802 -30.004,-14.515 -1.986,-4.568 -1.306,-9.821 1.917,-14.791 2.836,-4.371 7.025,-7.536 13.186,-9.96 4.172,-1.641 8.625,-2.608 12.931,-3.542 1.152,-0.25 2.301,-0.499 3.444,-0.761 6.094,-1.396 11.956,-3.779 18.447,-7.501 3.977,-2.28 13.406,-8.363 15.043,-15.564 0.626,-2.755 0.052,-5.445 -1.706,-7.997 -1.492,-2.166 -3.909,-3.655 -6.247,-5.096 l -0.845,-0.523 c -2.704,-1.693 -5.679,-3.304 -9.093,-4.925 -5.384,-2.559 -11.433,-4.662 -18.494,-6.43 -13.681,-3.424 -27.985,-4.135 -38.918,-4.373 -2.926,-0.063 -6.065,-0.093 -9.601,-0.093 -4.075,-10e-4 -8.15,0.04 -12.225,0.08 -5.527,0.053 -11.054,0.107 -16.576,0.063 -1.862,-0.015 -2.829,-1.49 -2.824,-2.938 0.005,-1.428 0.97,-2.873 2.831,-2.873 5.5,0.045 11.023,-0.007 16.549,-0.058 4.04,-0.037 8.083,-0.074 12.123,-0.074 15.839,0 32.787,0.541 49.4,4.47 10.084,2.385 24.448,7.131 35.616,16.198 4.243,3.446 6.466,8.57 5.944,13.706 -0.452,4.468 -2.799,8.974 -6.975,13.394 -4.434,4.694 -10.394,7.819 -15.652,10.575 -5.027,2.634 -10.52,4.527 -17.811,6.14 l -1.361,0.298 c -4.988,1.093 -10.146,2.223 -14.78,4.46 -4.145,2 -9.165,6.339 -9.666,11.983 -0.435,4.888 3.811,8.358 7.45,10.408 5.376,3.027 11.776,3.739 17.965,4.428 l 0.948,0.106 c 12.143,1.366 24.606,1.612 36.658,1.849 2.774,0.055 5.547,0.109 8.315,0.177 l 1.496,0.037 c 4.295,0.106 8.737,0.216 13.103,0.216 2.32,0 4.434,-0.03 6.463,-0.093 0.51,-0.015 1.021,-0.047 1.532,-0.074 -0.052,-0.007 -0.106,-0.015 -0.158,-0.022 -3.697,-0.488 -7.52,-0.992 -11.258,-1.827 -1.813,-0.404 -3.63,-0.892 -5.388,-1.363 -1.493,-0.401 -3.037,-0.815 -4.588,-1.181 -2.548,-0.6 -5.181,-1.221 -7.434,-2.76 -2.23,-1.523 -3.515,-3.853 -3.618,-6.56 -0.116,-3.006 1.243,-5.946 3.634,-7.864 4.042,-3.241 9.779,-4.267 14.84,-5.172 1.049,-0.188 2.076,-0.372 3.063,-0.57 4.441,-0.891 8.953,-1.915 13.315,-2.905 2.306,-0.524 4.61,-1.046 6.914,-1.553 14.244,-3.133 25.108,-9.124 32.286,-17.807 5.423,-6.561 8.019,-15.691 6.776,-23.829 -1.449,-9.479 -8.996,-14.87 -16.296,-20.084 l -1.245,-0.89 c -1.105,-0.794 -1.528,-2.108 -1.102,-3.429 0.4,-1.244 1.426,-2.079 2.554,-2.079 0.535,0 1.059,0.182 1.559,0.54 l 1.768,1.262 c 4.907,3.49 9.98,7.098 13.749,12.115 3.487,4.638 5.291,10.963 5.079,17.811 C 16.31,-18.736 10.392,-8.015 0,0"
         style="fill:#800080;fill-opacity:1;fill-rule:nonzero;stroke:none"
         id="path52"
         inkscape:connector-curvature="0" />
    </g>
    <g
       id="g54"
       transform="matrix(0.28711479,0,0,-0.25009086,68.83613,135.79721)"
       style="display:inline;fill:#800080">
      <path
         d="M 0,0 12.038,6.749 9.961,10.46 0,4.879 V 9.943 L 12.215,19.361 9.625,22.734 0,15.316 V 25.441 H -4.256 V 0.919 l -7.439,7.4 -2.998,-3.017 10.437,-10.385 v -9.159 c -1.179,0.595 -2.265,1.352 -3.237,2.258 l -1.023,0.954 -1.282,-0.561 c -1.351,-0.593 -2.786,-0.893 -4.265,-0.893 -5.886,0 -10.675,4.788 -10.675,10.673 0,0.134 0.009,0.263 0.028,0.522 l 0.107,1.709 -1.5,0.541 c -4.218,1.525 -7.053,5.555 -7.053,10.029 0,1.772 0.442,3.527 1.278,5.074 l 0.589,1.086 -0.65,1.045 c -0.702,1.135 -1.072,2.41 -1.072,3.686 0,2.735 1.553,5.167 4.052,6.347 l 0.904,0.426 0.246,0.961 c 1.776,6.791 7.916,11.535 14.933,11.535 2.696,0 5.365,-0.72 7.718,-2.084 l 1.068,-0.616 1.068,0.617 c 2.351,1.363 5.021,2.083 7.719,2.083 8.349,0 15.273,-6.796 15.435,-15.15 l 0.028,-1.368 1.255,-0.542 c 4.547,-1.966 7.484,-6.432 7.484,-11.379 0,-6.365 -4.784,-11.666 -11.167,-12.336 L 15.905,0.037 v -1.848 c 0,-7.676 -6.243,-13.922 -13.916,-13.922 -0.661,0 -1.328,0.049 -1.989,0.147 z m 24.314,27.413 c -0.878,10.113 -9.441,17.994 -19.617,17.994 -3.03,0 -6.063,-0.719 -8.787,-2.082 -2.728,1.363 -5.76,2.082 -8.786,2.082 -8.533,0 -16.228,-5.663 -18.783,-13.797 -3.463,-2.026 -5.607,-5.735 -5.607,-9.729 0,-1.652 0.388,-3.327 1.124,-4.86 -0.83,-1.896 -1.268,-3.976 -1.268,-6.031 0,-5.708 3.3,-10.944 8.431,-13.427 0.333,-7.915 6.958,-14.303 14.916,-14.303 1.602,0 3.177,0.255 4.688,0.758 1.54,-1.236 3.26,-2.206 5.119,-2.89 V -51.991 H 0 v 32.116 c 10.136,-1.144 19.095,6.423 20.068,16.319 7.607,1.646 13.088,8.427 13.088,16.267 0,6.099 -3.462,11.838 -8.842,14.702"
         style="fill:#800080;fill-opacity:1;fill-rule:nonzero;stroke:none"
         id="path56"
         inkscape:connector-curvature="0" />
    </g>
    <g
       id="g58"
       transform="matrix(0.28711479,0,0,-0.25009086,81.150097,141.50715)"
       style="display:inline;fill:#800080">
      <path
         d="M 0,0 6.584,3.692 5.187,6.19 0,3.283 V 5.382 L 6.691,10.542 4.948,12.811 0,8.997 v 5.157 H -2.864 V 1.35 l -3.722,3.702 -2.018,-2.03 5.74,-5.71 V -7.02 c -0.452,0.267 -0.875,0.583 -1.263,0.944 l -0.688,0.642 -0.864,-0.378 c -0.691,-0.303 -1.425,-0.457 -2.18,-0.457 -3.011,0 -5.462,2.451 -5.462,5.461 0,0.07 0.004,0.139 0.018,0.328 l 0.067,1.071 -1.009,0.363 c -2.16,0.78 -3.611,2.842 -3.611,5.132 0,0.906 0.226,1.804 0.655,2.595 l 0.396,0.733 -0.437,0.701 c -0.35,0.567 -0.535,1.201 -0.535,1.836 0,1.36 0.773,2.57 2.018,3.158 l 0.609,0.286 0.166,0.648 c 0.922,3.531 4.115,5.997 7.763,5.997 1.402,0 2.789,-0.375 4.013,-1.083 l 0.72,-0.415 0.716,0.416 c 1.224,0.707 2.612,1.082 4.015,1.082 4.341,0 7.942,-3.534 8.025,-7.879 l 0.019,-0.92 0.845,-0.364 C 13.475,11.864 14.988,9.562 14.988,7.013 14.988,3.731 12.522,1 9.208,0.651 L 7.991,0.426 V -0.808 C 7.991,-5.042 4.327,-8.449 0,-7.974 Z m 13.076,15.108 c -0.558,5.518 -5.258,9.797 -10.833,9.797 -1.63,0 -3.26,-0.376 -4.733,-1.089 -1.475,0.713 -3.104,1.089 -4.731,1.089 -4.682,0 -8.908,-3.084 -10.353,-7.526 -1.898,-1.154 -3.066,-3.213 -3.066,-5.428 0,-0.891 0.199,-1.791 0.578,-2.622 -0.429,-1.024 -0.656,-2.141 -0.656,-3.243 0,-3.127 1.776,-5.998 4.549,-7.412 0.272,-4.336 3.929,-7.806 8.31,-7.806 0.84,0 1.669,0.126 2.465,0.374 0.77,-0.597 1.618,-1.079 2.53,-1.434 V -28.115 H 0 v 17.265 c 5.428,-0.429 10.151,3.59 10.781,8.869 4.122,0.99 7.073,4.706 7.073,8.994 0,3.338 -1.866,6.48 -4.778,8.095"
         style="fill:#800080;fill-opacity:1;fill-rule:nonzero;stroke:none"
         id="path60"
         inkscape:connector-curvature="0" />
    </g>
    <g
       id="g62"
       transform="matrix(0.28711479,0,0,-0.25009086,88.560143,132.90235)"
       style="display:inline;fill:#800080">
      <path
         d="M 0,0 6.584,3.691 5.187,6.19 0,3.284 v 2.097 l 6.692,5.16 -1.743,2.27 L 0,8.996 v 5.158 H -2.864 V 1.35 l -3.721,3.702 -2.018,-2.031 5.739,-5.71 v -4.332 c -0.452,0.268 -0.875,0.584 -1.263,0.944 l -0.688,0.642 -0.863,-0.377 c -0.692,-0.304 -1.426,-0.458 -2.18,-0.458 -3.012,0 -5.463,2.451 -5.463,5.462 0,0.071 0.006,0.138 0.019,0.328 l 0.066,1.071 -1.009,0.363 c -2.159,0.781 -3.61,2.843 -3.61,5.131 0,0.907 0.226,1.805 0.654,2.597 l 0.396,0.731 -0.437,0.702 c -0.35,0.566 -0.535,1.202 -0.535,1.835 0,1.36 0.773,2.571 2.018,3.16 l 0.61,0.286 0.165,0.646 c 0.923,3.531 4.116,5.999 7.763,5.999 1.402,0 2.789,-0.374 4.014,-1.084 l 0.719,-0.415 0.717,0.415 c 1.223,0.71 2.612,1.084 4.015,1.084 4.34,0 7.941,-3.535 8.024,-7.881 l 0.02,-0.919 0.844,-0.364 C 13.475,11.863 14.989,9.561 14.989,7.012 14.989,3.731 12.523,1 9.209,0.651 L 7.991,0.425 V -0.808 C 7.991,-5.044 4.293,-8.459 0,-7.975 Z m 13.077,15.108 c -0.559,5.517 -5.259,9.796 -10.833,9.796 -1.63,0 -3.26,-0.375 -4.733,-1.089 -1.476,0.714 -3.105,1.089 -4.732,1.089 -4.681,0 -8.907,-3.084 -10.353,-7.526 -1.897,-1.153 -3.065,-3.213 -3.065,-5.428 0,-0.891 0.199,-1.791 0.577,-2.622 -0.429,-1.024 -0.655,-2.14 -0.655,-3.243 0,-3.126 1.775,-5.998 4.549,-7.412 0.272,-4.335 3.929,-7.806 8.31,-7.806 0.839,0 1.668,0.126 2.466,0.375 0.769,-0.598 1.617,-1.078 2.528,-1.433 V -28.116 H 0 v 17.265 c 5.461,-0.433 10.152,3.591 10.783,8.87 4.12,0.99 7.071,4.706 7.071,8.993 0,3.338 -1.866,6.482 -4.777,8.096"
         style="fill:#800080;fill-opacity:1;fill-rule:nonzero;stroke:none"
         id="path64"
         inkscape:connector-curvature="0" />
    </g>
    <g
       id="g66"
       transform="matrix(0.28711479,0,0,-0.25009086,125.57211,130.39668)"
       style="display:inline;fill:#800080">
      <path
         d="m 0,0 c -0.541,0 -1.088,0.039 -1.631,0.115 v 13.241 l 10.33,5.792 -1.846,3.305 -8.484,-4.756 v 4.179 L 8.854,29.961 6.55,32.962 -1.631,26.656 v 8.596 H -5.419 V 14.357 l -6.298,6.265 -2.668,-2.685 8.966,-8.921 V 1.32 c -0.962,0.498 -1.852,1.124 -2.65,1.869 l -0.91,0.851 -1.14,-0.5 c -1.152,-0.504 -2.371,-0.76 -3.624,-0.76 -5,0 -9.069,4.068 -9.069,9.067 0,0.113 0.009,0.221 0.024,0.438 l 0.096,1.523 -1.334,0.481 c -3.584,1.294 -5.993,4.717 -5.993,8.518 0,1.505 0.375,2.997 1.085,4.31 l 0.525,0.967 -0.58,0.928 c -0.592,0.964 -0.906,2.043 -0.906,3.12 0,2.312 1.314,4.369 3.428,5.369 l 0.805,0.379 0.22,0.855 c 1.51,5.783 6.739,9.822 12.714,9.822 2.294,0 4.567,-0.613 6.572,-1.774 l 0.953,-0.549 0.947,0.55 c 2.005,1.16 4.278,1.773 6.575,1.773 7.109,0 13.003,-5.787 13.142,-12.901 l 0.026,-1.218 1.116,-0.481 c 3.866,-1.672 6.364,-5.47 6.364,-9.676 0,-5.413 -4.069,-9.921 -9.502,-10.491 L 11.843,13.489 V 11.847 C 11.843,5.314 6.53,0 0,0 m 19.181,36.913 c -0.774,8.677 -8.126,15.433 -16.862,15.433 -2.592,0 -5.189,-0.613 -7.526,-1.775 -2.337,1.162 -4.932,1.775 -7.521,1.775 -7.328,0 -13.936,-4.857 -16.141,-11.837 -2.973,-1.751 -4.812,-4.942 -4.812,-8.377 0,-1.417 0.329,-2.851 0.955,-4.162 -0.707,-1.624 -1.08,-3.404 -1.08,-5.163 0,-4.899 2.826,-9.395 7.223,-11.542 0.307,-6.795 6.002,-12.272 12.84,-12.272 1.363,0 2.708,0.215 3.999,0.64 1.301,-1.039 2.753,-1.859 4.325,-2.443 v -28.379 h 3.788 v 27.49 C -1.08,-3.757 -0.534,-3.787 0,-3.787 c 7.982,0 14.738,6.154 15.545,14.08 6.518,1.436 11.21,7.258 11.21,13.988 0,5.236 -2.964,10.163 -7.574,12.632"
         style="fill:#800080;fill-opacity:1;fill-rule:nonzero;stroke:none"
         id="path68"
         inkscape:connector-curvature="0" />
    </g>
    <g
       id="g70"
       transform="matrix(0.28711479,0,0,-0.25009086,134.50045,131.93472)"
       style="display:inline;fill:#800080">
      <path
         d="M 0,0 5.64,3.161 4.443,5.299 0,2.811 V 4.606 L 5.73,9.024 4.238,10.968 0,7.703 v 4.415 H -2.45 V 1.156 L -5.637,4.326 -7.364,2.587 -2.45,-2.302 V -6.01 c -0.389,0.228 -0.75,0.498 -1.081,0.807 l -0.589,0.549 -0.74,-0.322 c -0.592,-0.259 -1.221,-0.392 -1.868,-0.392 -2.578,0 -4.675,2.097 -4.675,4.676 0,0.06 0.005,0.118 0.015,0.281 l 0.056,0.916 -0.862,0.311 c -1.849,0.668 -3.091,2.435 -3.091,4.394 0,0.776 0.192,1.545 0.559,2.223 l 0.34,0.626 -0.375,0.601 c -0.299,0.486 -0.457,1.029 -0.457,1.571 0,1.165 0.661,2.202 1.726,2.705 l 0.523,0.245 0.141,0.554 c 0.79,3.023 3.524,5.136 6.647,5.136 1.2,0 2.388,-0.322 3.437,-0.929 l 0.614,-0.355 0.614,0.355 c 1.049,0.607 2.237,0.929 3.438,0.929 3.718,0 6.799,-3.027 6.871,-6.747 L 8.81,11.337 9.532,11.024 c 2.006,-0.867 3.303,-2.837 3.303,-5.021 0,-2.808 -2.112,-5.148 -4.949,-5.445 L 6.845,0.364 V -0.692 C 6.845,-4.317 3.707,-7.233 0,-6.827 Z m 11.198,12.935 c -0.479,4.723 -4.503,8.388 -9.276,8.388 -1.395,0 -2.791,-0.323 -4.052,-0.933 -1.263,0.61 -2.657,0.933 -4.051,0.933 -4.007,0 -7.627,-2.641 -8.864,-6.444 -1.624,-0.988 -2.624,-2.751 -2.624,-4.648 0,-0.762 0.169,-1.533 0.494,-2.244 -0.368,-0.878 -0.561,-1.832 -0.561,-2.777 0,-2.677 1.519,-5.136 3.895,-6.346 0.233,-3.711 3.363,-6.684 7.113,-6.684 0.721,0 1.43,0.108 2.112,0.322 0.658,-0.512 1.385,-0.923 2.166,-1.228 V -24.071 H 0 v 14.782 c 4.648,-0.369 8.692,3.073 9.233,7.593 3.529,0.847 6.053,4.029 6.053,7.699 0,2.859 -1.597,5.55 -4.088,6.932"
         style="fill:#800080;fill-opacity:1;fill-rule:nonzero;stroke:none"
         id="path72"
         inkscape:connector-curvature="0" />
    </g>
    <g
       id="g74"
       transform="matrix(0.28711479,0,0,-0.25009086,141.33231,124.01717)"
       style="display:inline;fill:#800080">
      <path
         d="M 0,0 5.638,3.161 4.443,5.299 0,2.811 V 4.607 L 5.73,9.025 4.237,10.968 0,7.702 v 4.416 H -2.451 V 1.156 l -3.187,3.17 -1.727,-1.739 4.914,-4.889 V -6.01 c -0.389,0.228 -0.748,0.498 -1.08,0.807 l -0.59,0.55 -0.739,-0.324 c -0.593,-0.259 -1.221,-0.391 -1.868,-0.391 -2.578,0 -4.676,2.098 -4.676,4.676 0,0.06 0.005,0.119 0.016,0.28 l 0.055,0.918 -0.863,0.31 c -1.848,0.669 -3.09,2.435 -3.09,4.394 0,0.776 0.192,1.545 0.559,2.222 l 0.339,0.627 -0.374,0.601 c -0.299,0.485 -0.457,1.029 -0.457,1.571 0,1.165 0.661,2.202 1.729,2.705 l 0.52,0.246 0.141,0.553 c 0.792,3.024 3.524,5.135 6.647,5.135 1.201,0 2.389,-0.32 3.437,-0.928 l 0.616,-0.355 0.612,0.356 c 1.048,0.607 2.238,0.927 3.438,0.927 3.717,0 6.799,-3.026 6.871,-6.746 l 0.017,-0.787 0.722,-0.312 c 2.006,-0.868 3.303,-2.839 3.303,-5.022 0,-2.809 -2.112,-5.148 -4.949,-5.446 L 6.844,0.364 V -0.692 C 6.844,-4.319 3.676,-7.243 0,-6.827 Z m 11.197,12.935 c -0.477,4.724 -4.503,8.387 -9.276,8.387 -1.395,0 -2.789,-0.321 -4.052,-0.931 -1.263,0.61 -2.657,0.931 -4.051,0.931 -4.007,0 -7.626,-2.639 -8.864,-6.443 -1.624,-0.988 -2.624,-2.752 -2.624,-4.648 0,-0.763 0.17,-1.534 0.494,-2.245 -0.368,-0.876 -0.561,-1.831 -0.561,-2.776 0,-2.676 1.52,-5.135 3.895,-6.346 0.232,-3.712 3.363,-6.683 7.114,-6.683 0.72,0 1.429,0.108 2.112,0.321 0.658,-0.512 1.385,-0.924 2.165,-1.228 V -24.072 H 0 V -9.29 c 4.675,-0.371 8.694,3.074 9.231,7.594 3.53,0.847 6.055,4.029 6.055,7.699 0,2.858 -1.598,5.55 -4.089,6.932"
         style="fill:#800080;fill-opacity:1;fill-rule:nonzero;stroke:none"
         id="path76"
         inkscape:connector-curvature="0" />
    </g>
    <g
       id="g78"
       transform="matrix(0.28711479,0,0,-0.25009086,103.68974,106.59164)"
       style="display:inline;fill:#800080">
      <path
         d="m 0,0 c -4.481,0 -8.129,3.648 -8.129,8.132 0,4.483 3.648,8.131 8.129,8.131 4.483,0 8.129,-3.648 8.129,-8.131 C 8.129,3.648 4.483,0 0,0 m 0,20.08 c -6.59,0 -11.948,-5.36 -11.948,-11.948 0,-6.588 5.358,-11.947 11.948,-11.947 6.588,0 11.947,5.359 11.947,11.947 C 11.947,14.72 6.588,20.08 0,20.08"
         style="fill:#800080;fill-opacity:1;fill-rule:nonzero;stroke:none"
         id="path80"
         inkscape:connector-curvature="0" />
    </g>
    <g
       id="g82"
       transform="matrix(0.28711479,0,0,-0.25009086,104.27461,100.54782)"
       style="display:inline;fill:#800080">
      <path
         d="m 0,0 v 3.207 c 0,1.029 -0.812,1.834 -1.853,1.834 -1.039,0 -1.851,-0.805 -1.851,-1.834 V 0 c 0,-1.031 0.812,-1.838 1.851,-1.838 C -0.812,-1.838 0,-1.031 0,0"
         style="fill:#800080;fill-opacity:1;fill-rule:nonzero;stroke:none"
         id="path84"
         inkscape:connector-curvature="0" />
    </g>
    <g
       id="g86"
       transform="matrix(0.28711479,0,0,-0.25009086,101.77583,101.371)"
       style="display:inline;fill:#800080">
      <path
         d="M 0,0 C 0.634,0 1.246,0.34 1.597,0.888 1.942,1.428 1.987,2.1 1.714,2.692 L 0.357,5.598 C 0.058,6.237 -0.555,6.634 -1.243,6.634 -1.88,6.634 -2.491,6.292 -2.842,5.743 -3.187,5.202 -3.229,4.528 -2.956,3.942 L -1.601,1.035 C -1.301,0.396 -0.689,0 0,0"
         style="fill:#800080;fill-opacity:1;fill-rule:nonzero;stroke:none"
         id="path88"
         inkscape:connector-curvature="0" />
    </g>
    <g
       id="g90"
       transform="matrix(0.28711479,0,0,-0.25009086,99.845669,102.29345)"
       style="display:inline;fill:#800080">
      <path
         d="m 0,0 c 0.34,-0.283 0.765,-0.439 1.197,-0.439 h 10e-4 c 0.786,0 1.525,0.514 1.79,1.251 0.258,0.704 0.044,1.479 -0.546,1.972 l -2.456,2.06 C -0.977,5.647 -2.587,5.176 -3.002,4.026 -3.258,3.321 -3.043,2.549 -2.457,2.063 Z"
         style="fill:#800080;fill-opacity:1;fill-rule:nonzero;stroke:none"
         id="path92"
         inkscape:connector-curvature="0" />
    </g>
    <g
       id="g94"
       transform="matrix(0.28711479,0,0,-0.25009086,98.227526,103.7162)"
       style="display:inline;fill:#800080">
      <path
         d="m 0,0 3.095,-0.831 c 0.163,-0.045 0.332,-0.067 0.499,-0.067 0.926,0 1.687,0.686 1.812,1.63 C 5.527,1.659 4.963,2.506 4.057,2.748 L 0.963,3.579 C -0.12,3.862 -1.195,3.121 -1.34,2.009 -1.462,1.083 -0.895,0.238 0,0"
         style="fill:#800080;fill-opacity:1;fill-rule:nonzero;stroke:none"
         id="path96"
         inkscape:connector-curvature="0" />
    </g>
    <g
       id="g98"
       transform="matrix(0.28711479,0,0,-0.25009086,99.674923,105.18538)"
       style="display:inline;fill:#800080">
      <path
         d="M 0,0 C -0.088,0.993 -0.892,1.742 -1.873,1.742 L -5.368,1.155 C -6.303,0.99 -6.922,0.184 -6.84,-0.76 c 0.087,-0.993 0.891,-1.743 1.871,-1.743 l 0.34,0.03 c 1.05,0.188 2.102,0.375 3.16,0.557 C -0.535,-1.749 0.084,-0.944 0,0"
         style="fill:#800080;fill-opacity:1;fill-rule:nonzero;stroke:none"
         id="path100"
         inkscape:connector-curvature="0" />
    </g>
    <g
       id="g102"
       transform="matrix(0.28711479,0,0,-0.25009086,100.3879,106.68164)"
       style="display:inline;fill:#800080">
      <path
         d="M 0,0 C -0.361,1.148 -1.757,1.68 -2.772,0.978 L -5.39,-0.86 c -0.675,-0.469 -0.964,-1.312 -0.716,-2.1 0.247,-0.788 0.942,-1.317 1.729,-1.317 h 0.002 c 0.364,0 0.721,0.115 1.038,0.335 l 2.62,1.838 C -0.04,-1.634 0.247,-0.79 0,0"
         style="fill:#800080;fill-opacity:1;fill-rule:nonzero;stroke:none"
         id="path104"
         inkscape:connector-curvature="0" />
    </g>
    <g
       id="g106"
       transform="matrix(0.28711479,0,0,-0.25009086,101.3342,107.54743)"
       style="display:inline;fill:#800080">
      <path
         d="m 0,0 c -0.649,0 -1.238,-0.341 -1.573,-0.917 l -1.604,-2.782 c -0.333,-0.578 -0.335,-1.26 -0.009,-1.827 0.339,-0.586 0.969,-0.95 1.645,-0.95 0.65,0 1.24,0.344 1.57,0.919 l 1.604,2.78 C 1.967,-2.2 1.971,-1.517 1.643,-0.95 1.304,-0.364 0.674,0 0,0"
         style="fill:#800080;fill-opacity:1;fill-rule:nonzero;stroke:none"
         id="path108"
         inkscape:connector-curvature="0" />
    </g>
    <g
       id="g110"
       transform="matrix(0.28711479,0,0,-0.25009086,103.24949,108.09231)"
       style="display:inline;fill:#800080">
      <path
         d="M 0,0 C -0.993,0 -1.807,-0.737 -1.891,-1.711 L -2.17,-4.91 c -0.046,-0.516 0.115,-1.003 0.453,-1.369 0.338,-0.369 0.831,-0.581 1.352,-0.581 0.993,0 1.806,0.737 1.89,1.72 0.091,1.062 0.184,2.127 0.279,3.189 C 1.85,-1.437 1.689,-0.95 1.354,-0.582 1.016,-0.212 0.521,0 0,0"
         style="fill:#800080;fill-opacity:1;fill-rule:nonzero;stroke:none"
         id="path112"
         inkscape:connector-curvature="0" />
    </g>
    <g
       id="g114"
       transform="matrix(0.28711479,0,0,-0.25009086,105.71914,108.19317)"
       style="display:inline;fill:#800080">
      <path
         d="m 0,0 c -0.274,0.744 -0.965,1.225 -1.762,1.225 -0.624,0 -1.204,-0.294 -1.547,-0.788 -0.332,-0.477 -0.401,-1.074 -0.196,-1.629 l 1.097,-3.02 c 0.273,-0.748 0.966,-1.23 1.762,-1.23 0.622,0 1.201,0.293 1.545,0.785 0.333,0.476 0.404,1.074 0.199,1.638 z"
         style="fill:#800080;fill-opacity:1;fill-rule:nonzero;stroke:none"
         id="path116"
         inkscape:connector-curvature="0" />
    </g>
    <g
       id="g118"
       transform="matrix(0.28711479,0,0,-0.25009086,107.28536,107.09987)"
       style="display:inline;fill:#800080">
      <path
         d="m 0,0 c -0.894,0.892 -2.541,0.528 -3.021,-0.624 -0.289,-0.69 -0.137,-1.453 0.4,-1.998 l 2.271,-2.267 c 0.351,-0.349 0.811,-0.542 1.29,-0.542 0.746,0 1.444,0.472 1.734,1.174 0.288,0.692 0.132,1.454 -0.406,1.994 z"
         style="fill:#800080;fill-opacity:1;fill-rule:nonzero;stroke:none"
         id="path120"
         inkscape:connector-curvature="0" />
    </g>
    <g
       id="g122"
       transform="matrix(0.28711479,0,0,-0.25009086,109.03642,105.80998)"
       style="display:inline;fill:#800080">
      <path
         d="m 0,0 -3.016,1.099 c -1.047,0.383 -2.203,-0.307 -2.392,-1.411 -0.162,-0.923 0.336,-1.785 1.199,-2.094 l 3.018,-1.099 c 0.208,-0.076 0.421,-0.114 0.636,-0.115 0.863,0 1.602,0.641 1.755,1.523 C 1.36,-1.175 0.865,-0.312 0,0"
         style="fill:#800080;fill-opacity:1;fill-rule:nonzero;stroke:none"
         id="path124"
         inkscape:connector-curvature="0" />
    </g>
    <g
       id="g126"
       transform="matrix(0.28711479,0,0,-0.25009086,109.21472,103.72047)"
       style="display:inline;fill:#800080">
      <path
         d="m 0,0 -3.367,-0.291 c -1.007,-0.09 -1.756,-0.958 -1.71,-1.978 0.042,-0.981 0.806,-1.723 1.777,-1.723 l 3.369,0.285 c 1.006,0.093 1.755,0.963 1.708,1.983 C 1.733,-0.741 0.97,0 0,0"
         style="fill:#800080;fill-opacity:1;fill-rule:nonzero;stroke:none"
         id="path128"
         inkscape:connector-curvature="0" />
    </g>
    <g
       id="g130"
       transform="matrix(0.28711479,0,0,-0.25009086,107.19176,102.70731)"
       style="display:inline;fill:#800080">
      <path
         d="m 0,0 c 0.222,-0.823 0.957,-1.398 1.786,-1.398 0.322,0 0.644,0.088 0.929,0.254 L 5.497,0.46 C 6.225,0.883 6.565,1.711 6.348,2.52 6.039,3.663 4.664,4.261 3.634,3.665 L 0.853,2.059 C 0.124,1.636 -0.217,0.809 0,0"
         style="fill:#800080;fill-opacity:1;fill-rule:nonzero;stroke:none"
         id="path132"
         inkscape:connector-curvature="0" />
    </g>
    <g
       id="g134"
       transform="matrix(0.28711479,0,0,-0.25009086,106.46079,100.38456)"
       style="display:inline;fill:#800080">
      <path
         d="m 0,0 -1.843,-2.634 c -0.391,-0.564 -0.442,-1.253 -0.134,-1.845 0.321,-0.612 0.982,-1.008 1.69,-1.009 0.615,0 1.174,0.293 1.526,0.802 l 1.843,2.629 c 0.393,0.563 0.443,1.254 0.135,1.846 C 2.62,0.932 0.771,1.095 0,0"
         style="fill:#800080;fill-opacity:1;fill-rule:nonzero;stroke:none"
         id="path136"
         inkscape:connector-curvature="0" />
    </g>
    <g
       id="g138"
       transform="matrix(0.28711479,0,0,-0.25009086,78.144086,97.925046)"
       style="display:inline;fill:#800080">
      <path
         d="M 0,0 C 0.171,0 0.337,-0.02 0.5,-0.059 L 2.483,-0.53 3.14,1.399 C 3.43,2.249 4.474,2.67 5.244,2.316 L 6.599,1.692 7.7,2.702 C 7.888,2.875 8.136,2.971 8.395,2.971 8.962,2.971 9.423,2.51 9.423,1.942 9.423,1.867 9.414,1.791 9.401,1.728 L 9.088,0.277 10.302,-0.577 c 0.226,-0.161 0.406,-0.376 0.521,-0.622 l 0.566,-1.223 1.353,-0.077 c 0.546,-0.028 0.975,-0.479 0.975,-1.027 0,-0.567 -0.462,-1.028 -1.029,-1.028 -0.293,0 -1.311,0.022 -2.642,0.049 L 7.423,-4.452 C 4.486,-4.39 1.184,-4.322 0,-4.322 c -1.193,0 -2.162,0.97 -2.162,2.162 C -2.162,-0.969 -1.193,0 0,0 m -9.908,-18.789 c -0.971,0 -5.275,0.091 -10.382,0.201 l -0.171,0.004 c -7.331,0.155 -16.455,0.349 -19.529,0.349 -4.519,0 -8.196,3.676 -8.196,8.196 0,4.518 3.677,8.195 8.196,8.195 0.636,0 1.274,-0.075 1.897,-0.222 l 1.984,-0.475 0.657,1.934 c 0.929,2.735 3.494,4.572 6.386,4.572 0.977,0 1.92,-0.205 2.795,-0.605 l 1.361,-0.633 1.096,1.016 c 1.021,0.938 2.345,1.455 3.727,1.455 3.04,0 5.513,-2.472 5.513,-5.511 0,-0.39 -0.043,-0.781 -0.123,-1.161 l -0.31,-1.451 1.215,-0.859 c 0.975,-0.679 1.751,-1.61 2.253,-2.695 l 0.57,-1.226 1.35,-0.066 c 2.93,-0.151 5.224,-2.569 5.224,-5.504 0,-3.04 -2.473,-5.514 -5.513,-5.514 M 14.246,1.763 C 14.138,1.909 14.022,2.049 13.9,2.185 13.774,5.113 11.352,7.456 8.395,7.456 7.488,7.456 6.608,7.235 5.817,6.814 3.546,7.284 1.112,6.338 -0.252,4.48 -3.8,4.348 -6.647,1.419 -6.647,-2.16 c 0,-0.614 0.112,-1.196 0.268,-1.761 -0.545,0.205 -1.114,0.364 -1.703,0.472 -0.557,0.911 -1.235,1.734 -2.033,2.456 0.016,0.226 0.023,0.452 0.023,0.68 0,5.509 -4.482,9.99 -9.995,9.99 -2.013,0 -3.983,-0.613 -5.632,-1.738 -1.076,0.338 -2.198,0.509 -3.347,0.509 -4.144,0 -7.911,-2.267 -9.862,-5.855 -0.349,0.028 -0.706,0.043 -1.062,0.043 -6.991,0 -12.68,-5.686 -12.68,-12.675 0,-6.992 5.689,-12.68 12.68,-12.68 3.089,0 12.636,-0.203 19.606,-0.352 6.279,-0.137 9.609,-0.2 10.476,-0.2 5.512,0 9.994,4.484 9.994,9.996 0,1.644 -0.403,3.197 -1.113,4.573 0.338,-0.053 0.675,-0.104 1.027,-0.104 1.27,0 5.068,-0.081 8.242,-0.15 2.241,-0.047 4.013,-0.08 4.446,-0.08 3.04,0 5.512,2.472 5.512,5.51 0,2.472 -1.63,4.609 -3.954,5.289"
         style="fill:#800080;fill-opacity:1;fill-rule:nonzero;stroke:none"
         id="path140"
         inkscape:connector-curvature="0" />
    </g>
    <g
       id="g142"
       transform="matrix(0.28711479,0,0,-0.25009086,108.10829,93.552001)"
       style="display:inline;fill:#800080">
      <path
         d="M 0,0 C 0.045,0 0.096,-0.006 0.136,-0.016 L 1.77,-0.407 2.309,1.183 C 2.343,1.286 2.436,1.356 2.641,1.339 L 3.756,0.816 4.422,1.427 4.607,1.679 4.356,0.491 5.345,-0.209 5.887,-1.292 C 5.524,-1.284 5.094,-1.274 4.623,-1.265 L 4.138,-1.254 C 2.504,-1.22 0.659,-1.182 0,-1.182 c -0.324,0 -0.588,0.266 -0.588,0.593 C -0.588,-0.264 -0.324,0 0,0 m -5.474,-9.176 c -0.545,0 -2.945,0.047 -5.726,0.108 -3.635,0.078 -9.13,0.197 -10.903,0.197 -2.165,0 -3.926,1.761 -3.926,3.926 0,2.164 1.761,3.925 3.926,3.925 0.3,0 0.608,-0.036 0.899,-0.103 l 1.642,-0.402 0.539,1.599 c 0.431,1.266 1.618,2.117 2.957,2.117 0.453,0 0.89,-0.095 1.304,-0.286 l 1.115,-0.502 0.893,0.826 c 0.451,0.414 1.038,0.642 1.654,0.642 1.347,0 2.44,-1.095 2.44,-2.44 0,-0.179 -0.017,-0.348 -0.055,-0.516 l -0.249,-1.183 0.996,-0.715 c 0.451,-0.316 0.812,-0.747 1.044,-1.253 l 0.474,-1.008 1.102,-0.051 c 1.299,-0.067 2.317,-1.14 2.317,-2.443 0,-1.345 -1.095,-2.438 -2.443,-2.438 M 8.271,2.085 C 8.067,3.907 6.519,5.329 4.643,5.329 4.113,5.329 3.599,5.216 3.127,5 1.805,5.199 0.416,4.673 -0.445,3.663 -2.58,3.441 -4.25,1.643 -4.274,-0.544 c -0.216,0.296 -0.437,0.59 -0.699,0.848 10e-4,0.042 0.002,0.084 0.002,0.127 0,3.379 -2.749,6.127 -6.129,6.127 -1.133,0 -2.251,-0.319 -3.211,-0.909 -0.566,0.151 -1.155,0.228 -1.755,0.228 -2.379,0 -4.555,-1.235 -5.785,-3.215 -4.31,0.183 -7.866,-3.327 -7.864,-7.607 0,-4.199 3.413,-7.614 7.612,-7.614 1.723,0 6.984,-0.113 10.825,-0.196 2.812,-0.059 5.245,-0.107 5.804,-0.107 3.38,0 6.128,2.748 6.128,6.124 0,0.652 -0.113,1.277 -0.303,1.868 0.912,-0.009 2.71,-0.047 4.194,-0.08 l 0.866,-0.018 c 0.821,-0.018 1.422,-0.031 1.603,-0.031 2.015,0 3.653,1.638 3.653,3.652 0,1.56 -0.977,2.917 -2.396,3.432"
         style="fill:#800080;fill-opacity:1;fill-rule:nonzero;stroke:none"
         id="path144"
         inkscape:connector-curvature="0" />
    </g>
    <g
       id="g146"
       transform="matrix(0.28711479,0,0,-0.25009086,125.71879,98.52964)"
       style="display:inline;fill:#800080">
      <path
         d="M 0,0 C 0.113,0 0.234,-0.015 0.349,-0.041 L 2.185,-0.482 2.791,1.309 C 2.976,1.853 3.633,2.138 4.157,1.9 L 5.411,1.323 6.43,2.259 C 6.759,2.565 7.408,2.354 7.39,1.705 L 7.103,0.362 8.227,-0.428 C 8.371,-0.53 8.491,-0.671 8.563,-0.826 l 0.526,-1.142 1.244,-0.06 c 0.313,-0.018 0.56,-0.276 0.56,-0.588 0,-0.32 -0.263,-0.578 -0.585,-0.578 -0.297,0 -1.521,0.025 -3.011,0.055 L 6.78,-3.128 C 4.237,-3.073 1.066,-3.007 0,-3.007 c -0.828,0 -1.501,0.674 -1.501,1.504 C -1.501,-0.674 -0.828,0 0,0 m -8.046,-14.758 c -0.8,0 -4.336,0.073 -8.429,0.161 l -1.019,0.021 c -5.911,0.124 -12.61,0.266 -14.989,0.266 -3.53,0 -6.404,2.874 -6.404,6.406 0,3.532 2.874,6.405 6.404,6.405 0.478,0 0.978,-0.06 1.491,-0.18 l 1.828,-0.421 0.607,1.774 c 0.72,2.121 2.706,3.546 4.947,3.546 0.755,0 1.485,-0.16 2.172,-0.476 l 1.249,-0.573 1.022,0.936 c 0.775,0.716 1.789,1.11 2.853,1.11 2.329,0 4.222,-1.894 4.222,-4.221 0,-0.295 -0.031,-0.597 -0.093,-0.89 l -0.287,-1.331 1.124,-0.804 c 0.758,-0.53 1.359,-1.251 1.747,-2.094 l 0.531,-1.13 1.243,-0.064 c 2.247,-0.115 4.007,-1.969 4.007,-4.219 0,-2.328 -1.896,-4.222 -4.226,-4.222 M 11.729,1.901 C 11.669,1.978 11.607,2.053 11.543,2.127 11.39,4.599 9.33,6.562 6.822,6.562 6.075,6.562 5.348,6.387 4.687,6.052 2.796,6.401 0.82,5.635 -0.334,4.137 -3.294,3.964 -5.648,1.5 -5.648,-1.503 c 0,-0.366 0.042,-0.722 0.108,-1.069 -0.289,0.09 -0.567,0.193 -0.867,0.252 -0.432,0.683 -0.954,1.314 -1.544,1.867 0.007,0.149 0.012,0.299 0.012,0.449 0,4.615 -3.758,8.369 -8.375,8.369 -1.641,0 -3.253,-0.489 -4.619,-1.387 -0.871,0.263 -1.767,0.395 -2.677,0.395 -3.404,0 -6.502,-1.834 -8.151,-4.75 -6.203,0.44 -11.276,-4.47 -11.276,-10.527 0,-5.82 4.733,-10.555 10.554,-10.555 2.253,0 8.637,-0.133 14.273,-0.251 l 1.742,-0.037 c 4.091,-0.086 7.605,-0.16 8.422,-0.16 4.617,0 8.373,3.756 8.373,8.371 0,1.222 -0.287,2.372 -0.76,3.424 0.145,-0.011 0.286,-0.043 0.433,-0.043 1.043,0 4.174,-0.065 6.693,-0.123 l 1.365,-0.026 c 1.15,-0.022 1.994,-0.038 2.25,-0.038 2.61,0 4.733,2.12 4.733,4.726 0,2.095 -1.362,3.908 -3.312,4.517"
         style="fill:#800080;fill-opacity:1;fill-rule:nonzero;stroke:none"
         id="path148"
         inkscape:connector-curvature="0" />
    </g>
    <g
       id="g150"
       transform="matrix(0.28711479,0,0,-0.25009086,58.236705,154.5136)"
       style="display:inline;fill:#800080">
      <path
         d="M 0,0 3.305,3.168 1.086,5.484 0.143,4.578 0,4.702 V 5.81 L 3.327,9.454 0.958,11.616 0,10.565 v 0.262 H -3.207 V 7.463 L -4.642,8.697 -6.734,6.27 -3.207,3.231 V 1.365 L -3.515,1.069 -3.207,0.748 v -4.823 c -5.558,0.784 -9.85,5.557 -9.85,11.327 0,6.316 5.138,11.454 11.454,11.454 C 4.712,18.706 9.85,13.568 9.85,7.252 9.85,1.482 5.557,-3.291 0,-4.075 Z m -1.603,21.911 c -8.084,0 -14.659,-6.576 -14.659,-14.659 0,-7.541 5.724,-13.765 13.055,-14.567 v -4.939 H 0 v 4.939 c 7.33,0.802 13.056,7.026 13.056,14.567 0,8.083 -6.576,14.659 -14.659,14.659"
         style="fill:#800080;fill-opacity:1;fill-rule:nonzero;stroke:none"
         id="path152"
         inkscape:connector-curvature="0" />
    </g>
    <g
       id="g154"
       transform="matrix(0.28711479,0,0,-0.25009086,77.309068,160.38829)"
       style="display:inline;fill:#800080">
      <path
         d="M 0,0 3.305,3.168 1.087,5.485 0.144,4.581 0,4.703 V 5.811 L 3.326,9.455 0.959,11.616 0,10.566 v 0.261 H -3.207 V 7.463 L -4.642,8.699 -6.735,6.27 -3.207,3.232 V 1.366 L -3.516,1.07 -3.207,0.749 v -4.823 c -5.557,0.784 -9.849,5.557 -9.849,11.326 0,6.316 5.138,11.454 11.452,11.454 6.315,0 11.453,-5.138 11.453,-11.454 C 9.849,1.483 5.557,-3.29 0,-4.074 Z m -1.604,21.912 c -8.083,0 -14.659,-6.577 -14.659,-14.66 0,-7.541 5.725,-13.765 13.056,-14.566 v -4.939 H 0 v 4.939 c 7.331,0.801 13.056,7.025 13.056,14.566 0,8.083 -6.577,14.66 -14.66,14.66"
         style="fill:#800080;fill-opacity:1;fill-rule:nonzero;stroke:none"
         id="path156"
         inkscape:connector-curvature="0" />
    </g>
    <g
       id="g158"
       transform="matrix(0.28711479,0,0,-0.25009086,97.876806,158.50833)"
       style="display:inline;fill:#800080">
      <path
         d="M 0,0 3.306,3.168 1.088,5.485 0.144,4.581 0,4.703 V 5.811 L 3.327,9.456 0.959,11.616 0,10.566 v 0.261 H -3.205 V 7.463 L -4.642,8.699 -6.733,6.271 -3.205,3.232 V 1.366 L -3.514,1.071 -3.205,0.75 v -4.823 c -5.557,0.783 -9.852,5.556 -9.852,11.325 0,6.316 5.139,11.454 11.454,11.454 6.316,0 11.454,-5.138 11.454,-11.454 C 9.851,1.483 5.557,-3.29 0,-4.073 Z m 13.057,7.252 c 0,8.084 -6.577,14.662 -14.66,14.662 -8.083,0 -14.659,-6.578 -14.659,-14.662 0,-7.541 5.725,-13.765 13.057,-14.566 v -4.937 H 0 v 4.937 c 7.332,0.801 13.057,7.025 13.057,14.566"
         style="fill:#800080;fill-opacity:1;fill-rule:nonzero;stroke:none"
         id="path160"
         inkscape:connector-curvature="0" />
    </g>
  </g>
</svg>
