<?xml version="1.0" encoding="UTF-8" standalone="no"?>
<!-- Generator: Adobe Illustrator 10.0, SVG Export Plug-In . SVG Version: 3.0.0 Build 77)  -->

<svg
   xmlns:i="http://ns.adobe.com/AdobeIllustrator/10.0/"
   xmlns:dc="http://purl.org/dc/elements/1.1/"
   xmlns:cc="http://creativecommons.org/ns#"
   xmlns:rdf="http://www.w3.org/1999/02/22-rdf-syntax-ns#"
   xmlns:svg="http://www.w3.org/2000/svg"
   xmlns="http://www.w3.org/2000/svg"
   xmlns:sodipodi="http://sodipodi.sourceforge.net/DTD/sodipodi-0.dtd"
   xmlns:inkscape="http://www.inkscape.org/namespaces/inkscape"
   height="612.00562"
   i:pageBounds="0 792 612 0"
   i:rulerOrigin="0 0"
   i:viewOrigin="88.9985 632"
   space="preserve"
   style="overflow:visible"
   viewBox="0 0 612.00111 612.00563"
   width="612.0011"
   version="1.1"
   id="svg19"
   sodipodi:docname="selected_writings.svg"
   inkscape:version="0.92.3 (2405546, 2018-03-11)">
  <defs
     id="defs23" />
  <sodipodi:namedview
     pagecolor="#ffffff"
     bordercolor="#666666"
     borderopacity="1"
     objecttolerance="10"
     gridtolerance="10"
     guidetolerance="10"
     inkscape:pageopacity="0"
     inkscape:pageshadow="2"
     inkscape:window-width="1366"
     inkscape:window-height="743"
     id="namedview21"
     showgrid="false"
     inkscape:zoom="0.49901256"
     inkscape:cx="272.93798"
     inkscape:cy="156.35157"
     inkscape:window-x="0"
     inkscape:window-y="0"
     inkscape:window-maximized="1"
     inkscape:current-layer="svg19" />
  <metadata
     id="metadata2">
    <rdf:RDF>
      <cc:Work
         rdf:about="">
        <dc:title></dc:title>
        <dc:description />
        <dc:subject>
          <rdf:Bag>
            <rdf:li>unsorted</rdf:li>
          </rdf:Bag>
        </dc:subject>
        <dc:publisher>
          <cc:Agent
             rdf:about="http://www.openclipart.org/">
            <dc:title>Open Clip Art Library</dc:title>
          </cc:Agent>
        </dc:publisher>
        <dc:creator>
          <cc:Agent>
            <dc:title>Gerald G.</dc:title>
          </cc:Agent>
        </dc:creator>
        <dc:rights>
          <cc:Agent>
            <dc:title>Gerald G.</dc:title>
          </cc:Agent>
        </dc:rights>
        <dc:date />
        <dc:format>image/svg+xml</dc:format>
        <dc:type
           rdf:resource="http://purl.org/dc/dcmitype/StillImage" />
        <cc:license
           rdf:resource="http://web.resource.org/cc/PublicDomain" />
        <dc:language>en</dc:language>
      </cc:Work>
      <cc:License
         rdf:about="http://web.resource.org/cc/PublicDomain">
        <cc:permits
           rdf:resource="http://web.resource.org/cc/Reproduction" />
        <cc:permits
           rdf:resource="http://web.resource.org/cc/Distribution" />
        <cc:permits
           rdf:resource="http://web.resource.org/cc/DerivativeWorks" />
      </cc:License>
    </rdf:RDF>
  </metadata>
  <path
     d="M 121.01582,84.671227 C 109.27701,81.224221 100.73969,76.938753 94.997326,71.116107 89.254964,65.153717 87.882895,57.933635 86.968182,50.15458 85.951835,42.328943 83.766688,31.196044 89.204146,24.67468 94.590787,18.013572 105.61816,14.426822 118.77986,10.700329 131.7891,6.694348 139.61498,1.9430686 166.75145,1.6635816 c 27.23811,-0.2329059 79.22428,6.3816203 113.42437,7.8256366 33.84437,1.3508538 51.78431,1.9098278 88.31918,0.4192306 36.5391,-1.7235033 92.69088,-9.68888348 128.66958,-9.87520816 35.67238,-0.13974352 65.40195,1.11794806 84.30743,8.61751656 18.59915,7.4064058 22.61373,17.0952898 27.33833,35.3551078 4.52416,18.073495 3.76048,50.587152 0.45736,72.759785 -3.55863,22.07818 -16.76833,38.98844 -20.63045,59.15809 -3.91152,20.12307 1.01494,31.95468 -2.23596,60.83501 -3.5064,28.97349 -12.55471,83.56532 -17.53199,111.329 -5.03092,27.43631 -12.65494,33.30553 -12.09454,52.82304 0.559,19.37906 10.11266,45.60297 15.70116,62.88588 5.48969,17.09658 15.80561,26.17732 17.02664,39.64187 0.9133,13.32221 -1.92965,29.62562 -10.72388,40.29271 -8.99326,10.43418 -19.20614,14.06751 -42.17982,22.59187 -23.32376,8.43378 -61.69088,23.0111 -95.48443,27.95129 -33.84719,4.7047 -66.62298,2.09356 -105.80317,0.78929 -39.58532,-1.48801 -94.21541,-8.75726 -128.21223,-9.03416 -33.84437,-0.23549 -47.05688,2.88544 -73.53273,7.40641 -26.72994,4.33204 -63.521714,17.5611 -84.712557,18.49272 -21.038391,0.60556 -32.878838,-3.91282 -40.8063476,-13.55512 -7.97832702,-9.8778 -9.5536655,-32.1436 -6.7078928,-43.97262 2.7949553,-11.8782 10.8749174,-19.09828 22.8678164,-26.31837 11.840447,-7.22008 27.695466,-12.76324 47.971597,-16.8158 0.609808,-29.06665 2.388416,-61.06791 5.335824,-97.82175 2.89659,-36.847 4.726015,-82.21447 12.145351,-121.20291 7.368519,-39.12818 25.154599,-83.28713 31.811669,-111.28242 6.40299,-28.04186 7.16525,-38.84869 7.16525,-55.05894 -0.15104,-16.30859 -2.69191,-29.630801 -7.62119,-41.229513 z"
     i:knockout="Off"
     style="stroke:#000000;stroke-width:0.04865319;stroke-miterlimit:10"
     id="path4"
     inkscape:connector-curvature="0" />
  <path
     d="m 143.57873,82.714818 c -8.99467,0.79188 -16.76973,0.372649 -23.73171,-1.257692 -7.06361,-1.770084 -13.1617,-4.471792 -17.88771,-8.990165 C 97.182473,67.808844 93.218718,61.28748 91.64338,53.974236 89.915589,46.381505 87.57799,34.782794 92.100736,28.168268 96.521847,21.50716 105.82143,18.479384 118.06841,14.613147 c 12.09454,-4.052562 25.56114,-9.1764906 46.4979,-9.828627 20.98757,-0.558974 51.73208,4.4252112 78.30956,6.148715 26.42503,1.490597 53.00252,3.120938 79.17488,3.260681 26.06931,-0.04658 48.93712,-0.931623 76.0736,-2.841451 26.98402,-2.0029903 62.09741,-7.4529872 84.96664,-8.6175165 22.76477,-1.3042728 39.2296,-0.838461 50.56046,1.2111104 -6.55403,8.7106791 -10.51778,17.3281951 -12.09171,25.8525501 -1.62475,8.524354 -0.20468,16.862383 2.6905,25.014088 2.898,8.105124 7.47156,15.51153 14.33049,22.964517 -8.23241,-4.797861 -29.67593,-7.732474 -65.30032,-8.617516 -36.0281,-1.024786 -110.78186,1.676922 -147.62445,2.886738 -36.64074,0.838461 -40.75695,2.00299 -71.14432,3.679913 -30.69228,1.724797 -67.0267,4.053855 -110.93291,6.988469 z"
     i:knockout="Off"
     style="fill:#e8e4d4;stroke:#000000;stroke-width:0.04865319;stroke-miterlimit:10"
     id="path6"
     inkscape:connector-curvature="0" />
  <path
     d="m 528.62194,43.307148 50.10593,-6.521364 c -0.15245,9.688884 -1.42571,17.281614 -4.0174,23.337166 -2.6905,5.915809 -7.41933,9.54914 -11.63718,12.344011 -4.52133,2.748289 -9.49861,5.729484 -14.32626,4.099143 -4.87988,-1.909828 -11.02878,-8.803842 -14.3305,-14.393582 -3.40617,-5.682903 -5.33864,-11.785036 -5.79459,-18.865374 z"
     i:knockout="Off"
     style="fill:#e8e4d4;stroke:#000000;stroke-width:0.04865319;stroke-miterlimit:10"
     id="path8"
     inkscape:connector-curvature="0" />
  <path
     d="m 528.06295,39.114843 c -1.52452,-4.984186 -1.11939,-10.108114 1.01494,-15.88418 2.08633,-5.776065 5.89763,-11.924779 11.63717,-18.446143 16.31379,1.3042728 28.66241,3.6333313 38.01422,6.987176 9.14571,3.2141 11.9929,4.518373 16.97159,12.716659 4.82765,8.058543 10.46838,20.029903 11.9929,35.541433 1.37066,15.464949 -0.86531,41.690152 -3.55863,56.596122 -2.898,14.62649 -9.25017,21.14785 -13.01066,31.58203 -3.86071,10.20128 -7.72565,18.86538 -9.40121,30.32435 -1.67697,11.55213 -0.0494,26.17861 -0.40513,38.14997 -0.45594,11.59872 -0.61263,19.14487 -2.23596,32.00127 -1.93106,12.94956 -5.84541,28.64742 -8.38487,44.57818 -2.49146,15.88418 -3.55863,32.28075 -6.7573,49.18971 -3.5064,16.72264 -12.09453,34.23716 -13.41578,50.02818 -1.22103,15.60469 2.28537,29.90252 5.84258,43.08758 3.457,13.1346 9.80917,24.77989 14.3305,34.93588 4.26866,9.78205 9.29958,16.16367 11.58777,24.17563 2.08493,8.05984 2.79355,16.11708 1.37066,23.80298 -1.77861,7.63802 -5.48686,15.04572 -10.72246,21.33288 -5.23278,6.05685 -13.4652,11.69058 -20.17309,15.13759 -6.80953,3.30985 -14.12723,5.31025 -20.58103,4.9376 -6.76012,-0.46581 -14.12723,-2.32906 -18.75302,-7.4077 -4.57074,-5.2158 -7.41934,-13.1346 -8.53591,-23.7551 6.20113,-4.23889 13.1617,-7.22008 21.49716,-9.45727 8.28182,-2.23719 17.32731,-3.40043 27.74346,-3.68121 1.27043,-13.18247 0.45736,-23.70852 -2.23597,-31.95339 -2.99681,-8.29015 -4.77542,-14.15938 -14.32626,-17.23374 -9.70894,-3.16752 -20.7349,-5.03206 -42.48755,-1.63034 -22.00393,3.30726 -58.28612,14.53074 -87.70937,21.2863 -29.42326,6.61323 -57.93322,14.81152 -87.65997,18.49273 -29.98365,3.44571 -62.91331,2.65642 -90.35469,2.84015 -27.28893,0.0466 -47.66669,-2.00299 -72.92293,-1.63034 -25.51031,0.41923 -51.37636,1.72351 -78.766918,4.09914 0.203269,-13.78802 1.321251,-34.88929 3.150677,-64.37517 1.829425,-29.71879 2.89659,-75.64782 8.079961,-111.5632 5.132555,-36.09911 15.39766,-73.59695 22.35964,-101.87173 6.7079,-28.08844 14.58459,-47.37305 18.34507,-65.58628 3.65885,-18.3064 4.26866,-29.67221 4.01458,-43.08759 -0.35573,-13.50854 -2.23597,-25.759383 -5.844,-37.311513 9.6553,0.326068 26.9332,-0.279487 52.79925,-1.630341 25.96767,-1.58376 69.67061,-5.403416 101.12656,-6.987176 31.25409,-1.630341 60.42326,-1.861953 84.96664,-2.468802 24.28929,-0.838461 41.92292,-1.257691 59.96309,-1.630341 17.73385,-0.512393 29.72816,-1.304273 46.95666,-0.41923 17.27649,0.931623 41.10984,4.658117 55.79465,5.962389 14.38131,1.304273 21.85147,5.030767 30.4396,1.630341 8.4865,-3.679912 16.97159,-14.626487 20.58104,-22.964517 3.40476,-8.431191 3.40476,-17.281614 0,-27.06366 -17.42613,2.846627 -34.8579,5.73466 -52.33766,8.622693 z"
     i:knockout="Off"
     style="fill:#e8e4d4;stroke:#000000;stroke-width:0.04865319;stroke-miterlimit:10"
     id="path10"
     inkscape:connector-curvature="0" />
  <path
     d="m 549.10134,511.58765 c -4.3717,-0.37265 -10.11266,0.5124 -17.43177,2.46881 -7.36993,1.95641 -16.1091,5.17051 -26.42644,9.45597 -1.62616,-10.3876 -1.93247,-19.51751 -0.91471,-27.90082 1.01917,-8.52565 3.2029,-17.51452 6.76012,-22.12865 3.45417,-4.51837 9.39839,-5.82264 14.27827,-5.35683 4.82765,0.46322 10.51778,3.16752 14.33049,7.4064 3.55722,3.91282 5.48687,10.34102 7.16525,16.39658 1.47512,6.05684 2.2882,12.43846 2.23879,19.65854 z"
     i:knockout="Off"
     style="fill:#e8e4d4;stroke:#000000;stroke-width:0.04865319;stroke-miterlimit:10"
     id="path12"
     inkscape:connector-curvature="0" />
  <path
     d="m 504.33124,468.96588 c -5.43746,-0.27948 -14.9883,1.16453 -29.06754,4.51838 -14.17945,3.26197 -30.94777,9.31623 -55.0338,15.13888 -24.44315,5.77606 -58.43997,15.3252 -89.43716,19.2846 -31.05082,3.7265 -62.35291,2.79358 -95.28256,3.30726 -33.08211,0.32607 -75.51461,-1.63034 -101.43147,-0.83716 -25.86604,0.56027 -36.893414,2.33035 -53.256607,5.31025 -16.668097,3.02778 -33.488646,7.45299 -45.176641,12.71666 -11.78963,4.93631 -19.107331,10.34102 -24.138251,17.65426 -4.9292845,7.45558 -5.9964493,17.33079 -5.3866409,26.22779 0.3557216,8.57094 2.7949554,19.797 8.4865009,25.61964 5.488276,5.77607 8.232414,9.92179 25.510319,9.03675 17.481176,-1.16453 55.086029,-11.1329 78.30957,-15.18546 22.91863,-4.19231 36.99504,-7.35982 59.45632,-8.99017 22.66455,-1.63034 50.05511,-1.58376 74.70153,-0.41923 24.39234,1.11795 48.02242,5.12393 70.68696,6.98718 22.35965,1.67692 41.72248,3.77307 63.57112,3.26068 21.80206,-0.69613 44.00784,-2.04957 66.62298,-6.56536 22.50928,-4.70728 44.71929,-11.50813 67.58569,-20.91494 -9.50284,-6.47478 -16.31237,-13.93036 -20.63044,-22.54658 -4.47192,-8.61622 -6.04867,-17.00342 -5.33723,-29.11323 0.71144,-12.39577 3.60521,-26.97568 9.24735,-44.4902 z"
     i:knockout="Off"
     style="fill:#e8e4d4;stroke:#000000;stroke-width:0.04865319;stroke-miterlimit:10"
     id="path14"
     inkscape:connector-curvature="0" />
  <text
     xml:space="preserve"
     style="font-style:normal;font-weight:normal;font-size:109.71579742px;line-height:1.25;font-family:sans-serif;letter-spacing:0px;word-spacing:0px;fill:#000000;fill-opacity:1;stroke:none;stroke-width:2.57146406"
     x="191.87035"
     y="193.50221"
     id="text963"
     transform="matrix(0.75227202,-0.03635485,0.06409135,1.3262091,0,0)"><tspan
       sodipodi:role="line"
       x="191.87035"
       y="193.50221"
       id="tspan957"
       style="stroke-width:2.57146406"><tspan
         x="191.87035"
         y="193.50221"
         style="font-size:109.71579742px;fill:#786721;stroke-width:2.57146406"
         id="tspan953">Selected</tspan><tspan
         dx="0"
         x="667.59119"
         y="193.50221"
         style="font-size:109.71579742px;fill:#786721;stroke-width:2.57146406"
         id="tspan955" /></tspan><tspan
       sodipodi:role="line"
       x="191.87035"
       y="330.647"
       id="tspan961"
       style="stroke-width:2.57146406"><tspan
         x="191.87035"
         y="330.647"
         style="font-size:109.71579742px;fill:#786721;stroke-width:2.57146406"
         id="tspan959">Writings</tspan></tspan></text>
</svg>
