<?xml version="1.0" encoding="UTF-8" standalone="no"?>
<svg
   xmlns:dc="http://purl.org/dc/elements/1.1/"
   xmlns:cc="http://creativecommons.org/ns#"
   xmlns:rdf="http://www.w3.org/1999/02/22-rdf-syntax-ns#"
   xmlns:svg="http://www.w3.org/2000/svg"
   xmlns="http://www.w3.org/2000/svg"
   xmlns:sodipodi="http://sodipodi.sourceforge.net/DTD/sodipodi-0.dtd"
   xmlns:inkscape="http://www.inkscape.org/namespaces/inkscape"
   version="1.0"
   width="471.173pt"
   height="461.04208pt"
   viewBox="0 0 471.173 461.04208"
   preserveAspectRatio="xMidYMid meet"
   id="svg10"
   sodipodi:docname="drill.1.svg"
   inkscape:version="0.92.3 (2405546, 2018-03-11)">
  <defs
     id="defs14" />
  <sodipodi:namedview
     pagecolor="#ffffff"
     bordercolor="#666666"
     borderopacity="1"
     objecttolerance="10"
     gridtolerance="10"
     guidetolerance="10"
     inkscape:pageopacity="0"
     inkscape:pageshadow="2"
     inkscape:window-width="1366"
     inkscape:window-height="743"
     id="namedview12"
     showgrid="false"
     inkscape:zoom="0.35464153"
     inkscape:cx="769.7694"
     inkscape:cy="144.17175"
     inkscape:window-x="0"
     inkscape:window-y="0"
     inkscape:window-maximized="1"
     inkscape:current-layer="svg10" />
  <metadata
     id="metadata2">
Created by potrace 1.15, written by Peter Selinger 2001-2017
<rdf:RDF>
  <cc:Work
     rdf:about="">
    <dc:format>image/svg+xml</dc:format>
    <dc:type
       rdf:resource="http://purl.org/dc/dcmitype/StillImage" />
    <dc:title></dc:title>
  </cc:Work>
</rdf:RDF>
</metadata>
  <g
     transform="matrix(0.03683258,0,0,-0.06672482,0,460.97535)"
     id="g8"
     style="fill:#795548;stroke:none">
    <path
       d="m 225,6338 c 6,-550 25,-1784 45,-2898 25,-1397 30,-1696 36,-2302 L 313,491 157,296 0,102 16,50 31,-1 4898,4 c 2677,4 5535,9 6351,12 l 1483,5 27,31 c 14,17 29,36 33,42 4,7 -34,87 -83,179 l -89,166 v 3189 3189 l -1957,6 c -1077,3 -2516,13 -3198,21 -2412,30 -3023,37 -4205,46 -657,5 -1610,10 -2118,10 H 219 Z m 2539,432 c 626,-9 980,-15 2411,-40 308,-5 819,-14 1135,-20 1513,-26 1783,-31 2305,-40 948,-17 1816,-29 2885,-40 563,-6 1026,-13 1028,-15 2,-2 -1,-597 -7,-1322 -6,-725 -16,-2097 -23,-3049 l -12,-1731 -1755,-6 c -965,-4 -2489,-7 -3386,-7 H 5713 l -7,31 c -3,17 -21,46 -40,65 -41,41 -43,42 -352,11 -239,-24 -266,-33 -287,-88 l -11,-29 H 4014 3012 l -52,158 c -46,138 -57,162 -95,202 -23,25 -48,55 -54,67 -9,17 -16,20 -33,14 -19,-7 -21,-14 -19,-95 2,-78 27,-189 76,-333 3,-10 -19,-13 -89,-13 h -94 l -173,127 c -155,112 -181,128 -234,138 -33,6 -70,16 -81,23 -19,10 -24,8 -38,-13 -15,-23 -15,-26 -1,-31 9,-4 31,-30 50,-59 21,-33 64,-77 115,-117 l 82,-63 -952,-3 c -524,-1 -954,-1 -955,0 -1,2 -7,457 -14,1013 -6,556 -16,1253 -21,1550 -24,1314 -30,1730 -41,2503 -6,453 -9,825 -7,828 3,2 22,-23 43,-56 20,-34 38,-60 40,-58 1,2 -5,67 -14,145 -15,126 -15,140 -1,130 8,-6 43,-36 78,-66 l 63,-54 -46,98 c -25,54 -43,100 -41,102 2,3 12,0 23,-6 10,-6 61,-31 113,-57 79,-38 91,-42 74,-23 -11,13 -65,75 -120,138 l -99,114 799,-7 c 439,-3 1100,-11 1470,-16 z M 2517,382 c 26,-21 64,-50 84,-65 l 36,-27 43,65 42,65 h 68 69 l 15,-52 c 8,-29 18,-65 21,-81 4,-15 11,-30 17,-33 10,-6 158,45 158,55 0,3 -7,24 -15,46 -8,22 -14,46 -15,53 0,10 201,12 992,10 l 992,-3 13,-60 13,-61 313,38 c 171,20 320,37 330,37 11,1 17,9 17,26 v 25 l 3418,-2 3417,-3 79,-117 c 44,-65 77,-120 75,-123 -3,-2 -806,0 -1785,5 -2299,12 -5126,27 -8174,41 -1339,7 -2436,13 -2438,14 -1,1 28,44 65,94 l 67,91 h 1017 1017 z"
       id="path4"
       inkscape:connector-curvature="0" />
    <path
       d="m 3815,6348 c -2,-7 -12,-98 -22,-203 -14,-156 -17,-324 -20,-929 -1,-406 -4,-741 -7,-743 -2,-2 -76,7 -165,21 -181,28 -213,25 -255,-25 -48,-56 -29,-152 36,-182 18,-8 110,-27 203,-42 99,-16 175,-33 181,-41 7,-9 13,-173 17,-496 4,-266 10,-570 14,-675 l 6,-193 h -29 c -17,0 -352,52 -747,115 -394,63 -727,115 -739,115 -35,0 -87,-36 -104,-74 -22,-46 -11,-101 27,-137 31,-28 37,-31 154,-50 84,-14 69,-23 -55,-33 -296,-22 -415,-29 -665,-34 -255,-6 -280,-9 -283,-24 -3,-17 9,-18 155,-18 170,0 419,12 740,35 381,28 409,26 1003,-69 430,-70 527,-88 538,-103 12,-15 13,-102 8,-543 -4,-289 -9,-556 -13,-594 l -6,-68 -41,7 c -364,58 -532,78 -667,79 -131,1 -149,-1 -168,-18 -12,-11 -21,-31 -21,-46 0,-76 174,-154 615,-275 279,-76 265,-70 265,-116 v -39 h -57 c -72,0 -256,22 -523,61 -113,16 -212,31 -220,32 -8,1 -16,-5 -18,-14 -2,-13 11,-19 65,-29 142,-25 463,-69 593,-81 74,-7 139,-16 145,-21 5,-5 8,-39 6,-77 -1,-38 2,-71 7,-75 18,-11 31,20 34,84 l 3,65 83,7 c 84,7 132,26 132,52 0,23 -35,46 -116,75 l -79,29 v 120 c 0,66 3,123 7,127 3,4 78,-3 165,-14 375,-49 596,-49 708,3 45,20 60,35 94,89 87,137 226,229 386,252 41,7 59,25 37,39 -18,11 -152,-26 -227,-63 -87,-43 -170,-117 -227,-205 -44,-67 -70,-83 -158,-102 -58,-12 -108,-15 -220,-11 -150,6 -391,30 -495,50 l -60,12 v 98 c 2,671 7,1094 13,1105 6,9 112,-5 478,-63 1027,-165 1020,-164 1058,-154 51,14 86,60 86,115 0,36 -6,51 -33,80 l -33,36 -270,44 c -148,24 -300,50 -339,59 -70,14 -70,14 100,10 94,-3 1656,-8 3473,-11 2955,-6 3302,-5 3302,8 0,21 -650,26 -4095,33 -2479,5 -2646,7 -2910,25 -480,34 -803,70 -816,92 -4,6 -10,83 -13,172 -11,280 -26,1165 -20,1181 3,8 15,15 25,15 54,0 783,-122 834,-139 47,-17 1128,-196 1720,-286 55,-8 397,-62 761,-120 423,-67 673,-103 693,-99 41,9 86,54 95,95 9,47 -23,111 -65,131 -19,9 -306,59 -639,112 -333,53 -632,106 -665,117 -51,17 -1099,190 -1665,276 -572,86 -1083,172 -1090,182 -4,7 -10,231 -14,499 -7,510 2,902 29,1205 9,93 13,173 10,178 -9,13 -25,11 -30,-3 z M 3495,1365 c 138,-21 260,-42 273,-46 23,-9 23,-10 16,-121 -3,-62 -9,-116 -13,-119 -7,-8 -364,89 -541,146 -127,41 -225,83 -270,115 -31,22 -40,54 -17,64 34,16 316,-4 552,-39 z m 410,-376 c 75,-28 67,-44 -21,-44 h -69 l -3,33 c -4,40 12,42 93,11 z"
       id="path6"
       inkscape:connector-curvature="0" />
  </g>
  <g
     id="g877"
     transform="matrix(0.0391679,0,0,-0.02928418,98.032704,401.52598)"
     style="fill:#9e9e9e;stroke:none">
    <path
       id="path875"
       d="m 6394,12237 c -2,-7 -3,-91 -2,-187 l 3,-175 28,2 27,2 1,-102 c 1,-56 1,-109 0,-119 -1,-9 5,-33 13,-53 15,-35 15,-39 -4,-62 -28,-36 -26,-92 11,-236 48,-188 46,-330 -4,-353 -16,-6 -29,-33 -50,-99 -24,-77 -26,-95 -17,-125 14,-44 -11,-164 -39,-189 -16,-14 -48,-130 -57,-208 -1,-12 -5,-26 -8,-31 -3,-5 -14,-49 -25,-98 -14,-64 -17,-92 -9,-101 7,-9 7,-31 -1,-76 -17,-87 -21,-97 -36,-97 -24,0 -42,-41 -60,-140 -10,-52 -29,-133 -42,-179 -13,-46 -21,-92 -18,-102 3,-10 -1,-42 -9,-70 -9,-29 -16,-66 -16,-83 0,-20 -7,-36 -20,-43 -36,-23 -63,-160 -40,-203 16,-29 -10,-65 -149,-208 l -128,-133 2,-82 c 2,-45 -1,-111 -6,-147 -35,-239 -37,-342 -23,-895 18,-662 12,-3953 -7,-4117 -13,-117 -6,-1083 9,-1170 6,-31 21,-78 33,-104 26,-51 112,-135 169,-164 20,-10 56,-35 79,-54 46,-38 111,-61 290,-102 203,-46 531,-41 778,12 65,14 152,32 193,41 93,19 201,75 246,127 19,22 54,80 78,130 44,90 44,93 54,241 11,166 6,1819 -8,2465 -9,436 -4,1426 10,2130 12,574 12,1268 0,1385 -12,119 -77,327 -105,335 -29,8 -125,114 -125,138 0,11 -20,50 -45,86 -25,37 -45,75 -45,87 0,28 -27,78 -61,115 -33,34 -74,162 -58,178 5,6 9,19 9,30 0,39 -51,187 -71,207 -30,30 -63,156 -49,187 9,20 5,42 -21,121 -17,53 -38,104 -46,113 -23,26 -65,168 -58,198 6,26 -45,183 -66,204 -5,6 -9,19 -9,30 0,11 -14,57 -31,103 -16,45 -27,87 -24,93 14,22 -68,227 -94,235 -25,7 -63,112 -51,136 5,9 23,22 39,27 31,11 71,45 71,61 0,24 -31,39 -69,34 l -39,-5 29,140 c 31,155 29,187 -17,241 l -25,30 17,48 c 15,39 19,90 22,262 3,145 0,217 -7,224 -6,6 -11,37 -11,69 v 58 h -150 c -114,0 -152,-3 -156,-13 z m 267,-456 c -2,-52 -9,-109 -17,-127 -14,-33 -22,-38 -85,-48 -36,-6 -37,-6 -48,38 -11,45 -16,218 -6,228 3,3 40,4 83,4 l 77,-1 z m -2,-265 c 21,-22 23,-32 18,-83 -3,-32 -12,-89 -21,-128 -9,-38 -16,-82 -16,-97 0,-34 -24,-58 -50,-51 -28,8 -29,10 -66,166 -31,132 -32,141 -17,172 14,30 19,33 48,28 18,-3 41,0 51,6 26,15 28,14 53,-13 z m 81,-396 c -18,-12 -40,-13 -40,-2 0,4 12,9 28,10 21,1 23,0 12,-8 z m -70,-167 c 10,-34 11,-45 0,-58 -23,-28 -30,-16 -30,52 0,72 9,73 30,6 z m -60,-8 c 0,-35 -4,-47 -22,-56 -19,-10 -20,-9 -14,7 5,11 10,36 13,57 8,51 23,47 23,-8 z m -90,-44 c 0,-3 -10,-40 -23,-81 -21,-71 -23,-75 -47,-70 -30,6 -31,22 -6,101 10,29 19,60 21,66 3,10 10,10 30,1 14,-6 25,-14 25,-17 z m 225,-95 c 0,-36 -3,-62 -6,-58 -5,6 -39,100 -39,108 0,1 10,5 23,7 12,2 22,5 22,6 0,0 0,-28 0,-63 z m -112,-38 c 3,-21 2,-38 -4,-38 -5,0 -9,19 -9,42 0,49 5,47 13,-4 z m 159,-33 c 2,-27 -1,-40 -9,-40 -7,0 -13,3 -13,8 0,88 1,101 10,87 5,-9 10,-34 12,-55 z m -205,-22 c -2,-16 -4,-3 -4,27 0,30 2,43 4,28 2,-16 2,-40 0,-55 z m 132,-28 c 0,-13 -5,-8 -14,15 -18,46 -17,74 0,35 8,-16 14,-39 14,-50 z m -209,24 c 0,-11 -5,-30 -11,-42 -15,-28 -23,-443 -9,-452 17,-10 12,-162 -6,-190 -20,-31 -33,-417 -14,-440 13,-15 9,-119 -9,-265 -6,-47 -11,-104 -12,-126 l -1,-41 -92,-7 c -50,-4 -122,-12 -159,-17 -38,-6 -70,-9 -72,-7 -3,2 7,33 21,68 24,58 25,66 12,94 -9,19 -12,42 -7,61 4,17 7,50 8,74 1,26 7,48 16,55 8,6 26,52 40,101 14,50 30,98 36,108 20,37 48,198 38,224 -12,32 17,149 46,185 21,25 70,191 61,206 -2,4 4,43 15,87 10,44 19,100 19,125 0,49 35,186 52,207 16,19 28,16 28,-8 z m 267,-157 c 18,-59 46,-153 63,-209 17,-56 36,-106 44,-110 21,-13 67,-169 57,-195 -12,-34 41,-197 73,-225 17,-14 32,-46 45,-93 18,-63 19,-74 6,-87 -19,-18 -19,-13 6,-114 23,-92 39,-125 67,-133 21,-7 58,-138 41,-145 -6,-2 -14,-14 -19,-27 -7,-18 -2,-40 26,-99 20,-41 40,-75 45,-75 5,0 9,-4 9,-10 0,-5 -48,16 -106,47 -58,30 -131,63 -162,72 -57,17 -57,17 -65,65 -6,37 -4,52 6,65 13,13 13,30 3,102 -6,47 -19,98 -29,112 -25,39 -49,161 -37,189 7,17 4,48 -10,113 -46,202 -53,242 -51,280 2,59 -18,166 -38,195 -25,36 -45,164 -29,190 10,15 10,34 0,88 -6,38 -14,76 -17,84 -6,15 2,20 35,27 3,0 19,-48 37,-107 z m -209,8 c -3,-83 -3,-85 -27,-82 -14,1 -26,3 -27,5 -1,1 1,38 3,82 5,77 6,80 29,80 24,0 25,-1 22,-85 z m 271,11 c 20,-61 17,-92 -6,-78 -15,10 -46,124 -39,143 9,25 20,9 45,-65 z m -149,-10 c 13,-64 9,-81 -20,-81 -14,0 -20,10 -25,43 -3,23 -8,54 -11,70 -5,23 -2,27 19,27 22,0 26,-7 37,-59 z m -69,-63 c 6,-23 16,-50 23,-58 20,-23 37,-157 24,-186 -13,-27 3,-137 26,-183 15,-30 41,-195 33,-208 -9,-15 14,-167 29,-190 18,-29 38,-146 35,-208 -3,-82 17,-180 45,-210 13,-14 24,-34 24,-45 0,-10 3,-25 6,-34 5,-14 -6,-16 -83,-16 -50,0 -125,3 -167,7 l -77,6 7,107 c 5,76 3,109 -5,114 -18,11 -14,166 4,186 11,12 16,51 20,151 3,74 8,164 11,202 5,54 3,73 -11,93 -14,22 -16,42 -11,123 11,186 21,276 34,298 6,12 12,41 12,64 0,51 8,46 21,-13 z m -211,-5 c 0,-5 -9,-39 -18,-78 -13,-48 -23,-71 -35,-73 -12,-3 -17,3 -17,20 0,22 16,99 25,126 5,13 45,17 45,5 z m 504,-130 c 14,-42 25,-77 23,-79 -1,-1 -12,-5 -24,-8 -20,-6 -24,-1 -42,62 -12,38 -21,74 -21,80 0,9 14,19 32,21 3,1 18,-34 32,-76 z m -370,-10 c -7,-83 -11,-96 -26,-91 -8,3 -11,27 -9,73 3,77 5,85 27,85 12,0 13,-12 8,-67 z m -184,-63 c 4,0 -1,-36 -12,-79 -17,-68 -23,-80 -44,-84 -29,-5 -30,3 -9,92 18,76 23,84 42,77 8,-3 18,-6 23,-6 z m 385,-92 c 3,-24 9,-58 12,-77 5,-31 4,-33 -18,-26 -30,9 -39,22 -39,56 0,15 -3,41 -6,58 -6,28 -4,31 19,31 22,0 26,-5 32,-42 z m 219,-62 c 19,-58 18,-56 8,-56 -8,0 -42,95 -42,115 0,20 18,-13 34,-59 z m -191,-133 c 3,-21 9,-53 12,-70 6,-26 4,-33 -8,-33 -22,0 -25,7 -33,78 -5,52 -4,62 8,62 10,0 17,-13 21,-37 z m 270,-55 c 14,-45 25,-83 24,-84 -1,-1 -13,-4 -27,-6 -23,-3 -27,3 -48,70 -23,71 -23,74 -5,87 10,8 20,15 23,15 3,0 18,-37 33,-82 z m -510,48 c 15,5 17,-4 17,-79 v -86 l -30,1 c -28,1 -30,4 -30,37 0,61 13,143 20,131 4,-6 14,-8 23,-4 z m -285,-112 c 20,12 19,-9 -2,-84 -18,-62 -25,-76 -44,-78 -12,-2 -22,0 -22,5 -1,27 45,172 51,162 4,-6 11,-9 17,-5 z m 557,-47 c 9,-28 23,-122 19,-128 -3,-5 -16,-9 -28,-9 -21,0 -24,6 -30,58 -4,31 -10,65 -13,76 -4,16 -1,18 23,12 16,-4 29,-8 29,-9 z m -265,-144 c 0,-74 -2,-84 -16,-79 -9,3 -20,6 -25,6 -5,0 -9,38 -9,84 v 83 l 25,-5 c 24,-4 25,-7 25,-89 z m -346,-55 c -17,-78 -31,-113 -46,-116 -14,-3 -15,2 -8,30 5,18 14,52 20,76 7,26 16,42 26,42 12,0 14,-7 8,-32 z m 636,-27 c 0,-14 4,-41 9,-58 6,-20 6,-35 0,-38 -11,-8 -24,26 -33,87 -6,41 -5,47 8,42 9,-3 16,-18 16,-33 z m 327,-82 c 29,-93 28,-99 -1,-99 -26,0 -33,14 -60,109 -20,70 -21,67 11,65 25,-1 30,-7 50,-75 z m -283,-80 c 2,-2 6,-27 10,-56 6,-46 4,-54 -19,-79 -14,-15 -27,-25 -29,-23 -2,2 -7,41 -11,86 l -7,82 26,-3 c 14,-1 28,-5 30,-7 z m -362,-139 c -7,-130 -32,-152 -32,-29 0,71 2,80 18,77 14,-3 16,-12 14,-48 z m -402,-74 c 0,-42 -28,-96 -50,-96 -11,0 -20,5 -20,11 0,23 24,94 35,101 20,15 35,8 35,-16 z m 1125,-56 c 11,9 18,5 35,-22 21,-35 26,-68 11,-68 -5,0 -16,-3 -25,-6 -12,-5 -21,6 -36,37 -21,48 -29,100 -9,66 8,-14 14,-16 24,-7 z m 125,-222 c 0,-13 -23,-5 -28,10 -2,7 2,10 12,6 9,-3 16,-11 16,-16 z"
       inkscape:connector-curvature="0" />
  </g>
</svg>
