<?xml version="1.0" encoding="UTF-8" standalone="no"?>
<!-- Created by AtomCrusher for the English Wikipedia -->

<svg
   xmlns:dc="http://purl.org/dc/elements/1.1/"
   xmlns:cc="http://creativecommons.org/ns#"
   xmlns:rdf="http://www.w3.org/1999/02/22-rdf-syntax-ns#"
   xmlns:svg="http://www.w3.org/2000/svg"
   xmlns="http://www.w3.org/2000/svg"
   xmlns:sodipodi="http://sodipodi.sourceforge.net/DTD/sodipodi-0.dtd"
   xmlns:inkscape="http://www.inkscape.org/namespaces/inkscape"
   version="1.1"
   width="612"
   height="612"
   id="svg6"
   sodipodi:docname="Rust_programming_language_logo.svg"
   inkscape:version="0.92.4 (unknown)">
  <metadata
     id="metadata12">
    <rdf:RDF>
      <cc:Work
         rdf:about="">
        <dc:format>image/svg+xml</dc:format>
        <dc:type
           rdf:resource="http://purl.org/dc/dcmitype/StillImage" />
        <dc:title />
      </cc:Work>
    </rdf:RDF>
  </metadata>
  <defs
     id="defs10" />
  <sodipodi:namedview
     pagecolor="#ffffff"
     bordercolor="#666666"
     borderopacity="1"
     objecttolerance="10"
     gridtolerance="10"
     guidetolerance="10"
     inkscape:pageopacity="0"
     inkscape:pageshadow="2"
     inkscape:window-width="999"
     inkscape:window-height="634"
     id="namedview8"
     showgrid="false"
     inkscape:zoom="0.38562092"
     inkscape:cx="258.02542"
     inkscape:cy="306"
     inkscape:window-x="0"
     inkscape:window-y="0"
     inkscape:window-maximized="0"
     inkscape:current-layer="svg6" />
  <!-- Block -->
  <!-- Letters -->
  <g
     inkscape:groupmode="layer"
     id="layer1"
     inkscape:label="rust" />
  <path
     d="m 602.12542,300.30961 -25.18919,-15.59248 c -0.21225,-2.4535 -0.45287,-4.90131 -0.71657,-7.33764 l 21.64641,-20.18991 c 2.20133,-2.05225 3.18735,-5.09049 2.59116,-8.03129 -0.579,-2.95223 -2.6485,-5.38282 -5.46319,-6.43186 l -27.67143,-10.34721 c -0.69366,-2.39621 -1.42167,-4.77519 -2.16693,-7.14273 l 17.26096,-23.97337 c 1.7599,-2.43633 2.12108,-5.60642 0.97454,-8.38671 -1.14654,-2.7688 -3.6517,-4.75222 -6.61546,-5.23952 l -29.17907,-4.74653 c -1.13509,-2.21272 -2.31598,-4.39109 -3.50838,-6.55224 l 12.26209,-26.91417 c 1.25545,-2.74015 0.99749,-5.92744 -0.67644,-8.41538 -1.66819,-2.49937 -4.49439,-3.96117 -7.50973,-3.84653 l -29.6148,1.03186 c -1.53059,-1.91463 -3.08987,-3.81209 -4.6778,-5.67516 l 6.80461,-28.84607 c 0.68791,-2.92932 -0.17767,-5.99621 -2.31025,-8.12298 -2.11533,-2.12102 -5.18802,-2.9981 -8.11739,-2.3102 l -28.84089,6.79877 c -1.8688,-1.58216 -3.76633,-3.14714 -5.68675,-4.67774 l 1.03762,-29.61419 c 0.11478,-2.998106 -1.34719,-5.847169 -3.84661,-7.50959 -2.50515,-1.673899 -5.67532,-1.926157 -8.40978,-0.682169 L 437.5932,69.822165 c -2.17267,-1.19238 -4.35109,-2.373284 -6.55242,-3.514057 l -4.75805,-29.184236 c -0.48157,-2.958018 -2.46503,-5.468824 -5.23962,-6.615336 -2.7689,-1.152251 -5.94476,-0.779645 -8.38114,0.974514 l -23.99104,17.260637 c -2.36184,-0.750992 -4.73515,-1.47329 -7.13139,-2.161156 l -10.3474,-27.676637 c -1.04908,-2.820369 -3.4797,-4.88983 -6.43201,-5.474564 -2.94657,-0.578952 -5.97913,0.4013 -8.02568,2.591109 l -20.19032,21.663212 c -2.43638,-0.269644 -4.88993,-0.515952 -7.33777,-0.716559 L 313.61361,11.774648 c -1.57648,-2.550979 -4.36827,-4.104488 -7.37217,-4.104488 -3.0039,0 -5.79568,1.553509 -7.36642,4.104488 l -15.59276,25.194444 c -2.45357,0.200438 -4.90714,0.447126 -7.3435,0.716559 L 255.74271,16.022439 c -2.04655,-2.189809 -5.08484,-3.170061 -8.02569,-2.591109 -2.9523,0.590473 -5.38294,2.654195 -6.432,5.474564 l -10.3474,27.676637 c -2.39624,0.687866 -4.76955,1.415903 -7.13713,2.161156 L 199.81517,31.48305 c -2.43637,-1.759898 -5.61225,-2.132503 -8.38684,-0.974514 -2.76886,1.146512 -4.75808,3.657318 -5.23962,6.615336 l -4.75808,29.184236 c -2.20134,1.140773 -4.37973,2.315937 -6.5524,3.514057 L 147.96926,57.554571 c -2.73446,-1.249685 -5.9218,-0.99173 -8.40977,0.682169 -2.49942,1.662421 -3.96124,4.511484 -3.8466,7.50959 l 1.03188,29.61419 c -1.9147,1.5306 -3.8122,3.09558 -5.68677,4.67774 l -28.84085,-6.79877 c -2.929383,-0.68216 -6.002073,0.18905 -8.123144,2.3102 -2.132541,2.12677 -2.998168,5.19366 -2.310251,8.12298 l 6.793165,28.84607 c -1.576474,1.8688 -3.135747,3.76053 -4.666359,5.67516 l -29.614766,-1.03186 c -2.986702,-0.0861 -5.84155,1.34716 -7.509747,3.84653 -1.673927,2.48794 -1.926164,5.67523 -0.682181,8.41538 l 12.267829,26.91417 c -1.192387,2.16115 -2.373313,4.33952 -3.514104,6.55224 l -29.179087,4.74653 c -2.963772,0.48156 -5.463199,2.46502 -6.615455,5.23952 -1.146529,2.78029 -0.773908,5.95038 0.974545,8.38671 l 17.26095,23.97337 c -0.750973,2.36754 -1.479016,4.74652 -2.166932,7.14273 l -27.677141,10.34721 c -2.808988,1.04904 -4.878468,3.47963 -5.463196,6.43186 -0.584729,2.94655 0.395552,5.97904 2.591149,8.03129 l 21.652142,20.18991 c -0.269438,2.43633 -0.510201,4.88988 -0.716578,7.33764 l -25.189176,15.59248 c -2.5510202,1.57643 -4.1045632,4.36244 -4.1045632,7.37203 0,3.00954 1.553543,5.79555 4.1045632,7.36628 l 25.189176,15.59244 c 0.206393,2.4535 0.447145,4.90131 0.716578,7.33763 l -21.652142,20.19566 c -2.195598,2.04651 -3.175878,5.08474 -2.591149,8.02554 0.584728,2.95224 2.654208,5.37709 5.463196,6.43187 l 27.677141,10.34722 c 0.687916,2.39619 1.415959,4.77517 2.166932,7.14272 l -17.26095,23.97911 c -1.754184,2.44206 -2.126805,5.61217 -0.974545,8.38097 1.152256,2.78029 3.657417,4.7637 6.621185,5.23952 l 29.173357,4.74653 c 1.140791,2.21277 2.310251,4.3911 3.514104,6.56373 L 56.103867,465.9336 c -1.249713,2.7344 -0.991746,5.91594 0.682181,8.41531 1.673927,2.50512 4.523045,3.96693 7.509747,3.84654 l 29.6033,-1.0376 c 1.542078,1.92611 3.09562,3.81214 4.677825,5.68665 l -6.793165,28.8518 c -0.687917,2.92359 0.177698,5.979 2.310251,8.10576 2.115341,2.13824 5.193761,2.99241 8.123144,2.30451 l 28.84085,-6.79304 c 1.87457,1.59364 3.77207,3.14141 5.68677,4.66627 l -1.03188,29.61993 c -0.11464,2.99811 1.34718,5.84143 3.8466,7.51532 2.48797,1.66816 5.67531,1.92038 8.40977,0.67069 l 26.90897,-12.26185 c 2.16693,1.20382 4.34533,2.37328 6.5524,3.51406 l 4.75808,29.16707 c 0.48154,2.96941 2.46503,5.48025 5.23962,6.62103 2.76886,1.15225 5.95047,0.77965 8.38684,-0.96878 l 23.97385,-17.27211 c 2.36759,0.75099 4.74662,1.48472 7.14286,2.17263 l 10.3474,27.66516 c 1.04908,2.80894 3.4797,4.88983 6.43201,5.46309 2.94658,0.59616 5.97914,-0.38992 8.02568,-2.59111 l 20.19606,-21.65174 c 2.43637,0.28104 4.88993,0.51596 7.3435,0.73378 l 15.59275,25.1887 c 1.57074,2.53951 4.36254,4.10449 7.36643,4.10449 3.0039,0 5.79569,-1.55925 7.37216,-4.10449 l 15.59276,-25.1887 c 2.45357,-0.21774 4.90139,-0.45287 7.33776,-0.73378 l 20.19032,21.65174 c 2.04656,2.20128 5.08485,3.18727 8.02569,2.59111 2.9523,-0.579 5.38294,-2.65415 6.43201,-5.46309 l 10.34739,-27.66516 c 2.39624,-0.68791 4.77529,-1.42164 7.14286,-2.17263 l 23.97958,17.27211 c 2.43637,1.74843 5.61228,2.12103 8.38112,0.96878 2.77461,-1.14078 4.75807,-3.65737 5.23964,-6.62103 l 4.75809,-29.16707 c 2.20132,-1.14078 4.3797,-2.32741 6.55238,-3.51406 l 26.90894,12.26185 c 2.7345,1.24969 5.9161,0.99747 8.40979,-0.67069 2.49941,-1.67389 3.95551,-4.51148 3.8466,-7.51532 l -1.03188,-29.61993 c 1.91471,-1.5306 3.81222,-3.07263 5.68102,-4.66627 l 28.84087,6.79304 c 2.92939,0.6879 6.00207,-0.16627 8.1174,-2.30451 2.13255,-2.12676 2.99817,-5.18217 2.31028,-8.10576 l -6.7932,-28.8518 c 1.58223,-1.87451 3.14151,-3.76054 4.6664,-5.68665 l 29.61475,1.0376 c 2.9867,0.12027 5.84155,-1.34142 7.50974,-3.84654 1.67393,-2.49937 1.93189,-5.68091 0.67644,-8.41531 l -12.26209,-26.90274 c 1.19814,-2.17263 2.37333,-4.35096 3.50839,-6.56373 l 29.17905,-4.74653 c 2.96951,-0.47582 5.46894,-2.45923 6.61547,-5.23952 1.14653,-2.7688 0.78539,-5.93891 -0.97453,-8.38097 L 565.14994,390.121 c 0.74526,-2.36755 1.47331,-4.74653 2.16694,-7.14272 l 27.67142,-10.34722 c 2.81473,-1.05478 4.88993,-3.47963 5.46319,-6.43187 0.59618,-2.94653 -0.38991,-5.97903 -2.59115,-8.02554 l -21.64641,-20.19566 c 0.26373,-2.43632 0.50448,-4.88983 0.71657,-7.33763 l 25.18919,-15.59244 c 2.55103,-1.57073 4.10456,-4.36248 4.10456,-7.36628 0,-3.00385 -1.5478,-5.7956 -4.09883,-7.37203 z M 433.5345,509.26571 c -9.61936,-2.0752 -15.73608,-11.55677 -13.67232,-21.20461 2.05799,-9.63635 11.53404,-15.77017 21.14767,-13.69496 9.61936,2.05798 15.74752,11.55672 13.6838,21.18738 -2.06377,9.63061 -11.54552,15.77017 -21.15915,13.71219 z m -8.55882,-57.887 c -8.77666,-1.88028 -17.41,3.70319 -19.29031,12.4969 l -8.9429,41.73275 c -27.59687,12.52554 -58.24352,19.48483 -90.51822,19.48483 -33.01422,0 -64.32584,-7.30324 -92.41574,-20.36191 l -8.93717,-41.73275 c -1.8803,-8.78223 -10.51364,-14.37718 -19.28456,-12.49116 l -36.84361,7.91089 c -6.83903,-7.03955 -13.20225,-14.53771 -19.04953,-22.45429 h 179.2708 c 2.02936,0 3.38226,-0.36712 3.38226,-2.21277 v -63.41312 c 0,-1.8459 -1.3529,-2.21276 -3.38226,-2.21276 h -52.43063 v -40.19646 h 56.70718 c 5.17656,0 27.67713,1.47899 34.87158,30.23906 2.25293,8.84527 7.20019,37.61681 10.58244,46.82895 3.37079,10.33001 17.0947,30.9671 31.71864,30.9671 h 89.33158 c 1.01466,0 2.09814,-0.11478 3.23895,-0.32112 -6.19699,8.42106 -12.99589,16.3893 -20.31644,23.83585 z m -247.94772,57.01567 c -9.61935,2.07515 -19.08965,-4.05862 -21.15914,-13.69502 -2.05801,-9.65354 4.05871,-19.12941 13.67806,-21.20457 9.61936,-2.05798 19.0954,4.07579 21.15913,13.71219 2.05802,9.63062 -4.06443,19.12367 -13.67805,21.1874 z m -68.00619,-275.7629 c 3.98992,9.00578 -0.0688,19.55936 -9.063283,23.54345 -8.994498,3.99558 -19.519608,-0.0688 -23.509516,-9.08031 -3.989913,-9.01153 0.06878,-19.54788 9.063285,-23.54346 9.000233,-3.98984 19.519604,0.0688 23.509514,9.08032 z m -20.901164,49.54615 38.379954,-17.05425 c 8.19766,-3.64015 11.90094,-13.24785 8.26072,-21.46256 l -7.9053,-17.87399 h 31.08806 V 365.91254 H 95.223331 c -5.440263,-19.12366 -8.358173,-39.30789 -8.358173,-60.16849 0,-7.96251 0.429948,-15.83327 1.255448,-23.56642 z M 256.54527,268.56861 v -41.30279 h 74.03119 c 3.82366,0 27.00069,4.41979 27.00069,21.74917 0,14.38862 -17.77689,19.54792 -32.39509,19.54792 h -68.63679 z m 269.0438,37.17544 c 0,5.48025 -0.20087,10.90321 -0.60191,16.28607 h -22.50634 c -2.25289,0 -3.15865,1.47899 -3.15865,3.68602 v 10.33569 c 0,24.32885 -13.71818,29.61998 -25.73953,30.96709 -11.44805,1.28983 -24.14009,-4.79238 -25.70511,-11.7975 -6.75303,-37.98369 -18.00619,-46.09523 -35.77734,-60.1112 22.05341,-14.00458 45.00114,-34.66458 45.00114,-62.31827 0,-29.86067 -20.47123,-48.66907 -34.42442,-57.8927 -19.57695,-12.90389 -41.25202,-15.48926 -47.09931,-15.48926 H 142.81563 c 31.56385,-35.22636 74.34074,-60.18002 122.72414,-69.260339 l 27.43637,28.782979 c 6.20271,6.49495 16.47557,6.73573 22.96492,0.52743 l 30.69822,-29.361975 c 64.32585,11.975205 118.78584,52.016875 150.172,106.951635 l -21.01583,47.46527 c -3.62874,8.21467 0.0747,17.82237 8.26643,21.46255 l 40.46092,17.97142 c 0.6994,7.18286 1.06627,14.44023 1.06627,21.79509 z M 292.98761,65.66607 c 7.10846,-6.810248 18.38454,-6.540815 25.18917,0.578995 6.79316,7.136984 6.5352,18.424326 -0.59046,25.228792 -7.10846,6.810253 -18.38454,6.546553 -25.18918,-0.584691 -6.78743,-7.125507 -6.52947,-18.412848 0.59047,-25.223096 z m 208.55307,167.83101 c 3.98418,-9.0058 14.50929,-13.07016 23.50378,-9.07458 8.99453,3.98984 13.05323,14.53766 9.06331,23.54345 -3.98417,9.01154 -14.50928,13.07589 -23.50951,9.08032 -8.98306,-3.98983 -13.04176,-14.53197 -9.05758,-23.54919 z"
     id="path3"
     inkscape:connector-curvature="0"
     style="stroke-width:5.73257494" />
</svg>
